P1
23 702
11111111111111111111111
11111111111111111111111
11111111111111111111111
11111111111111111111111
11111111111111111111111
11111111111110000000000
00000000000000000000000
00000000000000000000000
00000000000000000000000
00000000000000000000000
00000000000000000000000
11000000000000000000000
00000000000000000000000
00000000000000001111100
00000000000000000000000
00000000000000000000000
00000000000011000100010
00100010010100000000000
00000000000000000000000
00000110000000000000000
00000000000000000000000
00001000100010001001010
01100101010101010101001
00000000000000000000000
00000000000000000100000
00000000000000000000000
00000000000000010101010
10101010010001100010001
00010001001010000000000
00000000000000000000000
00000001000000000000000
00000000000000000000000
00000100010001000100101
00110000000000000000000
00000000000000000000000
00000000000000000010111
00000000000000000000000
00000000000000000000000
00000000000000110000000
00000000000000000000000
00000000000000000000000
00000001000100000000000
00000000000000000000000
00000000000000000000000
00011000000000000000000
00000000000000000000000
00000000000000000001000
10000000000000000000000
00000000000000000000000
00000000000000011000000
00000000000000000000000
00000000000000000000000
00000000000000000000000
00000000000000000000000
00000000000000000000000
00001100000000000000000
00001110000000000000000
00000111000100000000000
00000000000000000000011
10000000000000000000001
11011111000000001100000
00000000000000001000001
00010001000100000100000
10000000000000000000000
00000000001000001000100
01001010000100010000000
00000110000000000000000
00011111001010101010101
01001111101111100000000
00000000000000001100111
11001010101010100100011
11101000000000000110000
00000000000000000100000
10001000100010000010001
00010000000000000000000
00000110000100000100010
00100101000010001000000
00000011000000000000000
00001111100000000000000
00000111110111110000000
00000000000000000000011
11100000000000000000001
11110100000000000011000
00000000000000000010000
00000000000000000001000
00100000000000000000000
00000000000010000000000
00000000000001000100000
00000001100000000000000
00000111000000000000000
00000011100000100000000
00000000000000000000001
11000000000000000000000
11100010000000000001100
00000000000000000000000
00000000000000000000000
00000000000000000000000
00000000000000000000000
00000000000000000000000
00000000110000000000000
00000000000000000000000
00000000000000000000000
00000000000000000000000
00000000000000000000000
00000000000000000000110
00000000000000000000111
00000000000000000000011
10111000000000000000000
00000000000000111000000
00000000000000011101111
10000000011000000000000
00011000010000010001001
01001000001000001000000
00000000000000001100110
00010000010001001010101
00001000100000000000011
00000000000000011001111
10010101010010010100111
11010100000000000000000
00000110011001111100101
01010010001000111110111
11000000001100000000000
00000000001000001000100
10100100000100010000000
00000000000000000000000
00001000001000100101010
10000100010000000000001
10000000000000000000111
11000000000000000000011
11101011100000000000000
00000000000000111110000
00000000000000011111010
11100000000110000000000
00000110000100000000000
00000000000010001000000
00000000000000000000001
10000100000000000000000
00000010001000000000000
11000000000000000110011
10000000000000000000001
11000111000000000000000
00000000000110011100000
00000000000000001110001
00000000000011000000000
00000000000000000000000
00000000000000000000000
00000000000000000000000
00000000000000000000000
00000000000000000000000
01100000000000000000000
00000000000000000000000
00000000000000000000000
00000000000000000000000
00000000000000000000000
00000000000001100000000
00000000000001110000000
00000000000000111010111
00000000000000000000000
00000001110000000000000
00000000111011101000000
00110000000000011001100
00100000100101001000100
00010001000000000000000
00000110011001100001000
00100101001001010000100
01110100000000110000000
00001100110011111001010
01001010101001111101110
00000000000000000110011
00110011111001010010010
10010001111101010100000
00011000000000000000000
00010000010010100100010
00001000100000000000000
00000000000000000000100
00010010100100101000010
00100000000000011000000
00000000000001111100000
00000000000000111110111
00000000000000000000000
00000001111100000000000
00000000111110111000000
00001100000000000110011
00001000000000000000000
00000100010000000000000
00000000000110011000010
00000000000000000000001
00000100000000001100000
00000011001100111000000
00000000000000011100011
10000000000000000000000
11001100111000000000000
00000000011100011111000
00000110000000000000000
00000000000000000000000
00000000000000000000000
00000000000000000000000
00000000000000000000000
00000000000000000110000
00000000000000000000000
00000000000000000000000
00000000000000000000000
00000000000000000000000
00000000000000000000000
00000011000000000000000
00000011100000000000000
00000001110000010000000
00000000000000000000000
11100000000000000000000
01110111010000000011000
00001100110011000010000
01001010101001000001000
01011000000000000110011
00110011000010000010010
10101010100001000001110
00000001100000001100110
01100111110010100100010
01010011111011101000000
00000011001100110011001
11110010100100010001000
11111000101000000001100
00000000000000000001000
00100101010100100000100
00010000000000000000000
00000000000001000001001
01010101010000100001000
00000000110000000000000
00000011111000000000000
00000001111101110000000
00000000000000000000000
11111000000000000000000
01111101000000000000110
00000011001100110000100
00000000000000000000010
00101000000000000000000
11001100110000100000000
00000000000000010001000
00000000011000000011001
10011001110000000000000
00000000111000111000000
00000000000011001100110
01110000000000000000000
00111000100000000000011
00000000000000000000000
00000000000000000000000
00000000000000000000000
00000000000000000000000
00000000000000000000000
00000000001100000000000
00000000000000000000000
00000000000000000000000
00000000000000000000000
00000000000000000000000
00000000000000000000001
10000000000000000000001
11000000000000000000000
11101011100000000000000
00000000000000001110000
00000000000000000111000
00100000000110001100110
01100110000100001010010
00100010000010001100000
00000011001100110011001
10000100001010010001001
01000010000100100000000
11000110011001100110011
11100010010101010101001
11110111000000000011001
10011001100110011111000
10010101010010001111101
01010000000011000000000
00000000000010000101001
00010001000001000101000
00000000000000000000000
00000010000101001000100
10100001000101010000000
01100000000000000000001
11110000000000000000000
11111011111000000000000
00000000000000001111100
00000000000000000111110
11111000000001100011001
10011001100001000000000
00000000000000100010100
00000000000011001100110
01100001000000000000000
00000000100000100000000
00110001100110011001100
11100000000000000000000
01110001111100000000000
01100110011001100111000
00000000000000000011100
01110000000000110000000
00000000000000000000000
00000000000000000000000
00000000000000000000000
00000000000000000000000
00000000000000000000000
00011000000000000000000
00000000000000000000000
00000000000000000000000
00000000000000000000000
00000000000000000000000
00000000000000011000000
00000000000000000000000
00000000000000000000000
00000000000000000000000
00000000000000000000000
00000000000000000000000
00001100011001100110011
00110000111011111000100
00000000110011001100110
00011101111101111100000
01100110011001100001110
11111011100000001100011
00110011001100110000100
01000000010000000000110
01100110011000010001000
00100000000001100110011
00110000100010000000100
00000110000000000000000
00000001111101000001111
10000000000000000000000
00111110100000100000000
00000000000000000011111
01000001010000000110000
00000000000000000000010
00100000100010000000000
00000000000000001000100
00010000000000000000000
00000000010001000001000
00000011000110011001100
11001100111110100000111
11000000001100110011001
10011111010000010000000
00011001100110011001111
10100000101110000011000
11001100110011001100001
00010000000100000000001
10011001100110000100010
00001000000000011001100
11001100001000100000100
00000001100000000000000
00000000011100010000000
10000000000000000000000
00001110001000001000000
00000000000000000000111
00010000011100000001100
00000000000000000000000
00000000000000000000000
00000000000000000000000
00000000000000000000000
00000000000000000000000
00000000110000000000000
00000000000000000000000
00000000000011001100110
00000000000000000000000
00000110011001100110000
00000000000000000000110
00000000000000000000000
00000000000000000000000
01100110011000000000000
00000000000000000110011
00110011000000000000000
00000000011000000000000
00000000000000000000000
00000000000000000000000
00000000000000000000000
00000000000000000000000
00000000000000000000011
00000000000000000000000
00000000000000000000000
00000000000000000000000
00000000000000000000000
00000000000000000000000
00000000001100011001100
11001100110000111011111
01011100110011001100110
01100001110111110111010
00001100110011001100110
00000000000000000000001
10001100110011001100110
00010001000001000000110
01100110011001100001000
10000011101000001100110
01100110011000000000000
00000000000110000000000
00000000000001111101000
00111000000000000000000
00000011111010000010101
00000000000000000000000
00000000000000000000000
11000000000000000000000
00001000100000100000000
00000000000000000000100
01000001000000000000000
00000000000000000000000
00000000000011000110011
00110011001100111110100
00011100001100110011001
10011001111101000001110
00000011001100110011001
10000111011100000100000
01100011001100110011001
10000100010000010000001
10011001100110011000010
00100000001000000011001
10011001100110000100000
10000010000001100000000
00000000000000011100010
00001110000000000000000
00000000111000100000111
11000000000000000000000
00001111101010001111100
00110000000000000000000
00000000000000000000000
00000000000000000000000
00000000000000000000000
00000000000000000010001
00000100010000110000000
11001100110011000000000
00000000000011001100110
01100110000000000000000
00000000110011001100110
01100111110101110111110
00011000000011001100110
01100000000000000000000
01100110011001100110000
00000000000000000000110
01100110011001100001000
10000000100000011000000
00000000000000000000000
00000000000000000000000
00000000000000000000000
00000000000000000000000
00000011100011100000100
00001100000000000000000
00000000000000000000000
00000000000000000000000
00000000000000000000000
00000000000000000000000
00000000000000001100000
00000000000000000000000
00000000000000000000000
00000000000000000000000
00000000001100110011001
10011000000000000000000
00000110000000000000000
00000000000000000000000
00000000000000000000000
00000000000000000000001
10011001100110011000000
00000000000000000110000
00000000000000000000000
00000000000000000000000
00000000000000000000000
00000000000000000000000
00000000000000000000000
00000011000000000000000
00000000000000000000000
00000000000000000000000
00000000000000000000000
00000000000000000000000
00000000000000000011000
00111000000000001111100
00000001110100000000011
10100000000011111011111
00011111011111000111110
11101000111110000010000
00000001100000001000000
00000100000000000001110
10000000000011100000000
01000001000000010000010
00000010000000111000100
00001001000000000001100
00010100000000000111110
00000000101010000000000
01010000000001000001000
00001000001111100010000
00010100010000010101000
00000000110000010000000
00000010000000000000100
00000000000010000000000
00100000100000001000001
00000001000000100000010
00001010100000000000110
00001011100000000010111
00000000011100000000000
10000000000000100000100
00000100000101110001000
00100000001000001111100
00000000011000001000000
00000001000000000000000
10000000000010000000000
00010000010000000100000
10000000100000100000001
00000001000000000000011
00000111000000000001000
00000000001111100000000
01000000000000010000010
00000010000010000000100
00010000000100000111000
00000000001100000000000
00000000000000000000000
00000000000000000000000
00000000000000000000000
00000000000000000000000
00000000000000000000001
10000000000000000000000
00000000000000000000000
00000000000000000000000
00000000000000000000000
00000000000000000000000
00000000000110000011100
01111100011100000001000
11111011111000111110111
01000101110111110001011
10111110001011101110100
01110101111100000000000
11000000010001000000000
10000100100010000010000
00010000000111000100000
10000000100000100000001
00000001110001110101000
00000000000011000001010
00111110001010001010100
01111101000000011111000
10100011100010000000111
00011111000111000001010
00101010111110000000000
01100000100000100000001
00000101010001000001000
00001000000100000010000
01000000010000010000000
10000001000000100000100
00000000000001100000101
11010111000101110111110
00101110100000001011101
00000001110001000000011
10001011100011100010000
00011100010111000000000
00110000010000010000000
10000000100000100000100
00000100000100000001000
00100000001000001000000
01000001000000000100010
00000000000000110000011
10001000000011100011100
00010000010000000100000
10000000111000100000001
11000100000001110001000
00001111101000000000000
00011000000000000000000
00000000000000000000000
00000000000000000000000
00000000000000000000000
00000000000000000000000
00000000000000011000000
00000000000000000000000
00000000000000000000000
00000000000000000000000
00000000000000000000000
00000000000000000000000
00001100000111010000010
00000010111110000000101
11010001110101111100011
10101111100011101000001
00010111011111000101110
00001000000000001100000
11101001001000010110100
00000010110001110000011
10100000000011101000000
00011100100100011000010
00000011000001001000000
00000110000010101010101
00011101010000000111010
00101000001010100000000
01010111110000010101010
10001110001111100011100
01010100000000000110000
01000001010100000100010
00000000100001000000010
00010000000010000100000
00010000101010001010001
00000001010001010100000
00000011000001110001111
10001110001000000011100
01000000010000010000000
10000010111000100000111
11000111110101110001111
10111110000000000011000
00001000001000001010001
00000001010001000000010
00001000000010000010000
00010000000100000101000
10000000101000001000000
00000001100000111110111
00000111000100000001110
00100000001000001000000
01000001000000010000011
10000011111010000000111
11011100000000000001100
00000000000000000000000
00000000000000000000000
00000000000000000000000
00000000000000000000000
00000000000000000000000
00000000110000000000000
00000000000000000000000
00000000000000000000000
00000000000000000000000
00000000000000000000000
00000000000000000000110
00000000000000000000000
00000000000000000000000
00000000000000000000000
00000000000000000000000
00000000000000000000000
00000000011000000000000
00000000000000000000000
00000000000000000000000
00000000000000000000000
00000000000000000000000
00000000000000000000011
00000000000000000000000
00000000000000111110001
00011100011111011111011
10101110100000000000000
00000000000000000000000
00000000001100000000000
00000000000000000000000
00010000000100000100010
00001000000011100011100
00000000000000000000000
00000000000000000000001
10000000000000000000000
00000000000000011111011
11101010001000001111100
01010001010000000000000
00000000000000000000000
00000000000110000000000
00000000000000000000011
10001000001000101000001
00000100000010000010000
11111011111000000000000
00000000000000000000000
11000000000000000000000
00000000000010001011101
11110101110100000101110
10000010000001010010000
00000000000000000000000
00000000000011000000000
00000000000000000000001
01000100000001000100000
10000010000010000010000
01000001000000000000000
00000000000000000000000
01100000000000000000000
00000000000100000100000
00100011100010000010000
01000001000001000001000
00000000000000000000000
00000000000001100000000
00000000000000000000000
10111000000000000000000
00000000000000000000000
00111110100000000000000
00000000000000000000000
00110000000000000000000
00000000000010000000000
00000000000000000000000
00000000000000100000100
00000000000000000000000
00000000000000110000000
00000000000000000000000
01110000000000000000000
00000000000000000000000
00010000010000000000000
00000000000000000000000
00011000000000000000000
00000000000000000000000
00000000000000000000000
00000000000000000000000
00000000000000000000000
00000000000000011000000
00000000000000000000000
00000000000000000000000
00000000000000000000000
00000000000000000000000
00000000000000000000000
00001100000000000000000
00000000000000000000000
00000000000000000000000
00000000000000000000000
00000000000000000000000
00000000000000001111111
11111111111111111111111
11111111111111111111111
11111111111111111111111
11111111111111111111111
11111111111111111111111
11111100000000000000000
