P1
5 7
11111
11000
10000
01000
10111
10001
10001
