P1
3 3
101
010
101
