P1
5 7
00111
00100
11111
00100
11111
00100
11100
