P1
5 7
00100
00100
11111
10001
11111
00100
00100
