P1
3 3
111
001
101
