P1
5 7
11111
10000
11111
10000
10111
10000
10000
