P1
3 5
101
100
101
100
111
