P1
3 7
101
100
111
100
111
100
111
