P1
5 7
11101
11101
10101
10000
11100
00100
11111
