P1
5 7
00001
01011
11101
00100
11100
10100
11100
