P1
5 7
11101
00111
00101
01000
10000
10000
10000
