P1
5 7
10111
11000
11100
10100
11111
10100
11111
