P1
5 7
00001
01001
10101
10101
11111
00100
11100
