P1
127 127
1111111111111111111111111111111111111111111111111111111111111111111111111111111111111111111111111111111111111111111111111111111
1000000000000000000000000000000000000000000000000000000000000000000000000000000000000000000000000000000000000000000000000000001
1000000000000000000000000000000000000000000000000000000000000111110000000000000000000000000000000000000000000000000000000000001
1000100010001000100101000000000000000000000000000000000000000110000000000000000000000000000000000000000000100010001000100101001
1001010101010101010010000000000000000000000000000000000000000100000000000000000000000000000000000000000001010101010101010010001
1000100010001000100101000000000000000000000000000000000000000010000000000000000000000000000000000000000000100010001000100101001
1000000000000000000000000000000000000000000000000000000000000101110000000000000000000000000000000000000000000000000000000000001
1000000000000000000000000000000000000000000000000000000000000100010000000000000000000000000000000000000000000000000000000000001
1000000000000000000000000000000000000000000000000000000000000100010000000000000000000000000000000000000000000000000000000000001
1000000000000000000000000000000000000000000000000000000000000000000000000000000000000000000000000000000000000000000000000000001
1000000000000000000000111000000000000000000000111000100000000000000000000000000000000111000000000000000000000111011111000000001
1000000000000000000000100000100010001000100000100000100000000000000000000000000000000100000100010001001010000100010000000000001
1000000000000000000011111001010101010101010011111011111000000000000000000000000110011111001010101010100100011111010000000000001
1000000000000000000000100000100010001000100000100010001000000000000000000000000110000100000100010001001010000100010000000000001
1000000000000000000011111000000000000000000011111011111000000000000000000000000000011111000000000000000000011111010000000000001
1000000000000000000000100000000000000000000000100000100000000000000000000000000000000100000000000000000000000100010000000000001
1000000000000000000011100000000000000000000011100000100000000000000000000000000000011100000000000000000000011100010000000000001
1000000000000000000000000000000000000000000000000000000000000000000000000000000000000000000000000000000000000000000000000000001
1000000000000000000000000000000000000000000000000000000000000000000000000000000000000000000000000000000000000000000000000000001
1000000000000000000000111000000000000000000000111011100000000000000000000000000000000111000000000000000000000111011111000000001
1000000000000000110000100000100010010100100000100000100000000000000000000001100110000100000100010010101010000100010000000000001
1000000000000000110011111001010101001001010011111010100000000000000000000001100110011111001010101001000100011111011111000000001
1000000000000000000000100000100010010100100000100010000000000000000000000000000000000100000100010010101010000100010000000000001
1000000000000000000011111000000000000000000011111010111000000000000000000000000000011111000000000000000000011111010111000000001
1000000000000000110000100000000000000000000000100010000000000000000000000000000110000100000000000000000000000100010000000000001
1000000000000000110011100000000000000000000011100011100000000000000000000000000110011100000000000000000000011100010000000000001
1000000000000000000000000000000000000000000000000000000000000000000000000000000000000000000000000000000000000000000000000000001
1000000000000000000000000000000000000000000000000000000000000000000000000000000000000000000000000000000000000000000000000000001
1000000000000000000000111000000000000000000000111010111000000000000000000000000000000111000000000000000000000111011101000000001
1000000000001100110000100000100101001000100000100010000000000000000000011001100110000100000100101001001010000100011101000000001
1000000000001100110011111001010010010101010011111011100000000000000000011001100110011111001010010010100100011111010101000000001
1000000000000000000000100000100101001000100000100010000000000000000000000000000000000100000100101001001010000100010000000000001
1000000000000000000011111000000000000000000011111011100000000000000000000000000000011111000000000000000000011111011100000000001
1000000000001100110000100000000000000000000000100010000000000000000000000001100110000100000000000000000000000100000100000000001
1000000000001100110011100000000000000000000011100011100000000000000000000001100110011100000000000000000000011100011111000000001
1000000000000000000000000000000000000000000000000000000000000000000000000000000000000000000000000000000000000000000000000000001
1000000000000000000000000000000000000000000000000000000000000000000000000000000000000000000000000000000000000000000000000000001
1000000000000000000000111000000000000000000000111000001000000000000000000000000000000111000000000000000000000111011101000000001
1000000011001100110000100000100101010100100000100001011000000000000110011001100110000100000100101010101010000100000111000000001
1000000011001100110011111001010010001001010011111011101000000000000110011001100110011111001010010001000100011111000101000000001
1000000000000000000000100000100101010100100000100000100000000000000000000000000000000100000100101010101010000100001000000000001
1000000000000000000011111000000000000000000011111011100000000000000000000000000000011111000000000000000000011111010000000000001
1000000011001100110000100000000000000000000000100010100000000000000000011001100110000100000000000000000000000100010000000000001
1000000011001100110011100000000000000000000011100011100000000000000000011001100110011100000000000000000000011100010000000000001
1000000000000000000000000000000000000000000000000000000000000000000000000000000000000000000000000000000000000000000000000000001
1000000000000000000000000000000000000000000000000000000000000000000000000000000000000000000000000000000000000000000000000000001
1000000000000000000000111000000000000000000000111010111000000000000000000000000000000111000000000000000000000111000001000000001
1000110011001100110000100001010010001000100000100011000000000001100110011001100110000100001010010001001010000100001001000000001
1000110011001100110011111000100101010101010011111011100000000001100110011001100110011111000100101010100100011111010101000000001
1000000000000000000000100001010010001000100000100010100000000000000000000000000000000100001010010001001010000100010101000000001
1000000000000000000011111000000000000000000011111011111000000000000000000000000000011111000000000000000000011111011111000000001
1000110011001100110000100000000000000000000000100010100000000000000110011001100110000100000000000000000000000100000100000000001
1000110011001100110011100000000000000000000011100011111000000000000110011001100110011100000000000000000000011100011100000000001
1000000000000000000000000000000000000000000000000000000000000000000000000000000000000000000000000000000000000000000000000000001
1000000000000000000000000000000000000000000000000000000000000000000000000000000000000000000000000000000000000000000000000000001
1000000000000000000000000000000000000000000000000000000000000000000000000000000000000000000000000000000000000000000000000000001
1000110011001100110011000011101111100010000000000110011001100110000111011111011111000000110011001100110000111011111011100000001
1000110011001100110011000010001000000010000000000110011001100110000100010000010000000000110011001100110000100010000000100000001
1000000000000000000000001111101000001111100000000000000000000000011111010000010000000000000000000000000011111010000010100000001
1000000000000000000000000010001000001000100000000000000000000000000100010000010000000000000000000000000000100010000010000000001
1000110011001100110011001111101000001111100000000110011001100110011111010000010000000000110011001100110011111010000010111000001
1000110011001100110011000010001000000010000000000110011001100110000100010000010000000000110011001100110000100010000010000000001
1000000000000000000000001110001000000010000000000000000000000000011100010000010000000000000000000000000011100010000011100000001
1000000000000000000000000000000000000000000000000000000000000000000000000000000000000000000000000000000000000000000000000000001
1000000000000000000000000000000000000000000000000110011001100000000000000000000000000000110011001100110000000000000000000000001
1000000000000000000000000000000000000000000000000110011001100000000000000000000000000000110011001100110000000000000000000000001
1000000000000000000000000000000000000000000000000000000000000000000000000000000000000000000000000000000000000000000000000000001
1000000000000000000000000000000000000000000000000000000000000000000000000000000000000000000000000000000000000000000000000000001
1000110011001100110011000011101111101011100110011001100110011000011101111101110100000110011001100110011000000000000000000000001
1000110011001100110011000010001000001000000110011001100110011000010001000001110100000110011001100110011000000000000000000000001
1000000000000000000000001111101000001110000000000000000000000001111101000001010100000000000000000000000000000000000000000000001
1000000000000000000000000010001000001000000000000000000000000000010001000001000000000000000000000000000000000000000000000000001
1000110011001100110011001111101000001110000110011001100110011001111101000001110000000110011001100110011000011101110000010000001
1000110011001100110011000010001000001000000110011001100110011000010001000000010000000110011001100110011000010000010000010000001
1000000000000000000000001110001000001110000000000000000000000001110001000001111100000000000000000000000001111101010001111100001
1000000000000000000000000000000000000000000000000000000000000000000000000000000000000000000000000000000000010001000001000100001
1000000011001100110011000000000000000000000110011001100110011000000000000000000000000110011001100110011001111101011101111100001
1000000011001100110011000000000000000000000110011001100110011000000000000000000000000110011001100110011000010001000000010000001
1000000000000000000000000000000000000000000000000000000000000000000000000000000000000000000000000000000001110001110000010000001
1000000000000000000000000000000000000000000000000000000000000000000000000000000000000000000000000000000000000000000000000000001
1000000000000000000000000000000000000000000000000000000000000000000000000000000000000110011001100110011000000000000000000000001
1000000000000000000000000000000000000000000000000000000000000000000000000000000000000110011001100110011000000000000000000000001
1000000000000000000000000000000000000000000000000000000000000000000000000000000000000000000000000000000000000000000000000000001
1000000000000000000000000000000000000000000000000000000000000000000000000000000000000000000000000000000000000000000000000000001
1000001110000000000011111000000000111010000000001110100000000011111011111000111110111110001111101110100011111000001000000000001
1000000010000000000010000000000000111010000000000011100000000010000010000000100000100000001000000011100010000001001000000000001
1000001010000000000011111000000000101010000000000010100000000010000010000000100000111110001000000010100010000010101000000000001
1000001000000000000010000000000000100000000000000100000000000010000010000000100000100000001000000100000010000010101000000000001
1000001011100000000010111000000000111000000000001000000000000010000010000000100000101110001000001000000010000011111000000000001
1000001000000000000010000000000000001000000000001000000000000010000010000000100000100000001000001000000010000000100000000000001
1000001110000000000010000000000000111110000000001000000000000010000010000000100000100000001000001000000010000011100000000000001
1000000000000000000000000000000000000000000000000000000000000000000000000000000000000000000000000000000000000000000000000000001
1000000000000000000000000000000000000000000000000000000000000000000000000000000000000000000000000000000000000000000000000000001
1000001110001111100011100000001000111110111110001111101110100010111011111000101110111110001011101110100011101011111000000000001
1000000010001000000000100001001000100000100000001000000011100010000010000000100000100000001000000011100011101010000000000000001
1000001010001111100010100010101000111110100000001111100010100011100010000000111000111110001110000010100010101011111000000000001
1000001000001000000010000010101000100000100000001000000100000010000010000000100000100000001000000100000010000010000000000000001
1000001011101011100010111011111000101110100000001011101000000011100010000000111000101110001110001000000011100010111000000000001
1000001000001000000010000000100000100000100000001000001000000010000010000000100000100000001000001000000000100010000000000000001
1000001110001000000011100011100000100000100000001000001000000011100010000000111000100000001110001000000011111010000000000000001
1000000000000000000000000000000000000000000000000000000000000000000000000000000000000000000000000000000000000000000000000000001
1000000000000000000000000000000000000000000000000000000000000000000000000000000000000000000000000000000000000000000000000000001
1000001110100000100000001011111000000010111010001110101111100011101011111000111010000010001011101111100010111000001000000000001
1000001110100100100001011010000000010110001110000011101000000000111010000000001110010010001100001000000011000001001000000000001
1000001010101010100011101010000000111010001010000010101000000000101011111000001010101010001110001111100011100010101000000000001
1000001000001010100000100010000000001000010000000100001000000001000010000000010000101010001010001000000010100010101000000000001
1000001110001111100011100010000000111000100000001000001000000010000010111000100000111110001111101011100011111011111000000000001
1000000010000010000010100010000000101000100000001000001000000010000010000000100000001000001010001000000010100000100000000000001
1000001111101110000011100010000000111000100000001000001000000010000010000000100000111000001111101000000011111011100000000000001
1000000000000000000000000000000000000000000000000000000000000000000000000000000000000000000000000000000000000000000000000000001
1000000000000000000000000000000000000000000000000000000000000000000000000000000000000000000000000000000000000000000000000000001
1000000000000000000000000000000000000000000000000000000000000000000000000000000000000000000000000000000000000000000000000000001
1000000000000000000000000000000000000000000000000000000000000000000000000000000000000000000000000000000000000000000000000000001
1000000000000000000000000000000000000011111000100011100011111011111011101011101000000000000000000000000000000000000000000000001
1000000000000000000000000000000000000010000000100000100010000010000000111000111000000000000000000000000000000000000000000000001
1000000000000000000000000000000000000011111011111010100010000011111000101000101000000000000000000000000000000000000000000000001
1000000000000000000000000000000011100010000010001010000010000010000001000001000011111011111000000000000000000000000000000000001
1000000000000000000000000000000000100010111011111010111010000010111010000010000001010010000000000000000000000000000000000000001
1000000000000000000000000000000010100010000000100010000010000010000010000010000010000010000000000000000000000000000000000000001
1000000000000000000000000000000010000010000000100011100010000010000010000010000010000010000000000000000000000000000000000000001
1000000000000000000000000000000010111000000000000000000000000000000000000000000011111010000000000000000000000000000000000000001
1000000000000000000000000000000010000000000000000000000000000000000000000000000010000010000000000000000000000000000000000000001
1000000000000000000000000000000011100000000000000000000000000000000000000000000010000010000000000000000000000000000000000000001
1000000000000000000000000000000000000000000000000000000000000000000000000000000000000000000000000000000000000000000000000000001
1000000000000000000000000000000000000000000000000000000000000000000000000000000000000000000000000000000000000000000000000000001
1000000000000000000000000000000000000000000000000000000000000000000000000000000000000000000000000000000000000000000000000000001
1111111111111111111111111111111111111111111111111111111111111111111111111111111111111111111111111111111111111111111111111111111
