P1
127 127
1111111111111111111111111111111111111111111111111111111111111111111111111111111111111111111111111111111111111111111111111111111
1000000000000000000000000000000000000000000000000000000000000000000000000000000000000000000000000000000000000000000000000000001
1000000000000000000000000000000000000000000000000000000000000111110000000000000000000000000000000000000000000000000000000000001
1000100010001001010010000000000000000000000000000000000000000110000000000000000000000000000000000000000000100010001001010010001
1001010101010100100101000000000000000000000000000000000000000100000000000000000000000000000000000000000001010101010100100101001
1000100010001001010010000000000000000000000000000000000000000010000000000000000000000000000000000000000000100010001001010010001
1000000000000000000000000000000000000000000000000000000000000101110000000000000000000000000000000000000000000000000000000000001
1000000000000000000000000000000000000000000000000000000000000100010000000000000000000000000000000000000000000000000000000000001
1000000000000000000000000000000000000000000000000000000000000100010000000000000000000000000000000000000000000000000000000000001
1000000000000000000000000000000000000000000000000000000000000000000000000000000000000000000000000000000000000000000000000000001
1000000000000000000000000000000000000000000000000000000000000000000000000000000000000000000000000000000000000000000000000000001
1000000000000000000000000000000000000000000000000000000000000000000000000000000000000000000000000000000000000000000000000000001
1000000000000000000000000000000000000000000000000000000000000000000000000000000000000000000000000000000000000000000000000000001
1000000000000000000000000000000000000000000000000000000000000000000000000000000000000000000000000000000000000000000000000000001
1000000000000000000000000000000000000000000000000000000000000000000000000000000000000000000000000000000000000000000000000000001
1000000001111101011101111100011101110000000001111101111101111100011100010000000000001111101111101111100011101111100000000000001
1000000001000001000001000000010000010000000001000000101001000000010000010000000000001000000000101000000010001000000000000000001
1000000001000001010001000001111101010000000001000001000001000001111101111100000000001000001010101000001111101000000000000000001
1000000001000001111001000000010001000000000001000001000001000000010001000100000000001000001110101000000010001000000000000000001
1000000001000001010001000001111101011100000001000001111101000001111101111100000000001000001010101000001111101000000000000000001
1000000001000001000001000000010001000000000001000001000001000000010000010000000000001000001000001000000010001000000000000000001
1000000001000001011101000001110001110000000001000001000001000001110000010000000000001000001111101000001110001000000000000000001
1000000000000000000000000000000000000000000000000000000000000000000000000000000000000000000000000000000000000000000000000000001
1000000000000000000000000000000000000000000000000000000000000000000000000000000000000000000000000000000000000000000000000000001
1000000001111101011101110000011101111100000001111101111101110000011100011101111100001111101111101110000011101110000000000000001
1000000001000001000000010000010001000000000001000000101000010000010000010001000000001000000000100010000010000010000000000000001
1000000001000001010001010001111101111100000001000001000001010001111100010001000000001000001010101010001111101010000000000000001
1000000001000001111001000000010001000000000001000001000001000000010000010001000000001000001110101000000010001000000000000000001
1000000001000001010001011101111101011100000001000001111101011101111100010001000000001000001010101011101111101011100000000000001
1000000001000001000001000000010001000000000001000001000001000000010000010001000000001000001000001000000010001000000000000000001
1000000001000001011101110001110001000000000001000001000001110001110001110001000000001000001111101110001110001110000000000000001
1000000000000000000000000000000000000000000000000000000000000000000000000000000000000000000000000000000000000000000000000000001
1000000000000000000000000000000000000000000000000000000000000000000000000000000000000000000000000000000000000000000000000000001
1000000001111101011101110000011101110100000001111101111101110000011101111100000000001111101111101110000011100000100000000000001
1000000001000001000000010000010001110100000001000000101000010000010001000000000000001000000000100010000010000101100000000000001
1000000001111101010001010001111101010100000001111101000001010001111101000000000000001111101010101010001111101110100000000000001
1000000001000001111001000000010001000000000001000001000001000000010001000000000000001000001110101000000010000010000000000000001
1000000001011101010001011101111101110000000001011101111101011101111101000000000000001011101010101011101111101110000000000000001
1000000001000001000001000000010000010000000001000001000001000000010001000000000000001000001000001000000010001010000000000000001
1000000001000001011101110001110001111100000001000001000001110001110001000000000000001000001111101110001110001110000000000000001
1000000000000000000000000000000000000000000000000000000000000000000000000000000000000000000000000000000000000000000000000000001
1000000000000000000000000000000000000000000000000000000000000000000000000000000000000000000000000000000000000000000000000000001
1000000001011101011101111100011101110100000001011101111101111100011101111100000000001011101111101111100011101111101110000000001
1000000001000001000001000000010000011100000001000000101001000000010001000000000000001000000000101000000010001000000010000000001
1000000001110001010001111101111100010100000001110001000001111101111101000000000000001110001010101111101111101000001010000000001
1000000001000001111001000000010000100000000001000001000001000000010001000000000000001000001110101000000010001000001000000000001
1000000001110001010001011101111101000000000001110001111101011101111101000000000000001110001010101011101111101000001011100000001
1000000001000001000001000000010001000000000001000001000001000000010001000000000000001000001000001000000010001000001000000000001
1000000001110001011101000001110001000000000001110001000001000001110001000000000000001110001111101000001110001000001110000000001
1000000000000000000000000000000000000000000000000000000000000000000000000000000000000000000000000000000000000000000000000000001
1000000000000000000000000000000000000000000000000000000000000000000000000000000000000000000000000000000000000000000000000000001
1000000001111101011100010000011101111100000001111101111100010000011101111100000000001111101111100010000011100010000000000000001
1000000001000001000000010000010001000000000001000000101000010000010001000000000000001000000000100010000010000010000000000000001
1000000001000001010001111101111101000000000001000001000001111101111101000000000000001000001010101111101111101111100000000000001
1000000001000001111001000100010001000000000001000001000001000100010001000000000000001000001110101000100010001000100000000000001
1000000001000001010001111101111101000000000001000001111101111101111101000000000000001000001010101111101111101111100000000000001
1000000001000001000000010000010001000000000001000001000000010000010001000000000000001000001000000010000010000010000000000000001
1000000001000001011100010001110001000000000001000001000000010001110001000000000000001000001111100010001110000010000000000000001
1000000000000000000000000000000000000000000000000000000000000000000000000000000000000000000000000000000000000000000000000000001
1000000000000000000000000000000000000000000000000000000000000000000000000000000000000000000000000000000000000000000000000000001
1000000000000000000000000000000000000000000000000000000000000000000000000000000000000000000000000000000000000000000000000000001
1000000000000000000000000000000000000000000000000000000000000000000000000000000000000000000000000000000000000000000000000000001
1000000000000000000000000000000000000000000000000000000000000000000000000000000000000000000000000000000000000000000000000000001
1000000000000000000000000000000000000000000000000000000000000000000000000000000000000000000000000000000000000000000000000000001
1000000000000000000000000000000000000000000000000000000000000000000000000000000000000000000000000000000000000000000000000000001
1000000000000000000000000000000000000000000000000000000000000000000000000000000000000000000000000000000000000000000000000000001
1000111110001110111110001110111110000000000000000000000000000000000000000000000000000000000000000000000000000000000000000000001
1000100000001000100000001000100000000000000000000000000000000000000000000000000000000000000000000000000000000000000000000000001
1000100000101010100000111110100000000000000000000000000000000000000000000000000000000000000000000000000000000000000000000000001
1000100000100010100000001000100000000000000000000000000000000000000000000000000000000000000000000000000000000000000000000000001
1000100000101010100000111110100000000000000000000001111100011101111100011100010000011101111101111101111101111101011100000000001
1000100000001000100000001000100000000000000000000001000000010001000000010000010000000101000001000001000001000001000000000000001
1000100000111000100000111000100000000000000000000001000001010101111101111101111100000101111101111101111101111101011100000000001
1000000000000000000000000000000000000000000000000001000001000101000000010001000100100001000001000001000001000000010000000000001
1000000000000000000000000000000000000000000000000001000001010101011101111101111101000001011101011101011101011101110000000000001
1000111110001110111000001110001000001110111010000001000000010001000000010000010001000001000001000001000001000001000000000000001
1000100000001000001000001000001000000010111010000001000001110001000001110000010001110001000001000001000001000001000000000000001
1000100000101010101000111110111110000010101010000000000000000000000000000000000000000000000000000000000000000000000000000000001
1000100000100010100000001000100010010000100000000000000000000000000000000000000000000000000000000000000000000000000000000000001
1000100000101010101110111110111110100000111000000000000000000000000000000000000000000000000000000000000000000000000000000000001
1000100000001000100000001000001000100000001000000001011100011101111100011101111100011101111101111101111101111101011100000000001
1000100000111000111000111000001000111000111110000001000000010001000000010001000000000101000001000001000001000001000000000000001
1000000000000000000000000000000000000000000000000001110001010101111101111101000000000101111101111101111101111101011100000000001
1000000000000000000000000000000000000000000000000001000001000101000000010001000000100001000001000001000001000000010000000000001
1000111110001110111000001110111110001110111010000001110001010101011101111101000001000001011101011101011101011101110000000000001
1000100000001000001000001000100000000010111010000001000000010001000000010001000001000001000001000001000001000001000000000000001
1000111110101010101000111110100000000010101010000001110001110001000001110001000001110001000001000001000001000001000000000000001
1000100000100010100000001000100000010000100000000000000000000000000000000000000000000000000000000000000000000000000000000000001
1000101110101010101110111110100000100000111000000000000000000000000000000000000000000000000000000000000000000000000000000000001
1000100000001000100000001000100000100000001000000000000000000000000000000000000000000000000000000000000000000000000000000000001
1000100000111000111000111000100000111000111110000001111100011100000100011100010000011101111101111101111101111101011100000000001
1000000000000000000000000000000000000000000000000001000000010000100100010000010000000101000001000001000001000001000000000000001
1000000000000000000000000000000000000000000000000001000001010101010101111101111100000101000001000001000001000001011100000000001
1000111110001110001000001110001000000000000000000001000001000101010100010001000100100001000001000001000001000000010000000000001
1000100000001000001000001000001000000000000000000001000001010101111101111101111101000001000001000001000001000001110000000000001
1000100000101010111110111110111110000000000000000001000000010000010000010000010001000001000001000001000001000001000000000000001
1000100000100010100010001000100000000000000000000001000001110001110001110000010001110001000001000001000001000001000000000000001
1000100000101010111110111110101110000000000000000000000000000000000000000000000000000000000000000000000000000000000000000000001
1000100000001000001000001000100000000000000000000000000000000000000000000000000000000000000000000000000000000000000000000000001
1000100000111000001000111000101110000000000000000000000000000000000000000000000000000000000000000000000000000000000000000000001
1000000000000000000000000000000000000000000000000001110000011101111100011100010000011100000100000100000100000101011100000000001
1000000000000000000000000000000000000000000000000000010000010001000000010000010000000100101100101100101100101101000000000000001
1000001000001110111110001110001000000000000000000001010001010101111101111101111100000101110101110101110101110101011100000000001
1000001000001000100000001000001000000000000000000001000001000101000000010001000100100000010000010000010000010000010000000000001
1000111110101010100000111110111110000000000000000001011101010101011101111101111101000001110001110001110001110001110000000000001
1000100010100010100000001000100010000000000000000001000000010001000000010000010001000001010001010001010001010001000000000000001
1000111110101010100000111110111110000000000000000001110001110001000001110000010001110001110001110001110001110001000000000000001
1000001000001000100000001000001000000000000000000000000000000000000000000000000000000000000000000000000000000000000000000000001
1000001000111000100000111000001000000000000000000000000000000000000000000000000000000000000000000000000000000000000000000000001
1000000000000000000000000000000000000000000000000000000000000000000000000000000000000000000000000000000000000000000000000000001
1000000000000000000000000000000000000000000000000001111100011101111101111100011100010000011100010000000100010000000101011100001
1000001000111110111110001110001110111110000000000001000000010001000001000000010000010000000100010000100100010000100101000000001
1000001000010100100000001000001000100000000000000001000001010101000001000001111101111100000101111101010101111101010101011100001
1000111110100000100000111110001000100000000000000001000001000101000001000000010001000100100001000101010101000101010100010000001
1000100010100000100000001000001000100000000000000001000001010101000001000001111101111101000001111101111101111101111101110000001
1000111110111110100000111110001000100000000000000001000000010001000001000000010000010001000000010000010000010000010001000000001
1000001000100000100000001000001000100000000000000001000001110001000001000001110000010001110000010001110000010001110001000000001
1000001000100000100000111000111000100000000000000000000000000000000000000000000000000000000000000000000000000000000000000000001
1000000000000000000000000000000000000000000000000000000000000000000000000000000000000000000000000000000000000000000000000000001
1000000000000000000000000000000000000000000000000000000000000000000000000000000000000000000000000000000000000000000000000000001
1000000000000000000000000000000000000000000000000000000000000000000000000000000000000000000000000000000000000000000000000000001
1000000000000000000000000000000000000000000000000000000000000000000000000000000000000000000000000000000000000000000000000000001
1000000000000000000000000000000000000000000000000000000000000000000000000000000000000000000000000000000000000000000000000000001
1000000000000000000000000000000000000000000000000000000000000000000000000000000000000000000000000000000000000000000000000000001
1000000000000000000000000000000000000000000000000000000000000000000000000000000000000000000000000000000000000000000000000000001
1000000000000000000000000000000000000000000000000000000000000000000000000000000000000000000000000000000000000000000000000000001
1111111111111111111111111111111111111111111111111111111111111111111111111111111111111111111111111111111111111111111111111111111
