P1
127 127
1111111111111111111111111111111111111111111111111111111111111111111111111111111111111111111111111111111111111111111111111111111
1000000000000000000000000000000000000000000000000000000000000000000000000000000000000000000000000000000000000000000000000000001
1000000000000000000000000000000000000000000000000000000000000111110000000000000000000000000000000000000000000000000000000000001
1000100010001001010101000000000000000000000000000000000000000110000000000000000000000000000000000000000000100010001001010101001
1001010101010100100010000000000000000000000000000000000000000100000000000000000000000000000000000000000001010101010100100010001
1000100010001001010101000000000000000000000000000000000000000010000000000000000000000000000000000000000000100010001001010101001
1000000000000000000000000000000000000000000000000000000000000101110000000000000000000000000000000000000000000000000000000000001
1000000000000000000000000000000000000000000000000000000000000100010000000000000000000000000000000000000000000000000000000000001
1000000000000000000000000000000000000000000000000000000000000100010000000000000000000000000000000000000000000000000000000000001
1000000000000000000000000000000000000000000000000000000000000000000000000000000000000000000000000000000000000000000000000000001
1000000000000000000000000000000000000000000000000000000000000000000000000000000000000000000000000000000000000000000000000000001
1000000000000000000000000000000000000000000000000000000000000000000000000000000000000000000000000000000000000000000000000000001
1000000000000000000000000000000000000000000000000000000000000000000000000000000000000000000000000000000000000000000000000000001
1000000000000000000000000000000000000000000000000000000000000000000000000000000000000000000000000000000000000000000000000000001
1000000000000000000000000000000000000000000000000000000000000000000000000000000000000000000000000000000000000000000000000000001
1000000000111110000000000000000000000011111000000000000000000000001111100000000000000000000000011100000000000000000000000000001
1000000000100000000000000000000000000010000000000000000000000000001000000000000000000000000000000100000000000000000000000000001
1000000000100000000000000000000000000010000000000000000000000000001000000000000000000000000000010100000000000000000000000000001
1000111110100000001110111110000011100010000000111011100000001111101000000011101111100000010111010000000111011111000001000000001
1000100000100000001000100000000000100010000000100000100000001000001000000010001000000000010000010111000100010000001011000000001
1000100000100000111110100000000010100010000011111010100000001111101000001111101111100000011100010000011111010000011101000000001
1000100000100000001000100000000010000010000000100010000000001000001000000010001000000000010000011100000100010000000100000000001
1000100000000000111110100000000010111000000011111010111000001011100000001111101011100000011100000000011111010000011100000000001
1000100000000000001000100000000010000000000000100010000000001000000000000010001000000000010000000000000100010000010100000000001
1000100000000000111000100000000011100000000011100011100000001000000000001110001000000000011100000000011100010000011100000000001
1000000000000000000000000000000000000000000000000000000000000000000000000000000000000000000000000000000000000000000000000000001
1000000000000000000000000000000000000000000000000000000000000000000000000000000000000000000000000000000000000000000000000000001
1000000000111000000000000000000000000011100000000000000000000000001110000000000000000000000000011111000000000000000000000000001
1000000000001000000000000000000000000000100000000000000000000000000010000000000000000000000000010000000000000000000000000000001
1000000000101000000000000000000000000010100000000000000000000000001010000000000000000000000000011111000000000000000000000000001
1000111110100000001110111110000011100010000000111010111000001111101000000011100000100000011101010000000111011111011100011101001
1000100000101110001000100000000000100010111000100010000000001000001011100010000100100000011101010111000100010000000100011101001
1000100000100000111110100000000010100010000011111011100000001111101000001111101010100000010101010000011111010000010100010101001
1000100000111000001000100000000010000011100000100010000000001000001110000010001010100000010000010000000100010000010000010000001
1000100000000000111110100000000010111000000011111011100000001011100000001111101111100000011100000000011111010000010111011100001
1000100000000000001000100000000010000000000000100010000000001000000000000010000010000000000100000000000100010000010000000100001
1000100000000000111000100000000011100000000011100011100000001000000000001110001110000000011111000000011100010000011100011111001
1000000000000000000000000000000000000000000000000000000000000000000000000000000000000000000000000000000000000000000000000000001
1000000000000000000000000000000000000000000000000000000000000000000000000000000000000000000000000000000000000000000000000000001
1000000000111110000000000000000000000011111000000000000000000000001111100000000000000000000000000000000000000000000000000000001
1000000000100000000000000000000000000010000000000000000000000000001000000000000000000000000000000000000000000000000000000000001
1000000000111110000000000000000000000011111000000000000000000000001111100000000000000000000000000000000000000000000000000000001
1000111110100000001110111110000011100010000000111010111000001111101000000011101110001110100000000000000000000000000000000000001
1000100000101110001000100000000000100010111000100011000000001000001011100010000010000011100000000000000000000000000000000000001
1000100000100000111110100000000010100010000011111011100000001111101000001111101010000010100000000000000000000000000000000000001
1000100000100000001000100000000010000010000000100010100000001000001000000010001000000100000000000000000000000000000000000000001
1000100000000000111110100000000010111000000011111011111000001011100000001111101011101000000000000000000000000000000000000000001
1000100000000000001000100000000010000000000000100010100000001000000000000010001000001000000000000000000000000000000000000000001
1000100000000000111000100000000011100000000011100011111000001000000000001110001110001000000000000000000000000000000000000000001
1000000000000000000000000000000000000000000000000000000000000000000000000000000000000000000000000000000000000000000000000000001
1000000000000000000000000000000000000000000000000000000000000000000000000000000000000000000000000000000000000000000000000000001
1000000000000000000000000000000000000000000000000000000000000000000000000000000000000000000000000000000000000000000000000000001
1000000000000000000111110000000000000000000000000000000000000000000000000111000000000000000000000000000000000000000000000000001
1000000000000000000100000000000000000000000000000000000000000000000000000001000000000000000000000000000000000000000000000000001
1000000000000000000100000000000000000000000000000000000000000000000000000101000000000000000000000000000000000000000000000000001
1000000111110001000100000001110111110001000000000000000000000111110001000100000001110111110001000001000000000000000000000000001
1000000100000001000100000001000100000001000000000000000000000100000001000101110001000100000001000001000000000000000000000000001
1000000100000111110100000111110100000111110000000000000000000100000111110100000111110100000111110111110000000000000000000000001
1000000100000100010100000001000100000100010000000000000000000100000100010111000001000100000100010100010000000000000000000000001
1000000100000111110000000111110100000111110000000000000000000100000111110000000111110100000111110111110000000000000000000000001
1000000100000001000000000001000100000001000000000000000000000100000001000000000001000100000001000001000000000000000000000000001
1000000100000001000000000111000100000001000000000000000000000100000001000000000111000100000001000001000000000000000000000000001
1000000000000000000000000000000000000000000000000000000000000000000000000000000000000000000000000000000000000000000000000000001
1000000000000000000000000000000000000000000000000000000000000000000000000000000000000000000000000000000000000000000000000000001
1000000000000000000000000000000000000000000000000000000000000000000000000000000000000000000000000000000000000000000000000000001
1000000000000000000111110000000000000000000000000000000000000000000000000001110111000000000000000000000000000000000000000000001
1000000000000000000100000000000000000000000000000000000000000000000000000001000001000000000000000000000000000000000000000000001
1000000000000000000111110000000000000000000000000000000000000000000000000001000101000000000000000000000000000000000000000000001
1000000111110001000100000001110111110001000001000001000000000111110001000001000100000001110001000001110001000111110000000000001
1000000100000001000101110001000100000001000001000001000000000100000001000001000101110001000001000000010001000100000000000000001
1000000100000111110100000111110100000111110111110111110000000100000111110001000100000111110111110000010111110100000000000000001
1000000100000100010100000001000100000100010100010100010000000100000100010111000111000001000100010010000100010100000000000000001
1000000100000111110000000111110100000111110111110111110000000100000111110000000000000111110111110100000111110100000000000000001
1000000100000001000000000001000100000001000001000001000000000100000001000000000000000001000001000100000001000100000000000000001
1000000100000001000000000111000100000001000001000001000000000100000001000000000000000111000001000111000001000100000000000000001
1000000000000000000000000000000000000000000000000000000000000000000000000000000000000000000000000000000000000000000000000000001
1000000000000000000000000000000000000000000000000000000000000000000000000000000000000000000000000000000000000000000000000000001
1000000000000000000000000000000000000000000000000000000000000000000000000000000000000000000000000000000000000000000000000000001
1000000000000000000000000000000000000000000000111000000000000000000000000000000000000000000011111000111011111000000000000000001
1000000000000000000000000000000000000000000000001000000000000000000000000000000000000000000010000000100010000000000000000000001
1000000000000000000000000000000000000000000000101000000000000000000000000000000000000000000010000010101011111000000000000000001
1000111110001110111000111110111110111110001000100000001110111110111000111110000000000010111010000010001010000000111011100000001
1000100000000010001000100000000010100000001000101110001000100000001000100000000000000011000010000010101010111000100000100000001
1000100000000010101000111110101010100000111110100000111110100000101000111110000000000011100010000000100010000011111010100000001
1000100000010000100000100000111010100000100010111000001000100000100000100000000000000010100010000011100010000000100010000000001
1000100000100000101110101110101010100000111110000000111110100000101110101110000000000011111000000000000000000011111010111000001
1000100000100000100000100000100000100000001000000000001000100000100000100000000000000010100000000000000000000000100010000000001
1000100000111000111000100000111110100000001000000000111000100000111000100000000000000011111000000000000000000011100011100000001
1000000000000000000000000000000000000000000000000000000000000000000000000000000000000000000000000000000000000000000000000000001
1000000000000000000000000000000000000000000000000000000000000000000000000000000000000000000000000000000000000000000000000000001
1000000000000000000000000000000000000000000000000000000000000000000000000000000000000000000000000000000000000000000000000000001
1000000000000000000000000000000000001110111000000000000000000000000000000000000000000000000011111000111011100000000000000000001
1000000000000000000000000000000000001000001000000000000000000000000000000000000000000000000010000000100000100000000000000000001
1000000000000000000000000000000000001000101000000000000000000000000000000000000000000000000010000010101010100000000000000000001
1000101110111010111110111110001000001000100000001110001000001110101110111010000000000010111010000010001010000000111011100000001
1000100000111010000010100000001000001000101110001000001000000010100000111010000000000010000010000010101010111000100000100000001
1000111000101010101010100000111110001000100000111110111110000010111000101010000000000011100010000000100010000011111010100000001
1000100000100000111010100000100010111000111000001000100010010000100000100000000000000010000010000011100011100000100010000000001
1000111000111000101010100000111110000000000000111110111110100000111000111000000000000011100000000000000000000011111010111000001
1000100000001000100000100000001000000000000000001000001000100000100000001000000000000010000000000000000000000000100010000000001
1000111000111110111110100000001000000000000000111000001000111000111000111110000000000011100000000000000000000011100011100000001
1000000000000000000000000000000000000000000000000000000000000000000000000000000000000000000000000000000000000000000000000000001
1000000000000000000000000000000000000000000000000000000000000000000000000000000000000000000000000000000000000000000000000000001
1000000000000000000000000000000000000000000000000000000000000000000000000000000000000000000000000000000000000000000000000000001
1000000000000000000000000000000000000000000000000000000000000000000000000000000000000000000000000000000000000000000000000000001
1000000000111110001110111000000000000000000000000000000000000000000000000000000000000000000000000000000000000000000000000000001
1000000000100000001000001000000000000000000000000000000000000000000000000000000000000000000000000000000000000000000000000000001
1000000000100000101010101000000000000000000000000000000000000000000000000000000000000000000000000000000000000000000000000000001
1000111000100000100010100000001110111110001110101110111110101110111000111110111110111010000010101110000000000000000000000000001
1000001000100000101010101110001000100000000010100000100000100000001000100000100000111010010110100000000000000000000000000000001
1000101000100000001000100000111110100000000010111000100000111000101000100000111110101010111010101110000000000000000000000000001
1000100000100000111000111000001000100000010000100000100000100000100000100000100000100000001000001000000000000000000000000000001
1000101110000000000000000000111110100000100000111000100000111000101110100000101110111000111000111000000000000000000000000000001
1000100000000000000000000000001000100000100000100000100000100000100000100000100000001000101000100000000000000000000000000000001
1000111000000000000000000000111000100000111000111000100000111000111000100000100000111110111000100000000000000000000000000000001
1000000000000000000000000000000000000000000000000000000000000000000000000000000000000000000000000000000000000000000000000000001
1000000000000000000000000000000000000000000000000000000000000000000000000000000000000000000000000000000000000000000000000000001
1000000000000000000000000000000000000000000000000000000000000000000000000000000000000000000000000000000000000000000000000000001
1000000000000000000000000000000000000000000000000000000000000000000000000000000000000000000000000000000000000000000000000000001
1000000000000000000000000000000000000000000000000000000000000000000000000000000000000000000000000000000000000000000000000000001
1000000000000000000000000000000000000000000000000000000000000000000000000000000000000000000000000000000000000000000000000000001
1000000000000000000000000000000000000000000000000000000000000000000000000000000000000000000000000000000000000000000000000000001
1000000000000000000000000000000000000000000000000000000000000000000000000000000000000000000000000000000000000000000000000000001
1000000000000000000000000000000000000000000000000000000000000000000000000000000000000000000000000000000000000000000000000000001
1000000000000000000000000000000000000000000000000000000000000000000000000000000000000000000000000000000000000000000000000000001
1000000000000000000000000000000000000000000000000000000000000000000000000000000000000000000000000000000000000000000000000000001
1111111111111111111111111111111111111111111111111111111111111111111111111111111111111111111111111111111111111111111111111111111
