P1
127 127
1111111111111111111111111111111111111111111111111111111111111111111111111111111111111111111111111111111111111111111111111111111
1000000000000000000000000000000000000000000000000000000000000000000000000000000000000000000000000000000000000000000000000000001
1000000000000000000000000000000000000000000000000000000000000111110000000000000000000000000000000000000000000000000000000000001
1000100010010100100010000000000000000000000000000000000000000110000000000000000000000000000000000000000000100010010100100010001
1001010101001001010101000000000000000000000000000000000000000100000000000000000000000000000000000000000001010101001001010101001
1000100010010100100010000000000000000000000000000000000000000010000000000000000000000000000000000000000000100010010100100010001
1000000000000000000000000000000000000000000000000000000000000101110000000000000000000000000000000000000000000000000000000000001
1000000000000000000000000000000000000000000000000000000000000100010000000000000000000000000000000000000000000000000000000000001
1000000000000000000000000000000000000000000000000000000000000100010000000000000000000000000000000000000000000000000000000000001
1000000000000000000000000000000000000000000000000000000000000000000000000000000000000000000000000000000000000000000000000000001
1000000000000000000000000000000000000000000000000000000000000000000000000000000000000000000000000000000000000000000000000000001
1000000000000000000000000000000000000000000000000000000000000000000000000000000000000000000000000000000000000000000000000000001
1000000000000000000000000000000000000000000000000000000000000000000000000000000000000000000000000000000000000000000000000000001
1000000000000000000000000000000000000000000000000000000000000000000000000000000000000000000000000000000000000000000000000000001
1000000010101011100000000011100010111011100000111011111000000000000000000000000111000001110111110000000000000000000000000000001
1000000011111001000000000001000010000000100000100010000000000000000000000000000010000001000100000000000000000000000000000000001
1000000011111000111000000000111010100010100011111011111000000000000000000000000001110111110100000000000000000000000000000000001
1000000000100001000000000001000011110010000000100010000000000000000000000000000010000001000100000000000000000000000000000000001
1000000011111011100000000011100010100010111011111010111000000000000000000000000111000111110100000000000000000000000000000000001
1000000000100010000000000010000010000010000000100010000000000000000000000000000100000001000100000000000000000000000000000000001
1000000000100011100000000011100010111011100011100010000000000000000000000000000111000111000100000000000000000000000000000000001
1000000000000000000000000000000000000000000000000000000000000000000000000000000000000000000000000000000000000000000000000000001
1000000000000000000000000000000000000000000000000000000000000000000000000000000000000000000000000000000000000000000000000000001
1000000010101011100000000011100010111010111000111011111000100000000000000000000111000001110000010000000000000000000000000000001
1000000011111001000000000001000010000010000000100010000000100000000000000000000010000001000010110000000000000000000000000000001
1000000011111000111000000000111010100011100011111010000011111000000000000000000001110111110111010000000000000000000000000000001
1000000000100001000000000001000011110010000000100010000010001000000000000000000010000001000001000000000000000000000000000000001
1000000011111011100000000011100010100011100011111010000011111000000000000000000111000111110111000000000000000000000000000000001
1000000000100010000000000010000010000010000000100010000000100000000000000000000100000001000101000000000000000000000000000000001
1000000000100011100000000011100010111011100011100010000000100000000000000000000111000111000111000000000000000000000000000000001
1000000000000000000000000000000000000000000000000000000000000000000000000000000000000000000000000000000000000000000000000000001
1000000000000000000000000000000000000000000000000000000000000000000000000000000000000000000000000000000000000000000000000000001
1000000010101011100000000011100011111011101000111011111011101000000000000000000111000001110111000001000000000000000000000000001
1000000011111001000000000001000001010011101000100010000011101000000000000000000010000001000001000001000000000000000000000000001
1000000011111000111000000000111010000010101011111010000010101000000000000000000001110111110101000111110000000000000000000000001
1000000000100001000000000001000010000010000000100010000010000000000000000000000010000001000100000100010000000000000000000000001
1000000011111011100000000011100011111011100011111010000011100000000000000000000111000111110101110111110000000000000000000000001
1000000000100010000000000010000010000000100000100010000000100000000000000000000100000001000100000001000000000000000000000000001
1000000000100011100000000011100010000011111011100010000011111000000000000000000111000111000111000001000000000000000000000000001
1000000000000000000000000000000000000000000000000000000000000000000000000000000000000000000000000000000000000000000000000000001
1000000000000000000000000000000000000000000000000000000000000000000000000000000000000000000000000000000000000000000000000000001
1000000010101011100000000011100000111011100000111011101000000000000000000000000111000001110111110001000000000000000000000000001
1000000011111001000000000001000000100000100000100011101000000000000000000000000010000001000100000001000000000000000000000000001
1000000011111000111000000000111010101010100011111010101000000000000000000000000001110111110100000111110000000000000000000000001
1000000000100001000000000001000010001010000000100010000000000000000000000000000010000001000100000100010000000000000000000000001
1000000011111011100000000011100010101010111011111011100000000000000000000000000111000111110100000111110000000000000000000000001
1000000000100010000000000010000000100010000000100000100000000000000000000000000100000001000100000001000000000000000000000000001
1000000000100011100000000011100011100011100011100011111000000000000000000000000111000111000100000001000000000000000000000000001
1000000000000000000000000000000000000000000000000000000000000000000000000000000000000000000000000000000000000000000000000000001
1000000000000000000000000000000000000000000000000000000000000000000000000000000000000000000000000000000000000000000000000000001
1000000000000000000000000000000000000000000000000000000000000000000000000000000000000000000000000000000000000000000000000000001
1000000010101011100000000011100010111011100000111011100000000000000000000000000111000001110111000111110111000000000000000000001
1000000011111001000000000001000010000001000000100011000000000000000000000000000010000001000110000010100010000000000000000000001
1000000011111000111000000000111010100000111011111010000000000000000000000000000001110111110100000100000001110000000000000000001
1000000000100001000000000001000011110001000000100001000000000000000000000000000010000001000010000100000010000000000000000000001
1000000011111011100000000011100010100000111011111011111000000000000000000000000111000111110111110111110001110000000000000000001
1000000000100010000000000010000010000000100000100010000000000000000000000000000100000001000100000100000001000000000000000000001
1000000000100011100000000011100010111011111011100011100000000000000000000000000111000111000111000100000111110000000000000000001
1000000000000000000000000000000000000000000000000000000000000000000000000000000000000000000000000000000000000000000000000000001
1000000000000000000000000000000000000000000000000000000000000000000000000000000000000000000000000000000000000000000000000000001
1000000010101011100000000011100011111011100000111011100000000000000000000000000111000001110111000001110111000000000000000000001
1000000011111001000000000001000000001001000000100011000000000000000000000000000010000001000110000001000010000000000000000000001
1000000011111000111000000000111010101000111011111010000000000000000000000000000001110111110100000101010001110000000000000000001
1000000000100001000000000001000011101001000000100001000000000000000000000000000010000001000010000100010010000000000000000000001
1000000011111011100000000011100010101000111011111011111000000000000000000000000111000111110111110101010001110000000000000000001
1000000000100010000000000010000010000000100000100010000000000000000000000000000100000001000100000001000001000000000000000000001
1000000000100011100000000011100011111011111011100011100000000000000000000000000111000111000111000111000111110000000000000000001
1000000000000000000000000000000000000000000000000000000000000000000000000000000000000000000000000000000000000000000000000000001
1000000000000000000000000000000000000000000000000000000000000000000000000000000000000000000000000000000000000000000000000000001
1000000000000000000000000000000011100000000000000000000000000000000000000000000000000000000000000001000001110111010000000000001
1000000000000000000000000000000000100000000000000000000000000000000000000000000000000000000000000001000000010111010000000000001
1000000000000000000000000000000010100000000000000000000000000000000000000000000000000000000000000111110000010101010000000000001
1000000010101011100000000011100010000000111011100000000000000000000000000000000111000001110111000100010010000100000000000000001
1000000011111001000000000001000010111000100001000000000000000000000000000000000010000001000010000111110100000111000000000000001
1000000011111000111000000000111010000011111000111000000000000000000000000000000001110111110001110001000100000001000000000000001
1000000000100001000000000001000011100000100001000000000000000000000000000000000010000001000010000001000111000111110000000000001
1000000011111011100000000011100000000011111000111000000000000000000000000000000111000111110001110000000000000000000000000000001
1000000000100010000000000010000000000000100000100000000000000000000000000000000100000001000001000000000000000000000000000000001
1000000000100011100000000011100000000011100011111000000000000000000000000000000111000111000111110000000000000000000000000000001
1000000000000000000000000000000000000000000000000000000000000000000000000000000000000000000000000000000000000000000000000000001
1000000000000000000000000000000000000000000000000000000000000000000000000000000000000000000000000000000000000000000000000000001
1000000000000000000000000000000000000000000000000000000000000000000000000000000000000000000000000000000000000000000000000000001
1000000000000000000000000000000000000000000000000000000000000000000000000000000000000001000000000000000000000000000000000000001
1000000000000000000000000000000000000000000000000000000000000000000000000000000000000011100000000000000000100000000000000000001
1000000000000000000000000000000000000000000000000000000000000000000000000000011100000101010000000000000000100000000000000000001
1000000000000000000000000000000000000000000000000000000000000000000000000000001000000001000000000000000000100000000000000000001
1000000000000000000000000000000000000000000000000000000000000000000000000000000111000001000000000000000001000000000000000000001
1000000000000000000000000000000000000000000000000000000000000000000000000000001000000001000000000000000001000000000000000000001
1000000000000000000000000000000000000000000000000000000000000000000000000000000111000001000000000000000001000000000000000000001
1000000000000000000000000000000000000000000000000000000000000000000000000000000100000001000000000000000001000000000000000000001
1000000000000000000000000000000000000000000011111000000000000000000000000000011111000001000000000000000010000000000000000000001
1000000000000000000000000000000000000000000010000000000000000000000000000000000000000001000000000000000010000000000000000000001
1000000000000000000000000000000000000000000011111000000000000000000000000000000000000001000000000000000010000000000000000000001
1000000000000000000000000011100000111011100010000000000000000000000000000000000000000001000000000000000100000000000000000000001
1000000010101011100000000001000000100001000010111000000000000000000000000000000000000001000000000000000100000000000000000000001
1000000011111001000000000000111011111000111010000000000000000000000000000000000000000001000000000000001000000000000000000000001
1000000011111000111000000001000000100001000010000000000000000000000000000000000000000001000000000000001000000000000000000000001
1000000000100001000000000000111011111011100000000000000000000000000000000000000000000001000000000000010000000000000000000000001
1000000011111011100000000000100000100010000000000000000000000000000000000000000000000001000000000000100000000000000000000000001
1000000000100010000000000011111011100011100000000000000000000000000000000000000000000001000000000001000000000000000000000000001
1000000000100011100000000000000000000000000000000000000000000000000000000000000000000001000000000110000000000100000000000000001
1000000000000000000000000000000000000000000000000000000000000000000000000000000000000001000000011000000000000010000000000000001
1000000000000000000000000000000000000000000000000000000000000001111111111111111111111111111111111111111111111111000000000000001
1000000000000000000000000000000000000000000000000000000000000000000000000000001100000001000000000000000000000010000000000000001
1000000000000000000000000000000000000000000000000000000000000000000000000000110000000001000000000000111000000100000000000000001
1000000000000000000000000000000000000000000000000000000000000000000000000001000000000001000000000000010000000000000000000000001
1000000000000000000000000000000000000000000000000000000000000000000000000010000000000001000000000000001110000000000000000000001
1000000000000000000000000000000000000000000000000000000000000000000000000100000000000001000000000000010000000000000000000000001
1000000000000000000000000000000000000000000000000000000000000000000000001000000000000001000000000000111000000000000000000000001
1000000000000000000000000000000000000000000000000000000000000000000000001000000000000001000000000000100000000000000000000000001
1000000000000000000000000000000000000000000000000000000000000000000000010000000000000001000000000000111000000000000000000000001
1000000000000000000000000000000000000000000000000000000000000000000000010000000000000001000000000000000000000000000000000000001
1000000000000000000000000000000000000000000000000000000000000000000000010000000000000001000000000000000000000000000000000000001
1000000000000000000000000000000000000000000000000000000000000000000000100000000000000001000000000000000000000000000000000000001
1000000000000000000000000000000000000000000000000000000000000000000000100000000000000001000000000000000000000000000000000000001
1000000000000000000000000000000000000000000000000000000000000000000000100000000000000001000000000000000000000000000000000000001
1000000000000000000000000000000000000000000000000000000000000000000000100000000000000001000000000000000000000000000000000000001
1000000000000000000000000000000000000000000000000000000000000000000001000000000000000001000000000000000000000000000000000000001
1000000000000000000000000000000000000000000000000000000000000000000001000000000000000001000000000000000000000000000000000000001
1000000000000000000000000000000000000000000000000000000000000000000001000000000000000001000000000000000000000000000000000000001
1000000000000000000000000000000000000000000000000000000000000000000001000000000000000001000000000000000000000000000000000000001
1000000000000000000000000000000000000000000000000000000000000000000001000000000000000001000000000000000000000000000000000000001
1000000000000000000000000000000000000000000000000000000000000000000000000000000000000000000000000000000000000000000000000000001
1000000000000000000000000000000000000000000000000000000000000000000000000000000000000000000000000000000000000000000000000000001
1000000000000000000000000000000000000000000000000000000000000000000000000000000000000000000000000000000000000000000000000000001
1000000000000000000000000000000000000000000000000000000000000000000000000000000000000000000000000000000000000000000000000000001
1111111111111111111111111111111111111111111111111111111111111111111111111111111111111111111111111111111111111111111111111111111
