P1
127 127
1111111111111111111111111111111111111111111111111111111111111111111111111111111111111111111111111111111111111111111111111111111
1000000000000000000000000000000000000000000000000000000000000000000000000000000000000000000000000000000000000000000000000000001
1000000000000000000000000000000000000000000000000000000000000111110000000000000000000000000000000000000000000000000000000000001
1000100010010100100101000000000000000000000000000000000000000110000000000000000000000000000000000000000000100010010100100101001
1001010101001001010010000000000000000000000000000000000000000100000000000000000000000000000000000000000001010101001001010010001
1000100010010100100101000000000000000000000000000000000000000010000000000000000000000000000000000000000000100010010100100101001
1000000000000000000000000000000000000000000000000000000000000101110000000000000000000000000000000000000000000000000000000000001
1000000000000000000000000000000000000000000000000000000000000100010000000000000000000000000000000000000000000000000000000000001
1000000000000000000000000000000000000000000000000000000000000100010000000000000000000000000000000000000000000000000000000000001
1000000000000000000000000000000000000000000000000000000000000000000000000000000000000000000000000000000000000000000000000000001
1000000000000000000000000000000000000000000000000000000000000000000000000000000000000000000000000000000000000000000000000000001
1000000000000000000011111111111000000000000011100000000000000000000000000000000000000000000000000000000000000000000000000000001
1000000000000000011100000000000111000000000001000000000000000000000000000000000000000000000000000000000000000000000000000000001
1000000000000000110000000000000001100000000001000000000000000000000000000000000000000000000000000000000000000000000000000000001
1000000000000011000000000000000000011000000001000000000000000000000000000000000000000000000000000000000000000000000000000000001
1000000000000110000000000000000000001100000001000000000000000000000000000000000000000000000000000000000000000000000000000000001
1000000000001100000000000000000000000110000001000000000000000000000000000000000000000000000000000000000000000000000000000000001
1000000000011000000000000000000000001111000001000000000000000000000000011111000000000000000000000000000000000000000000000000001
1000000000010000000111110000000000011001000001000000000000000000000000100000100001110111000111110001110111110111110000000000001
1000000000100000000011010000000000110000100001000000000000000000000001000000010001000001000000010010100000010011010000000000001
1000000001100000000001110000000001100000110001000000000000000000000001000000010111110101000101010111110101010001110000000000001
1000000001000000000011000000000011000000010001000000000000000000000001000000010001000100000111010100000111010011000000000000001
1000000001000000000101110000000110000000010001001110001111101111100001000000010111110101110101010100010101010101110000000000001
1000000010000000000100010000001100000000001001000010000000100110100001000000010001000100000100000100010100000100010000000000001
1000000010000000000111010000011000000000001001001010001010100011100000100000100111000111000111110100010111110111010000000000001
1000000010000000000000000000110000000000001001001000001110100110000000011111000000000000000000000000000000000000000000000000001
1000000010000000000000000001100000000000001001001011101010101011100000000000000000000000000000000000000000000000000000000000001
1000000010000000000000000011000000000000001001001000001000001000100000000000000000000000000000000000000000000000000000000000001
1000000010000000000000000110000000000000001001001110001111101110100000000000000000000000000000000000000000000000000000000000001
1000000010000000000000000000000000000000001001000000000000000000000000000000000000000000000000000000000111000000000000000000001
1000000010000000000000000000000000000000001001000000000000000000000000000000000000000000000000000000000001000000000000000000001
1000000010000000000000000000000000000000001001000000000000000000000000011111000000000000000000000000000101000000000000000000001
1000000010000000000000000000000000000000001001000000000000000000000000101010100001110001110111110111110100000000000000000000001
1000000010000000000000000000000000000000001001000000000000000000000001010101010001000010100000010011010101110000000000000000001
1000000001000000000000000000000000000000010001000000000000000000000001101010110111110111110101010001110100000000000000000000001
1000000001000000000000000000000000000000010001000000000000000000000001010101010001000100000111010011000111000000000000000000001
1000000001100000000000000000000000000000110001000000000000000000000001101010110111110100010101010101110000000000000000000000001
1000000000100000000000000000000000000000100001000000000000000000000001010101010001000100010100000100010000000000000000000000001
1000000000010000000000000000000000000001000001000000000000000000000000101010100111000100010111110111010000000000000000000000001
1000000000011000000000000000000000000011000001000000000000000000000000011111000000000000000000000000000000000000000000000000001
1000000000001100000000000000000000000110000001000000000000000000000000000000000000000000000000000000000000000000000000000000001
1000000000000110000000000000000000001100000001000000000000000000000000000000000000000000000000000000000000000000000000000000001
1000000000000011000000000000000000011000000001000000000000000000000000000000000000000000000000000000000000000000000000000000001
1000000000000000110000000000000001100000000001000000000000000000000000000000000000000000000000000000000000000000000000000000001
1000000000000000011100000000000111000000000011100000000000000000000000000000000000000000000000000000000000000000000000000000001
1000000000000000000011111111111000000000000000000000000000000000000000000000000000000000000000000000000000000000000000000000001
1000000000000000000000000000000000000000000000000000000000000000000000000000000000000000000000000000000000000000000000000000001
1000000000000000000000000000000000000000000000000000000000000000000000000000000000000000000000000000000000000000000000000000001
1000011100011101111100011101111101011101111101110100000101110000000101110101111101110101011100000101110100000101111101110000001
1000101000010001000000000101000001000001000001110100100100010000101101110101000001110101100000100100011100100101000000010000001
1001111101111101111100000101000001110001000001010101010101010001110101010101111101010101110001010100010101010101111101010000001
1001000000010001000000100001000001000001000001000001010101000000010001000001000001000001010001010100100001010101000001000000001
1001000101111101011101000001000001110001000001110001111101011101110001110001011101110001111101111101000001111101011101011100001
1001000100010001000001000001000001000001000000010000010001000001010000010001000000010001010000010001000000010001000001000000001
1001000101110001000001110001000001110001000001111101110001110001110001111101000001111101111101110001000001110001000001110000001
1000000000000000000000000000000000000000000000000000000000000000000000000000000000000000000000000000000000000000000000000000001
1000000000000000000000000000000000000000000000000000000000000000000000000000000000000000000000000000000000000000000000000000001
1000000000000000000000000001011101011100000101110100000100000101011100000101111101011101110001111101110000000100010001011100001
1000000000000000000000000001000001000000101101110100101100100101100000101101000001000000010001000000010000100100010001000000001
1000000000000000000000000001011101110001110101010101110101010101110001110101000001110001010001000001010001010101111101110000001
1000000000000000000000000000010001000000010001000000010001010101010000010001000001000001000001000001000001010101000101000000001
1000000000000000000000000001110001110001110001110001110001111101111101110001000001110001011101000001011101111101111101110000001
1000000000000000000000000001000001000001010000010001010000010001010001010001000001000001000001000001000000010000010001000000001
1000000000000000000000000001000001110001110001111101110001110001111101110001000001110001110001000001110001110000010001110000001
1000000000000000000000000000000000000000000000000000000000000000000000000000000000000000000000000000000000000000000000000000001
1000000000000000000000000000000000000000000000000000000000000000000000000000000000000000000000000000000000000000000000000000001
1000000000000000000000000000000000000000000000000000000000000000000000000000000000000000000000000000000000000000000000000000001
1000000000000000000000000000000000000000010000000000000000000000000000000000000000000000000000000000000000000000000000000000001
1000000000000000000000000000000000000000101000000000000000000000000000000000000000000000000000000000000000000000000000000000001
1000000000000000000000000000000000000001000100000000000000000000000000000000000000000000000000000000000000000000000000000000001
1000000000000000000000000000000000000010000010000000000000000000000000000000000000000000000000000000000000000000000000000000001
1000000000000000000000000000000000000100000001000000000000000000000000000000000000000000000000000000000000000000000000000000001
1000000000000000000000000000000000001000000000100000000000000000000000000000000000000000000000000000000000000000000000000000001
1000000000000000000000000000000000010000000000010000000000000000000000000000000000000000000000000000000000000000000000000000001
1000000000000000000000000000000000100000000000001000000000000000000000000000000000000000000000000000000000000000000000000000001
1000000000000000000000000000000001000000000000000100000000000000000000000000000000000000000000000000000000000000000000000000001
1000000000000000000000000000000010000000000000000010000000000000000000000000000000000000000000000000000000000000000000000000001
1000000000000000000000000000000100000000000000000001000000000000000000000000000000000000000000000000000000000000000000000000001
1000000000000000000000000000001000000000000000000000100000000000000000000000000000000000000000000000000000000000000000000000001
1000000000000000000000000000010000000000000000000000010000000000000000000000000000000000000000000000000000000000000000000000001
1000000000000000000000000000100000000000000000000000001000000000000000000000000000000000000000000000000000000000000000000000001
1000000000000000000000000001000000000000000000000000000100000000000000000000000000000000000000000000000000000000000000000000001
1000000000000000000000000010000000000000000000000000000010000000000000000000000000000000000000000000000000000000000000000000001
1000000000000000000000000100000000000000000000000000000001000000000000000000000000000000000000000000000000000000000000000000001
1000000000000000000000001000000000000000000000000000000000100000000000000000000000000000000000000000000000000000000000000000001
1000011111111111111111110000000000000000000000000000000000010000000000000000000000000000000000000000000000000000000000000000001
1000010000000000000000011000000000000000000000000000000000100000000000000000000000000000000000000000000000000000000000000000001
1000010000000000000000010100000000111000000000000000000001000000000000000000000000000000000000000000000000000000000000000000001
1000010000000000000000010010000000110000000000000000000010000000000000000000000111000000000000000111000000000000000111000000001
1000010000000000000000010001000000100000000000000000000100000000000000000000000001000000000000000001000000000000000001000000001
1000010000000000000000010000100000010000000000000000001000000000000000000000000101000000000000000101000000000000000101000000001
1000010000000000000000010000010000111110000000000000010000000000000000000111000100000001110111000100000101110001110100000000001
1000010000000001110000010000001000100000000000000000100000000000000000000110000101110001000010000101110100000010000101110000001
1000010000000000100000010000000100111000000000000001000000000000000000000100000100000111110001110100000101000111000100000000001
1000010000000000011100010000000010000000000000000010000000000000000000000010000111000001000010000111000111100010000111000000001
1000010000000000100000010000000001000000000000000100000000000000000000000111110000000111110111000000000101000111110000000000001
1000010000000001110000010000000000100000000000001000000000000000000000000100000000000001000100000000000100000100000000000000001
1000010000000001000000010000000000010000000000010000000000000000000000000111000000000111000111000000000101110101110000000000001
1000010000000001110000010000000000001000000000100000000000000000000000000000000000000000000000000000000000000000000000000000001
1000010000000000000000010000000000000100000001000000000000000000000000000000000000000000000000000000000000000000000000000000001
1000010000000000000000010000000000000010000010000000000000000000000000000000000000000000000000000000000000000000000000000000001
1000010000000000000000010000000000000001000100000000000000000000000000000000000000000000000000000000000000000000000000000000001
1000010000000000000000010000000000000000101000000000111000111110111000001110111000111110111000101110001110111110001110000000001
1000011111111111111111111111111111111111110000000000110000000010110000001000010000000010010000100000010000000010010000000000001
1000000000000000000000010000000000000000010000000000100000101010100000111110001110101010001110101000111000101010111000000000001
1000000000000000000000010000000000000000010000000000010000111010010000001000010000111010010000111100010000111010010000000000001
1000000000000000000000010000000000000000010000000000111110101010111110111110111000101010111000101000111110101010111110000000001
1000000000000000000000010000000000000000010000000000100000100000100000001000100000100000100000100000100000100000100000000000001
1000000000000000000000010000000000000000010000000000111000111110111000111000111000111110111000101110101110111110101110000000001
1000000000000000000000010000000000000000010000000000000000000000000000000000000000000000000000000000000000000000000000000000001
1000000000000000000000010000000000000000010000000000000000000000000000000000000000000000000000000000000000000000000000000000001
1000000000000000000000010000000011100000010000000000000000000000000000000000000000000000000000000000000000000000000000000000001
1000000000000000000000010000000100000000010000000000000000000000000000000000000000000000000000000000000000000000000000000000001
1000000000000000000000010000001110000000010000000000000000000000000000000000000000000000000000000000000000000000000000000000001
1000000000000000000000010000000100000000010000000000000000000000000000000000000000000000000000000000000000000000000000000000001
1000000000000000000000010000001111100000010000000000000000000000000000000000000000000000000000000000000000000000000000000000001
1000000000000000000000010000001000000000010000000000000000000000000000000000000000000000000000000000000000000000000000000000001
1000000000000000000000010000001011100000010000000000000000000000000000000000000000000000000000000000000000000000000000000000001
1000000000000000000000010000000000000000010000000000000000000000000000000000000000000000000000000000000000000000000000000000001
1000000000000000000000010000000000000000010000000000000000000000000000000000000000000000000000000000000000000000000000000000001
1000000000000000000000010000000000000000010000000000000000000000000000000000000000000000000000000000000000000000000000000000001
1000000000000000000000010000000000000000010000000000000000000000000000000000000000000000000000000000000000000000000000000000001
1000000000000000000000011111111111111111110000000000000000000000000000000000000000000000000000000000000000000000000000000000001
1000000000000000000000000000000000000000000000000000000000000000000000000000000000000000000000000000000000000000000000000000001
1000000000000000000000000000000000000000000000000000000000000000000000000000000000000000000000000000000000000000000000000000001
1000000000000000000000000000000000000000000000000000000000000000000000000000000000000000000000000000000000000000000000000000001
1111111111111111111111111111111111111111111111111111111111111111111111111111111111111111111111111111111111111111111111111111111
