P1
127 127
1111111111111111111111111111111111111111111111111111111111111111111111111111111111111111111111111111111111111111111111111111111
1000000000000000000000000000000000000000000000000000000000000000000000000000000000000000000000000000000000000000000000000000001
1000000000000000000000000000000000000000000000000000000000000101000000000000000000000000000000000000000000000000000000000000001
1000100010010101010010000000000000000000000000000000000000000111000000000000000000000000000000000000000000100010010101010010001
1001010101001000100101000000000000000000000000000000000000000101110000000000000000000000000000000000000001010101001000100101001
1000100010010101010010000000000000000000000000000000000000000110000000000000000000000000000000000000000000100010010101010010001
1000000000000000000000000000000000000000000000000000000000000101110000000000000000000000000000000000000000000000000000000000001
1000000000000000000000000000000000000000000000000000000000000000010000000000000000000000000000000000000000000000000000000000001
1000000000000000000000000000000000000000000000000000000000000111010000000000000000000000000000000000000000000000000000000000001
1000000000000000000000000000000000000000000000000000000000000000000000000000000000000000000000000000000000000000000000000000001
1000000000000000000000000000000000000000000000000000000000000000000000000000000000000000000000000000000000000000000000000000001
1000000000000000000000000000000000000000000000000000000000000000000000000000000000000000000000000000000000000000000000000000001
1000000000000000000000000000000000000000000000000000000000000000000000000000000000000000000000000000000000000000000000000000001
1000000000000000000000000000000000000000111110000000001110111110101110111110000010111110111110000000000000000000000000000000001
1000000000000000000000000000000000000000010100000000001000100000110000100000010110000010010100000000000000000000000000000000001
1000000000000000000000000000000000000000100010000000111110100000111000111110111010101010100010000000000000000000000000000000001
1000000000000000000000001111111000000000100010100000001000100000101000100000001000111010100010111110000000000000000000000000001
1000000000000000000000111000001110000000111110110000111110100000111110101110111000101010111110010000000000000000000000000000001
1000000000000000000001100000000011000000001000101000001000100000101000100000101000100000001000111000000000000000000000000000001
1000000000000000000011000000000001100000111110001000111000100000111110100000111000111110111110100000000000000000000000000000001
1000000000000000000010000000000000100000000000111110000000000000000000000000000000000000000000101000000000000000000000000000001
1000000000000000000110000000000000110000000000001000000000000000000000000000000000000000000000001000000000000000000000000000001
1000010100000111000100000100000000010000000000111000000000000000000000000000000000000000000000111110000000000000000000000000001
1000011100000100000100000110000000010000000000000000000000000000000000000000000000000000000000000000000000000000000000000000001
1000010101011111000100000101000000010000000000000000000000000000000000000000000000000000000000000000000000000000000000000000001
1000000001000100000100000001000000010000001110000000001110001110001110000000000000000000000000000000000000000000000000000000001
1000011101011111000100000111110000010000010100000000001000001000010100000000000000000000000000000000000000000000000000000000001
1000000101000100000100000001000000010000111000000000111110001000111000000000000000000000000000000000000000000000000000000000001
1000011111011100000100000111000000010000001000100000001000001000001000111110000000000000000000000000000000000000000000000000001
1000000000000000000110000000000000110000111000110000111110001000111000010000000000000000000000000000000000000000000000000000001
1000000000000000000010000000000000000000100000101000001000001000100000111000000000000000000000000000000000000000000000000000001
1000000000000000000011000000001111100000100000001000111000111000100000100000000000000000000000000000000000000000000000000000001
1000000000000000000001100000000100000000000000111110000000000000000000101000000000000000000000000000000000000000000000000000001
1000000000000000000000111000001110000000000000001000000000000000000000001000000000000000000000000000000000000000000000000000001
1000000000000000000000001111101000000000000000111000000000000000000000111110000000000000000000000000000000000000000000000000001
1000000000000000000000000000001010000000000000000000000000000000000000000000000000000000000000000000000000000000000000000000001
1000000000000000000000000000000010000000000000000000000000000000000000000000000000000000000000000000000000000000000000000000001
1000000000000000000000000000001111100000000000000000000000000000000000000000000000000000000000000000000000000000000000000000001
1000000000000000000000000000000000000000000000000000000000000000000000000000000000000000000000000000000000000000000000000000001
1000000000000000000000000000000000000000000000000000000000000000000000000000000000000000000000000000000000000000000000000000001
1000000000000000000000000000000000000111110000111110000000001110111110001110001000001000111110111110101110111110111110000000001
1000000000000000000000000000000000000010000000010100000000001000100000000010001000001000100000100000110000000010010100000000001
1000000000000000000000001111111111100111000000100010000000111110100000000010111110111110100000111110111000101010100010000000001
1000000000000000000000011000000000110100000000100010101110001000100000010000100010100010100000100000101000111010100010100000001
1000000000000000000001100000000000000101000000111110111000111110100000100000111110111110100000101110111110101010111110110000001
1000000000000000000011000000000000000001000000001000101000001000100000100000001000001000100000100000101000100000001000101000001
1000000000000000000110000000000000000111110000111110100000111000100000111000001000001000100000100000111110111110111110001000001
1000000000000000001100000000000000000000000000000000101110000000000000000000000000000000000000000000000000000000000000111110001
1000000000000000001000001000001011100000100000000000101000000000000000000000000000000000000000000000000000000000000000001000001
1000001010001110011000001100001110000000110000000000101000000000000000000000000000000000000000000000000000000000000000111000001
1000011110001000010000001010001010000000010000000000000000000000000000000000000000000000000000000000000000000000000000000000001
1000001110111110110000000010001000000000011000000000000000000000000000000000000000000000000000000000000000000000000000000000001
1000011000001000100000001111101011100000001000001110000000001110001000000000000000000000000000000000000000000000000000000000001
1000111010111110100000000010001010000000001000010100000000001000001000000000000000000000000000000000000000000000000000000000001
1000100010001000100000001110001010000000001000111000000000111110111110000000000000000000000000000000000000000000000000000000001
1000100010111000100000000000000000000000001000001000101110001000100010000000000000000000000000000000000000000000000000000000001
1000000000000000100000001011101000000000001000111000111000111110111110000000000000000000000000000000000000000000000000000000001
1000000000000000100000001110001100000000001000100000101000001000001000000000000000000000000000000000000000000000000000000000001
1000000000000000100000001010001010000000001000100000100000111000001000000000000000000000000000000000000000000000000000000000001
1000000000000000100000001000000010000000001000000000101110000000000000000000000000000000000000000000000000000000000000000000001
1000000000000000100000001011101111100000001000000000101000000000000000000000000000000000000000000000000000000000000000000000001
1000000000000000110000001010000010000000011000000000101000000000000000000000000000000000000000000000000000000000000000000000001
1000000000000000000000001010001110000000010000000000000000000000000000000000000000000000000000000000000000000000000000000000001
1000000000000000000000000000000000000000110000000000000000000000000000000000000000000000000000000000000000000000000000000000001
1000000000000001111100000000000000000000100000000000000000000000000000000000000000000000000000000000000000000000000000000000001
1000000000000000100000000000000000000001100000000000000000000000000000000000000000000000000000000000000000000000000000000000001
1000000000000001110000000000000000000011000000000000000000000000000000000000000000000000000000000000000000000000000000000000001
1000000000000001000001000000000000000110000000000000000000000000000000000000000000000000000000000000000000000000000000000000001
1000000000000001010001100000000000001100000000000000000000000000000000000000000000000000000000000000000000000000000000000000001
1000000000000000010000011000000000110000000000000000000000000000000000000000000000000000000000000000000000000000000000000000001
1000000000000001111100001111111111100000000000000000000000000000000000000000000000000000000000000000000000000000000000000000001
1000000000000000000000000000000000000000000000000000000000000000000000000000000000000000000000000000000000000000000000000000001
1000000000000000000000000000000000000000000000000000000000000000000000000000000000000000000000000000000000000000000000000000001
1000000000000000000000000000000000000000000000000000000000000000000000000000000000000000000000000000000000000000000000000000001
1000000000000000000000000000000000000000000000000000000000000000000000000000000000000000000000000000000000000000000000000000001
1000000000000000000000000000000000000000000000000000000000000000000000000000000000000000000000000000000000000000000000000000001
1000000000000000000000000000000000000000000000000000000000000000000000000000000000000000000000000000000000000000000000000000001
1000000000000000000000000000000000000000000000000000000000000000000000000000000000000000000000000000000000000000000000000000001
1000001010000011101111101000001111100010001011100000000000111110001110111110111110100000111110111110101110101110000000000000001
1000001110000010001000001100001000000010001110000000000000011000001000100000100000110000100000100000100000111000000000000000001
1000001010101111101000001010001011101111101010000000000000111010111110100000111110101000101110100000111000101000000000000000001
1000000000100010001000000010001000001000101000000000000000101010001000100000100000001000100000100000100000100000000000000000001
1000001110101111101000001111101000001111101011100000000000111010111110100000101110111110100000100000111000101110000000000000001
1000000010100010001000000010001000000010001010000000000000101000001000100000100000001000100000100000100000101000000000000000001
1000001111101110001000001110001111100010001010000000000000101110111000100000100000111000111110100000111000101000000000000000001
1000000000000000000000000000000000000000000000000000000000000000000000000000000000000000000000000000000000000000000000000000001
1000000000000000000000000000000000000000000000000000000000000000000000000000000000000000000000000000000000000000000000000000001
1000000010100011101110001000001111101110001011100000000000101110001110111110101110100000111110111110101110101110000000000000001
1000000111100010000010001100001000000010001110000000000000110100001000100000100000110000100000100000100000111000000000000000001
1000000011101111101010001010001011101010001010000000000000100010111110100000111000101000101110100000111000101000000000000000001
1000000110000010001000000010001000001000001000000000000000010010001000100000100000001000100000100000100000100000000000000000001
1000001110101111101011101111101000001011101011100000000000001010111110100000111000111110100000100000111000101110000000000000001
1000001000100010001000000010001000001000001010000000000000001010001000100000100000001000100000100000100000101000000000000000001
1000001000101110001110001110001111101110001010000000000000111110111000100000111000111000111110100000111000101000000000000000001
1000000000000000000000000000000000000000000000000000000000000000000000000000000000000000000000000000000000000000000000000000001
1000000000000000000000000000000000000000000000000000000000000000000000000000000000000000000000000000000000000000000000000000001
1000000010100011100000101000001111100000101011100000000000100010001110111000000010100000111110111110001000101110000000000000001
1000000111100010000101101100001000000101101110000000000000110110001000001000010110110000100000100000001000111000000000000000001
1000001110101111101110101010001011101110101010000000000000111010111110101000111010101000101110111110111110101000000000000000001
1000000100000010000010000010001000000010001000000000000000111000001000100000001000001000100000100000100010100000000000000000001
1000000000101111101110001111101000001110001011100000000000101110111110101110111000111110100000101110111110101110000000000000001
1000000000100010001010000010001000001010001010000000000000101010001000100000101000001000100000100000001000101000000000000000001
1000000000101110001110001110001111101110001010000000000000101110111000111000111000111000111110100000001000101000000000000000001
1000000000000000000000000000000000000000000000000000000000000000000000000000000000000000000000000000000000000000000000000000001
1000000000000000000000000000000000000000000000000000000000000000000000000000000000000000000000000000000000000000000000000000001
1000001010100011101110101000001111101110101011100000000000111110001110111110111110100000111110111110111000101110000000000000001
1000001111100010000011101100001000000011101110000000000000111100001000100000100000110000100000100000001000111000000000000000001
1000001010101111100010101010001011100010101010000000000000111110111110100000100000101000101110100000101000101000000000000000001
1000000110000010000100000010001000000100001000000000000000010010001000100000100000001000100000100000100000100000000000000000001
1000001110101111101000001111101000001000001011100000000000001110111110100000100000111110100000100000101110101110000000000000001
1000000010100010001000000010001000001000001010000000000000001010001000100000100000001000100000100000100000101000000000000000001
1000001110101110001000001110001111101000001010000000000000001010111000100000100000111000111110100000111000101000000000000000001
1000000000000000000000000000000000000000000000000000000000000000000000000000000000000000000000000000000000000000000000000000001
1000000000000000000000000000000000000000000000000000000000000000000000000000000000000000000000000000000000000000000000000000001
1000001110000011101011101000001111101011101011100000000000100010001110111110111010100000111110111110101110101110000000000000001
1000000111000010001100001100001000001100001110000000000000110110001000100000001110110000100000100000110000111000000000000000001
1000000010101111101110001010001011101110001010000000000000111110111110100000001010101000101110100000111000101000000000000000001
1000000110100010001010000010001000001010001000000000000000011000001000100000010000001000100000100000101000100000000000000000001
1000001111101111101111101111101000001111101011100000000000111010111110100000100000111110100000100000111110101110000000000000001
1000000000100010001010000010001000001010001010000000000000000010001000100000100000001000100000100000101000101000000000000000001
1000001111101110001111101110001111101111101010000000000000001110111000100000100000111000111110100000111110101000000000000000001
1000000000000000000000000000000000000000000000000000000000000000000000000000000000000000000000000000000000000000000000000000001
1000000000000000000000000000000000000000000000000000000000000000000000000000000000000000000000000000000000000000000000000000001
1000000000000000000000000000000000000000000000000000000000000000000000000000000000000000000000000000000000000000000000000000001
1000000000000000000000000000000000000000000000000000000000000000000000000000000000000000000000000000000000000000000000000000001
1000000000000000000000000000000000000000000000000000000000000000000000000000000000000000000000000000000000000000000000000000001
1111111111111111111111111111111111111111111111111111111111111111111111111111111111111111111111111111111111111111111111111111111
