P1
127 127
1111111111111111111111111111111111111111111111111111111111111111111111111111111111111111111111111111111111111111111111111111111
1000000000000000000000000000000000000000000000000000000000000000000000000000000000000000000000000000000000000000000000000000001
1000000000000000000000000000000000000000000000000000000000000101000000000000000000000000000000000000000000000000000000000000001
1000100010010101010101000000000000000000000000000000000000000111000000000000000000000000000000000000000000100010010101010101001
1001010101001000100010000000000000000000000000000000000000000101110000000000000000000000000000000000000001010101001000100010001
1000100010010101010101000000000000000000000000000000000000000110000000000000000000000000000000000000000000100010010101010101001
1000000000000000000000000000000000000000000000000000000000000101110000000000000000000000000000000000000000000000000000000000001
1000000000000000000000000000000000000000000000000000000000000000010000000000000000000000000000000000000000000000000000000000001
1000000000000000000000000000000000000000000000000000000000000111010000000000000000000000000000000000000000000000000000000000001
1000000000000000000000000000000000000000000000000000000000000000000000000000000000000000000000000000000000000000000000000000001
1000000000000000000000000000000000000000000000000000000000000000000000000000000000000000000000000000000000000000000000000000001
1000000000000000000000000000000000000000000000000000000000000000000000000000000000000000000000000000000000000000000000000000001
1000000000000000000000000000000000000000000000000000000000000000000000000000000000000000000000000000000000000000000000000000001
1000101000001110111110000010100000111110111110000010101110000010000000111010111011101010000011111000001000100010111000000000001
1000111100001000100000010110110000100000100000010110111000000011010000100010000000111011000010000001011000100011100000000000001
1000111010111110100000111010101000101110100000111010101000000010111011111011100000101010100010111011101011111010100000000000001
1000010010001000100000001000001000100000100000001000100000000001001000100010000001000000100010000000100010001010000000000000001
1000111110111110100000111000111110100000100000111000101110000010111011111011100010000011111010000011100011111010111000000000001
1000101010001000100000101000001000100000100000101000101000000010101000100010000010000000100010000010100000100010100000000000001
1000101010111000100000111000111000111110100000111000101000000011111011100011100010000011100011111011100000100010100000000000001
1000000000000000000000000000000000000000000000000000000000000000000000000000000000000000000000000000000000000000000000000000001
1000000000000000000000000000000000000000000000000000000000000000000000000000000000000000000000000000000000000000000000000000001
1000111010001110111110001000100000111110111110111010101110000000001000111011101000001010000011111011111011111011101010111000001
1000011110001000100000001000110000100000100000111010111000000001011000100000111001001011000010000010000010000000111011100000001
1000001110111110111110111110101000101110111110101010101000000011101011111000101010101010100010111010000010000000101010100000001
1000010010001000100000100010001000100000100000100000100000000011100000100001000010101000100010000010000010000001000010000000001
1000001110111110101110111110111110100000101110111000101110000011111011111010000011111011111010000010000010000010000010111000001
1000001010001000100000001000001000100000100000001000101000000000001000100010000000100000100010000010000010000010000010100000001
1000111010111000100000001000111000111110100000111110101000000011101011100010000011100011100011111010000010000010000010100000001
1000000000000000000000000000000000000000000000000000000000000000000000000000000000000000000000000000000000000000000000000000001
1000000000000000000000000000000000000000000000000000000000000000000000000000000000000000000000000000000000000000000000000000001
1000100010001110111110101110100000111110111000111000101110000011101000111000001011100010000011111011111011111000001010111000001
1000110010001000100000110000110000100000001000001000111000000001011000100001001000100011000010000010000010000001011011100000001
1000111110111110100000111000101000101110101000101000101000000010101011111010101010100010100010111010000010000011101010100000001
1000000010001000100000101000001000100000100000100000100000000011101000100010101010000000100010000010000010000000100010000000001
1000100010111110100000111110111110100000101110101110101110000010101011111011111010111011111010000010000010000011100010111000001
1000100000001000100000101000001000100000100000100000101000000000001000100000100010000000100010000010000010000010100010100000001
1000101110111000100000111110111000111110111000111000101000000000001011100011100011100011100011111010000010000011100010100000001
1000000000000000000000000000000000000000000000000000000000000000000000000000000000000000000000000000000000000000000000000000001
1000000000000000000000000000000000000000000000000000000000000000000000000000000000000000000000000000000000000000000000000000001
1000000000000000000000000000000001010001110111110111110111000100000111110111110000010111010101110000000000000000000000000000001
1000000000000000000000000000000011110001000100000100000001000110000100000100000010110111010111000000000000000000000000000000001
1000000000000000000000000000000111010111110100000100000101000101000101110100000111010101010101000000000000000000000000000000001
1000000000000000000000000000000011010001000100000100000100000001000100000100000001000100000100000000000000000000000000000000001
1000000000000000000000000000000001110111110100000100000101110111110100000100000111000111000101110000000000000000000000000000001
1000000000000000000000000000000001010001000100000100000100000001000100000100000101000001000101000000000000000000000000000000001
1000000000000000000000000000000111110111000100000100000111000111000111110100000111000111110101000000000000000000000000000000001
1000000000000000000000000000000000000000000000000000000000000000000000000000000000000000000000000000000000000000000000000000001
1000000000000000000000000000000000000000000000000000000000000000000000000000000000000000000000000000000000000000000000000000001
1000000000000000000000000000000000000000000000000000000000000000000000000000000000000000000000000000000000000000000000000000001
1000000000000000000000000000000000000000000000000000000000000000000000000000000000000000000000000000000000000000000000000000001
1000000000000000000000000000000000000000000000000000000000000000000000000000000000000000000000000000000000000000000000000000001
1000011111000000000111000001011111011111000000010111000001011111011111000000010111011101000000000000000000000000000000000000001
1000001010000000000100001011000001001010000000010000001011000001001010000000010000010011000000000000000000000000000000000000001
1000010001000000011111011101010101010001000000010100011101010101010001000000010100010001000000000000000000000000000000000000001
1000010001000101000100000100011101010001010000011110000100011101010001010111011110011000000000000000000000000000000000000000001
1000011111001111011111011100010101011111011000010100011100010101011111011100010100010000000000000000000000000000000000000000001
1000000100011101000100010100010000000100010100010000010100010000000100010100010000010000000000000000000000000000000000000000001
1000011111001000011100011100011111011111000100010111011100011111011111010000010111011100000000000000000000000000000000000000001
1000000000000001000000000000000000000000011111000000000000000000000000010111000000000000000000000000000000000000000000000000001
1000000000000001000000000000000000000000000100000000000000000000000000010100000000000000000000000000000000000000000000000000001
1000000000000001000000000000000000000000011100000000000000000000000000010100000000000000000000000000000000000000000000000000001
1000000000000000000000000000000000000000000000000000000000000000000000000000000000000000000000000000000000000000000000000000001
1000000000000000000000000000000000000000000000000000000000000000000000000000000000000000000000000000000000000000000000000000001
1000000000000000000000000000000000000000000000000000000000000000000000000000000000000000011111000001000000000000000000000000001
1000000000000000000000000000000000000000000000000000000000000000000000000000000000000000010000001001000000000000000000000000001
1000000000000000000000000000000000000000000000000000000000000000000000000000000000000000010000010101000000000000000000000000001
1000011111011100000111000111000001000100011100011100011111011111011101011111011111000100010000010101011111000000000000000000001
1000010000000100001101000100001011000100000100000100010000010000000111000001010000000100010000011111001010000000000000000000001
1000010000010100010111011111011101011111010100010100010000011111000101010101010000011111010000000100010001000000000000000000001
1000010000010000010001000100000100010001010000010000010000010000001000011101010000010001010000011100010001000101000000000000001
1000010000010111010101011111011100011111010111010111010000010111010000010101010000011111000000000000011111001111000000000000001
1000010000010000000101000100010100000100010000010000010000010000010000010000010000000100000000000000000100011101000000000000001
1000010000011100000101011100011100000100011100011100010000010000010000011111010000000100000000000000011111001000000000000000001
1000000000000000000000000000000000000000000000000000000000000000000000000000000000000000000000000000000000000001000000000000001
1000000000000000000000000000000000000000000000000000000000000000000000000000000000000000000000000000000000000001000000000000001
1000000000000000000000000000000000000000000000000000000000000000000000000000000000000000000000000000000000000001000000000000001
1000000000000000000000000000000000000000000000000000000000000000000000000000000000000000000000000000000000000000000000000000001
1000000000000000000000000000000000000000000000000000000000000000000000000000000000000000000000000000000000000000000000000000001
1000000000000000000000000000000000000000000000000000000000000000000000000000000000000000000111011111010111000000000000000000001
1000000000000000000000000000000000000000000000000000000000000000000000000000000000000000000100010000010000000000000000000000001
1000000000000000000000000000000000000000000000000000000000000000000000000000000000000000000100011111011100000000000000000000001
1000011111000000000111011111000001011101011100000001011100011111011101011111011111000100000100010000010000000111000000000000001
1000001010000000000100010000001011000111000100001011000100010000000111000001010000000100000100010111011100001101000000000000001
1000010001000000011111010000011101000101010100011101010100011111000101010101010000011111000100010000010000010111000000000000001
1000010001010000000100010000000100001000010000000100010000010000001000011101010000010001011100010000011100010001000000000000001
1000011111011000011111010000011100010000010111011100010111010111010000010101010000011111000000000000000000010101000000000000001
1000000100010100000100010000010100010000010000010100010000010000010000010000010000000100000000000000000000000101000000000000001
1000011111000100011100010000011100010000011100011100011100010000010000011111010000000100000000000000000000000101000000000000001
1000000000011111000000000000000000000000000000000000000000000000000000000000000000000000000000000000000000000000000000000000001
1000000000000100000000000000000000000000000000000000000000000000000000000000000000000000000000000000000000000000000000000000001
1000000000011100000000000000000000000000000000000000000000000000000000000000000000000000000000000000000000000000000000000000001
1000000000000000000000000000000000000000000000000000000000000000000000000000000000000000000000000000000000000000000000000000001
1000000000000000000000000000000000000000000000000000000000000000000000000000000000000000000000000000000000000000000000000000001
1000000000000000000000000000000000000000000000000000000000000000000000000000000000000000000111011111010111000000000000000000001
1000000000000000000000000000000000000000000000000000000000000000000000000000000000000000000100010000010000000000000000000000001
1000000000000000000000000000000000000000000000000000000000000000000000000000000000000000000100011111011100000000000000000000001
1000011111000000000111011111000001011101011111000001011100010111000001011111011111000100000100010000010000000111000000000000001
1000001010000000000100010000001011000111010000001001000100011000001011000001010000000100000100010111011100001101000000000000001
1000010001000000011111010000011101000101011111010101010100011100011101010101010000011111000100010000010000010111000000000000001
1000010001010111000100010000000100001000010000010101010000010100000100011101010000010001011100010000011100010001000000000000001
1000011111011100011111010000011100010000010111011111010111011111011100010101010000011111000000000000000000010101000000000000001
1000000100010100000100010000010100010000010000000100010000010100010100010000010000000100000000000000000000000101000000000000001
1000011111010000011100010000011100010000010000011100011100011111011100011111010000000100000000000000000000000101000000000000001
1000000000010111000000000000000000000000000000000000000000000000000000000000000000000000000000000000000000000000000000000000001
1000000000010100000000000000000000000000000000000000000000000000000000000000000000000000000000000000000000000000000000000000001
1000000000010100000000000000000000000000000000000000000000000000000000000000000000000000000000000000000000000000000000000000001
1000000000000000000000000000000000000000000000000000000000000000000000000000000000000000000000000000000000000000000000000000001
1000000000000000000000000000000000000000000000000000000000000000000000000000000000000000000000000000000000000000000000000000001
1000000000000000000000000000000000000000000000000000000000000000000000000000000000000000000000000000000000000000000000000000001
1000000000000000000000000000000000000000000000000000000000000000000000000000000000000000000111011111010111000000000000000000001
1000000000000000000000000000000000000000000000000000000000000000000000000000000000000000000100010000011000000000000000000000001
1000000000000000000000000000000000000000000000000000000000000000000000000000000000000000000100011111011100000000000000000000001
1000011111000000000111000001011111000100000001011111010111000001011101011111011111000100000100010000010100000111000000000000001
1000001010000000000100001001010000000100001001010000011000001001000111000001010000000100000100010111011111001101000000000000001
1000010001000000011111010101010000011111010101011111011100010101000101010101010000011111000100010000010100010111000000000000001
1000010001011111000100010101010000010001010101010000010100010101001000011101010000010001011100010000011111010001000000000000001
1000011111001000011111011111010000011111011111010111011111011111010000010101010000011111000000000000000000010101000000000000001
1000000100011100000100000100010000000100000100010000010100000100010000010000010000000100000000000000000000000101000000000000001
1000011111010000011100011100010000000100011100010000011111011100010000011111010000000100000000000000000000000101000000000000001
1000000000010100000000000000000000000000000000000000000000000000000000000000000000000000000000000000000000000000000000000000001
1000000000000100000000000000000000000000000000000000000000000000000000000000000000000000000000000000000000000000000000000000001
1000000000011111000000000000000000000000000000000000000000000000000000000000000000000000000000000000000000000000000000000000001
1000000000000000000000000000000000000000000000000000000000000000000000000000000000000000000000000000000000000000000000000000001
1000000000000000000000000000000000000000000000000000000000000000000000000000000000000000000000000000000000000000000000000000001
1000000000000000000000000000000000000000000000000000000000000000000000000000000000000000000000000000000000000000000000000000001
1111111111111111111111111111111111111111111111111111111111111111111111111111111111111111111111111111111111111111111111111111111
