P1
127 127
1111111111111111111111111111111111111111111111111111111111111111111111111111111111111111111111111111111111111111111111111111111
1000000000000000000000000000000000000000000000000000000000000000000000000000000000000000000000000000000000000000000000000000001
1000000000000000000000000000000000000000000000000000000000000101000000000000000000000000000000000000000000000000000000000000001
1000100101001000100010000000000000000000000000000000000000000111000000000000000000000000000000000000000000100101001000100010001
1001010010010101010101000000000000000000000000000000000000000101110000000000000000000000000000000000000001010010010101010101001
1000100101001000100010000000000000000000000000000000000000000110000000000000000000000000000000000000000000100101001000100010001
1000000000000000000000000000000000000000000000000000000000000101110000000000000000000000000000000000000000000000000000000000001
1000000000000000000000000000000000000000000000000000000000000000010000000000000000000000000000000000000000000000000000000000001
1000000000000000000000000000000000000000000000000000000000000111010000000000000000000000000000000000000000000000000000000000001
1000000000000000000000000000000000000000000000000000000000000000000000000000000000000000000000000000000000000000000000000000001
1000101000000000000000000000000000000000000000000000000000000000000000000000000000000000000000000000000000000000000000000000001
1000111000000000000000000000000000000000000000000000000000000000000000000000000000000000000000000000000000000000000000000000001
1000101010000000000000000000000000000000000000000000000000000000000000000000000000000000000000000000000000000000000000000000001
1000000010000000000000000000000000000000000000000000000000000000000000000000000000000000000000000000000000011100000100000000001
1000111010000000000000000000000000000000000000000000000000000000000000000000000000000000000000000000000000010000101100000000001
1000001010000000000000000000000000000000000000000000000000000000000000000000000000000000000000000000000000010001110100000000001
1000111110000000000000000000001000011100011101111100011101011101110101111101111100010001111101111100010000010000010000000100001
1000000000000000000000000000001000001000010001000000000101100000011101000001000000010000000101000000010000010001110000100100001
1000000000000000000000000000001000011101111101000000000101110000010101111101000001111101010101000001111100010001010000000100001
1000111111111111100000000000001000100000010001000000100001010000100001000001000001000101110101000001000101110001110000100000001
1000111111111111100000000000001001000101111101000001000001111101000001011101000001111101010101000001111100000000000001010100001
1000000000000000000000000000001001000100010001000001000001010001000001000001000000010001000001000000010000000000000001010100001
1000000000000000000000000000011001111101110001000001110001111101000001000001000000010001111101000000010000000000000001111100001
1000000000000000000000000000111000000000000000000000000000000000000000000000000000000000000000000000000000000000000000000000001
1000000000000000000000000011101000000000000000000000000000000000000000000000000000000000000000000000000000000000000000000000001
1000111111111111101100001111001000000000000000000000000000000000000000000000000000000000000000000000000001111101011100000000001
1000000000000000000011111000001000000000000000000000000000000000000000000000000000000000000000000000000001000001000000000000001
1000000000000000000011110000001000000000000000000000000000000000000000000000000000000000000000000000000001000001110000000000001
1000000000000000000010000000001001110000011101111100011101110100000101011101011101111101111101111100010001000001000001110000001
1000111111111111101100000000001000001000010001000000000101110100100101100001100001000000000101000000010001000001110001001000001
1000000000000000000010000000001001111101111101000000000101010101010101110001110001000001010101000001111101000001000001010100001
1000000000000000000010000000001000100100010001000000100001000001010101010001010001000001110101000001000101000001110000110100001
1000000000000000000010000000001001111101111101000001000001110001111101111101111101000001010101000001111100000000000000010100001
1000000000000000000010000000001001010000010001000001000000010000010001010001010001000001000001000000010000000000000000010000001
1000000000000000000011000000001001010001110001000001110001111101110001111101111101000001111101000000010000000000000001110000001
1000000000000000000011100000000000000000000000000000000000000000000000000000000000000000000000000000000000000000000000000000001
1000000000000000000011100000000000000000000000000000000000000000000000000000000000000000000000000000000000000000000000000000001
1000000000000000000010110000000000000000000000000000000000000000000000000000000000000000000000000000000000000000000000000000001
1000000000000000000010110000000000000000000000000000000000000000000000000000000000000000000000000000000000000000000000000000001
1000111111111111101100011000000000000000000000000000000000000000000000000000000000000000000000000000000000000000000000000000001
1000000000000000000010011000000000000000000000000000000000000000000000000000000000000000000000000000000000011101110100000000001
1000000000000000000010001100000000000000000000000000000000000000000000000000000000000000000000000000000000010000011100000000001
1000000000000000000010001100000000000000000000000000000000000000000000000000000000000000000000000000000000010000010100000000001
1000000000000000000010000110001000011100011100000100011101110100000101110001011101110101111101111100010000010000100000000100001
1000000000000000000010000110001000001000010000101100000101110100101100010001100001110100000101000000010000010001000000100100001
1000000000000000000010000011001000011101111101110100000101010101110101010001110001010101010101000001111100010001000000000100001
1000000000000000000010000011001000100000010000010000100001000000010001000001010001000001110101000001000101110001000000100000001
1000000000000000000010000001101001000101111101110001000001110001110001011101111101110001010101000001111100000000000001010100001
1000000000000000000010000001101001000100010001010001000000010001010001000001010000010001000001000000010000000000000001010100001
1000000000000000000010000000111001111101110001110001110001111101110001110001111101111101111101000000010000000000000001111100001
1000000000000000000010000000111000000000000000000000000000000000000000000000000000000000000000000000000000000000000000000000001
1000000000000000000010000000011000000000000000000000000000000000000000000000000000000000000000000000000000000000000000000000001
1000000000000000000010000000011000000000000000000000000000000000000000000000000000000000000000000000000001111101011100000000001
1000000000000000000010000000001000000000000000000000000000000000000000000000000000000000000000000000000001000001000000000000001
1000000000000000000010000000001000000000000000000000000000000000000000000000000000000000000000000000000001000001110000000000001
1000000000000000000010000000001001110000011101011100011101110100000101011100010001110001111101111100010001000001000001110000001
1000000000000000000010000000001000001000010001000000000101110100101101100000010000010000000101000000010001000001110001001000001
1000000000000000000010000000001001111101111101110000000101010101110101110001111101010001010101000001111101000001000001010100001
1000000000000000000010000000001000100100010001000000100001000000010001010001000101000001110101000001000101000001110000110100001
1000000000000000000010000000001001111101111101110001000001110001110001111101111101011101010101000001111100000000000000010100001
1000000000000000000011000000001001010000010001000001000000010001010001010000010001000001000001000000010000000000000000010000001
1000000000000000000011100000001001010001110001110001110001111101110001111100010001110001111101000000010000000000000001110000001
1000000000000000000010100000000000000000000000000000000000000000000000000000000000000000000000000000000000000000000000000000001
1000000000000000000010110000000000000000000000000000000000000000000000000000000000000000000000000000000000000000000000000000001
1000000000000000000010010000000000000000000000000000000000000000000000000000000000000000000000000000000000000000000000000000001
1000000000000000000010011000000000000000000000000000000000000000000000000000000000000000000000000000000000000000000000000000001
1000000000000000000010001000000000000000000000000000000000000000000000000000000000000000000000000000000000011101110100000000001
1000000000000000000010001100000000000000000000000000000000000000000000000000000000000000000000000000000000010000011100000000001
1000000000000000000010000100000000000000000000000000000000000000000000000000000000000000000000000000000000010000010100000000001
1000000000000000000010000110001000011100011101111100011101110001111101110100000101110101111101111100010000010000100000000100001
1000000000000000000010000010001000001000010001000000000100010001000001110100101100011100000101000000010000010001000000100100001
1000000000000000000010000011001000011101111101000000000101010001000001010101110100010101010101000001111100010001000000000100001
1000000000000000000010000001001000100000010001000000100001000001000001000000010000100001110101000001000101110001000000100000001
1000000000000000000010000001101001000101111101000001000001011101000001110001110001000001010101000001111100000000000001010100001
1000000000000000000010000000101001000100010001000001000001000001000000010001010001000001000001000000010000000000000001010100001
1000000000000000000010000000111001111101110001000001110001110001000001111101110001000001111101000000010000000000000001111100001
1000000000000000000010000000011000000000000000000000000000000000000000000000000000000000000000000000000000000000000000000000001
1000000000000000000010000000011000000000000000000000000000000000000000000000000000000000000000000000000000000000000000000000001
1000000000000000000010000000001000000000000000000000000000000000000000000000000000000000000000000000000001111101110100000000001
1000000000000000000010000000001000000000000000000000000000000000000000000000000000000000000000000000000001000001110100000000001
1000000000000000000010000000001000000000000000000000000000000000000000000000000000000000000000000000000001000001010100000000001
1000000000000000000010000000001001110000011101110000011101011100000100000100010001110101111101111100010001000001000001110000001
1000000000000000000010000000001000001000010000010000000101000000101100101100010000011100000101000000010001000001110001001000001
1000000000000000000010000000001001111101111101010000000101110001110101110101111100010101010101000001111101000000010001010100001
1000000000000000000010000000001000100100010001000000100001000000010000010001000100100001110101000001000101000001111100110100001
1000000000000000000010000000001001111101111101011101000001110001110001110001111101000001010101000001111100000000000000010100001
1000000000000000000010000000001001010000010001000001000001000001010001010000010001000001000001000000010000000000000000010000001
1000000000000000000010000000001001010001110001110001110001110001110001110000010001000001111101000000010000000000000001110000001
1000000000000000000010000000000000000000000000000000000000000000000000000000000000000000000000000000000000000000000000000000001
1000111111111111101100000000000000000000000000000000000000000000000000000000000000000000000000000000000000000000000000000000001
1000000000000000000000000000000000000000000000000000000000000000000000000000000000000000000000000000000000000000000000000000001
1000000000000000000000000000000000000000000000000000000000000000000000000000000011101111100000000000000000000000000000000000001
1000111010000000000000000000000000000000000000000000000000000000000000000000000010001000000000000000000000000000000000000000001
1000100110000000000000000000000000000000000000000000000000000000000000000000000010001000000000000000000000000000000000000000001
1000100010000000000000000000000000000000000000000000000000000011100011101110000010001000000011101111100011101110000000000000001
1000110000000000000000000000000000000000000000000000000000000110000010001001000010001000000010001000000010001001000000000000001
1000100000000000000000000000000000000000000000000000000000000010101111101010100010001000001111101000001010101010100000000000001
1000100000000000000000000000000000000000000000000000000000000110100010000110101110001000000010001000001000100110100000000000001
1000111000000000000000000000000000000000000000000000000000001111101111100010100000000000001111101000001010100010100000000000001
1000000000000000000000000000000000000000000000000000000000001010100010000010000000000000000010001000000010000010000000000000001
1000000000000000000000000000000000000000000000000000000000001111101110001110000000000000001110001000001110001110000000000000001
1000000000000000000000000000000000000000000000000000000000000000000000000000000000000000000000000000000000000000000000000000001
1000000000000000000000000000000000000000000000000000000000000000000000000000000000000000000000000000000000000000000000000000001
1000000000000011111000000000111011100011111000111000000000000000000000000000000000000000000000000000000000000000000000000000001
1000000000000001001000000000100000010000001000010000000000000000000000000000000000000000000000000000000000000000000000000000001
1000000000000000001000000011111011111010101000111000000000000000000000000000000000000000000000000000000000000000000000000000001
1000000000000001000000111000100001001011101001000000000000000000000000000000000000000000000000000000000000000000000000000000001
1000000000000000111001000011111011111010101010001000000000000000000000000000000000000000000000000000000000000000000000000000001
1000000000000000100010000000100010100010000010001000000000000000000000000000000000000000000000000000000000000000000000000000001
1000000000000000100010000011100010100011111011111000000000000000000000000000000000000000000000000000000000000000000000000000001
1000000000000000000011100000000000000000000000000000000000000000000000000000000000000000000000000000000000000000000000000000001
1000000000000000000000100000000000000000000000000000000000000000000000000000000000000000000000000000000000000000000000000000001
1000000000000000000011100000111011100000001000001011101000001011100010111011101010111000001000111000111000000000000000000000001
1000000000000000000000000000100000100001001001001000111001001000100010000011101011000001001000100001100000000000000000000000001
1000000000000000000000000011111010100010101010101000101010101010100011100010101011100000001010101000101000000000000000000000001
1000000000000000000000000000100010000010101010101001000010101010000010000010000010100001000010001001101000000000000000000000001
1000000000000000000000000011111010111011111011111010000011111010111011100011100011111010101010101011111000000000000000000000001
1000000000000000000000000000100010000000100000100010000000100010000010000000100010100010101000100010101000000000000000000000001
1000000000000000000000000011100011100011100011100010000011100011100011100011111011111011111011100011111000000000000000000000001
1000000000000000000000000000000000000000000000000000000000000000000000000000000000000000000000000000000000000000000000000000001
1000000000000000000000000000000000000000000000000000000000000000000000000000000000000000000000000000000000000000000000000000001
1000000000000000000000000000000000000000000000000000000000000000000000000000000000000000000000000000000000000000000000000000001
1000000000000000000000000000000000000000000000000000000000000000000000000000000000000000000000000000000000000000000000000000001
1000000000000000000000000000000000000000000000000000000000000000000000000000000000000000000000000000000000000000000000000000001
1000000000000000000000000000000000000000000000000000000000000000000000000000000000000000000000000000000000000000000000000000001
1000000000000000000000000000000000000000000000000000000000000000000000000000000000000000000000000000000000000000000000000000001
1111111111111111111111111111111111111111111111111111111111111111111111111111111111111111111111111111111111111111111111111111111
