P1
127 127
1111111111111111111111111111111111111111111111111111111111111111111111111111111111111111111111111111111111111111111111111111111
1000000000000000000000000000000000000000000000000000000000000000000000000000000000000000000000000000000000000000000000000000001
1000000000000000000000000000000000000000000000000000000000000101000000000000000000000000000000000000000000000000000000000000001
1000100101001000100101000000000000000000000000000000000000000111000000000000000000000000000000000000000000100101001000100101001
1001010010010101010010000000000000000000000000000000000000000101110000000000000000000000000000000000000001010010010101010010001
1000100101001000100101000000000000000000000000000000000000000110000000000000000000000000000000000000000000100101001000100101001
1000000000000000000000000000000000000000000000000000000000000101110000000000000000000000000000000000000000000000000000000000001
1000000000000000000000000000000000000000000000000000000000000000010000000000000000000000000000000000000000000000000000000000001
1000000000000000000000000000000000000000000000000000000000000111010000000000000000000000000000000000000000000000000000000000001
1000000000000000000000000000000000000000000000000000000000000000000000000000000000000000000000000000000000000000000000000000001
1000000000000000000000000000000000000000000000000000000000000000000000000000000000000000000000000000000000000000000000000000001
1000000000000000000000000000000000000000000000000000000000000000000000000000000000000000000000000000000000000000000000000000001
1000000000000000000000000000000000000000000000000000000000000000000000000000000000000000000000000000000000000000000000000000001
1000000000000000000000000000000000000000000000000000000000000000000000000000000000000000000000000000000000000000000000000000001
1000000000000000000000000000000000000000000000000000000000000000000000000000000000000000000000000000000000000000000000000000001
1000000000000000000000000000000000000000000001110000000000000000000000000000000000000000000000000000000000000000111000000000001
1000000000000000000000000000000000000000000000010000000000000000000000000000000000000000000000000000000000000000001000000000001
1000000000000000000000000000000000000000000001010000000000000000000000000000000000000000000000000000000000000000101000000000001
1000011100011101111101111101110000011101111101000000000000111110111110001110111110001110111110000010001110001110100000000000001
1000101000010000101000000100010000010000100001011100000000100000011100001000100000011010000010010010001000011000101110000000001
1000011101111101000101010100011101010100011101000000000000100000001110111110100000101110101010000010101010001010100000000000001
1000010000010001000101110100010001000100110101110000000000100000001000001000100000100010111010010000100010011010111000000000001
1000011101111101111101010101110001010100010100000000000000100000111000111110100000101010101010101010101010111110000000000000001
1000010000010000010001000001000000010000010100000000000000100000001000001000100000001010100000101010001000101010000000000000001
1001110001110001111101111101011101110000010100000000000000100000111110111000100000001010111110111110111000111110000000000000001
1000000000000000000000000000000000000000000000000000000000000000000000000000000000000000000000000000000000000000000000000000001
1000000000000000000000000000000000000000000000000000000000000000000000000000000000000000000000000000000000000000000000000000001
1000000000000000000000000000000000000000000000000000000000000000000000000000000000000000000000000000000000000000000000000000001
1000000000000000000000000000000001110000000000000001110000000000000000000000000000000000000000000000011100000000000000011100001
1000000000000000000000000000000000010000000000000000010000000000000000000000000000000000000000000000000100000000000000000100001
1000000000000000000000000000000001010000000000000001010000000000000000000000000000000000000000000000010100000000000000010100001
1001110100011101111101111101110001000000011101111101000000011111011111000111011111000111011111000001010000000111000111010000001
1001001100010000101000000100010001011100010000100001011100010000001001000100010000001101000001001001010111000100001100010111001
1001000101111101000101010100011101000001010100011101000000010000010101011111010000010111010101000001010000010101000101010000001
1001100000010001000101110100010001110001000100110101110000010000010100000100010000010001011101001000011100010001001101011100001
1001000001111101111101010101110000000001010100010100000000010000011111011111010000010101010101010101000000010101011111000000001
1001000000010000010001000001000000000000010000010100000000010000010100000100010000000101010000010101000000000100010101000000001
1001110001110001111101111101011100000001110000010100000000010000010100011100010000000101011111011111000000011100011111000000001
1000000000000000000000000000000000000000000000000000000000000000000000000000000000000000000000000000000000000000000000000000001
1000000000000000000000000000000000000000000000000000000000000000000000000000000000000000000000000000000000000000000000000000001
1000000000000000000000000000000000000000000000000000000000000000000000000000000000000000000000000000000000000000000000000000001
1000000000000000000000000000000000000000000001110000000000000000000000000000000000000000000000000000000000000000111000000000001
1000000000000000000000000000000000000000000000010000000000000000000000000000000000000000000000000000000000000000001000000000001
1000000000000000000000000000000000000000000001010000000000000000000000000000000000000000000000000000000000000000101000000000001
1001110000011101111100011101110000011101111101000000000000111110100010001110111110001110001110000010001110001110100000000000001
1001101000010000101000010000010000010000100001011100000000100000110110001000100000011010001000010010001000011000101110000000001
1001110001111101000101010100011101010100011101000000000000100000101010111110100000101110101010000010101010001010100000000000001
1001010000010001000101000100010001000100110101110000000000100000001000001000100000100010100010010000100010011010111000000000001
1001110101111101111101010101110001010100010100000000000000100000101010111110100000101010101010101010101010111110000000000000001
1001010100010000010000010001000000010000010100000000000000100000100010001000100000001010001000101010001000101010000000000000001
1001010101110001111101110001011101110000010100000000000000100000100010111000100000001010111000111110111000111110000000000000001
1000000000000000000000000000000000000000000000000000000000000000000000000000000000000000000000000000000000000000000000000000001
1000000000000000000000000000000000000000000000000000000000000000000000000000000000000000000000000000000000000000000000000000001
1000000000000000000000000000000000000000000000000000000000000000000000000000000000000000000000000000000000000000000000000000001
1000000000000000000000000000000001110000000000000001111100000000000000000000000000000000000000000000011100000000000000011111001
1000000000000000000000000000000000010000000000000001000000000000000000000000000000000000000000000000000100000000000000010000001
1000000000000000000000000000000001010000000000000001111100000000000000000000000000000000000000000000010100000000000000011111001
1001000000011101111101111101110001000000011101111101000000011111011100000111011111000111011111000001010000000111000111010000001
1001100000010000101000000100010001011100010000100001011100010000011000000100010000001101000001001001010111000100001100010111001
1001111101111101000101010100011101000001010100011101000000010000010101011111010000010111010101000001010000010101000101010000001
1001000100010001000101110100010001110001000100110101000000010000010101000100010000010001011101001000011100010001001101010000001
1001110101111101111101010101110000000001010100010100000000010000010111011111010000010101010101010101000000010101011111000000001
1000010000010000010001000001000000000000010000010100000000010000010100000100010000000101010000010101000000000100010101000000001
1001110001110001111101111101011100000001110000010100000000010000011100011100010000000101011111011111000000011100011111000000001
1000000000000000000000000000000000000000000000000000000000000000000000000000000000000000000000000000000000000000000000000000001
1000000000000000000000000000000000000000000000000000000000000000000000000000000000000000000000000000000000000000000000000000001
1000000000000000000000000000000000000000000000000000000000000000000000000000000000000000000000000000000000000000000000000000001
1000000000000000000000000000000000000000000000000000000000000000000000000000000000000000000000000000000000000000000000000000001
1000000000000000000011111000111011100000111011111000111000001000111000111000000000000000000000000000000000000000000000000000001
1000000000000000000001001000100000100000100001000000100001001000100001100000000000000000000000000000000000000000000000000000001
1000000000000000000000001011111000111010101000111011111000001010101000101000000000000000000000000000000000000000000000000000001
1000000000000000000001000000100000100010001001101000100001000010001001101000000000000000000000000000000000000000000000000000001
1000000000000000000000111011111011100010101000101011111010101010101011111000000000000000000000000000000000000000000000000000001
1000000000000000000000100000100010000000100000101000100010101000100010101000000000000000000000000000000000000000000000000000001
1000000000000000000000100011100010111011100000101011100011111011100011111000000000000000000000000000000000000000000000000000001
1000000000000000000000000000000000000000000000000000000000000000000000000000000000000000000000000000000000000000000000000000001
1000000000000000000000000000000000000000000000000000000000000000000000000000000000000000000000000000000000000000000000000000001
1000000000000000000000000000000000000000000000000000000000000000000000000011100000000000000000000000000011100000000000000000001
1000000000000000000000000000000000000000000000000000000000000000000000000000100000000000000000000000000000100000000000000000001
1000000000000000000000000000000000000000000000000000000000000000000000000010100000000000000000000000000010100000000000000000001
1000000000000000000011111000111011111000111011111000111011100000111011111010000000111000001000111000111010000000000000000000001
1000000000000000000001001000100001001000100001000000100000100000100001000010111000100001001000100001100010111000000000000000001
1000000000000000000011101011111000001010101000111011111000111010101000111010000011111000001010101000101010000000000000000000001
1000000000000000000001000000100001000010001001101000100000100010001001101011100000100001000010001001101011100000000000000000001
1000000000000000000011100011111000111010101000101011111011100010101000101000000011111010101010101011111000000000000000000000001
1000000000000000000000100000100000100000100000101000100010000000100000101000000000100010101000100010101000000000000000000000001
1000000000000000000000111011100000100011100000101011100010111011100000101000000011100011111011100011111000000000000000000000001
1000000000000000000000000000000000000000000000000000000000000000000000000000000000000000000000000000000000000000000000000000001
1000000000000000000000000000000000000000000000000000000000000000000000000000000000000000000000000000000000000000000000000000001
1000000000000000000000000000000000000000000000000000000000000000000000000000000000000000001110111110101110000000000000000000001
1000000000000000000000000000000000000000000000000000000000000000000000000000000000000000001000100000100000000000000000000000001
1000000000000000000000000000000000000000000000000000000000000000000000000000000000000000001000111110111000000000000000000000001
1000111010001110000010001110000010111000000010001000111010111010111010111110111110001000001000100000100000111110111110001110001
1000110110001000010110000010010110001000010110001000001110111010111010000010100000001000001000101110111000010010000010011000001
1000101110111110111010000010111010101000111010111110001010101010101010101010100000111110001000100000100000101010101010001010001
1000011010001000001000010000001000100000001000100010010000100000100000111010100000100010111000100000111000101000111010011010001
1000101010111110111000100000111000101110111000111110100000111000111000101010100000111110000000000000000000111110101010111110001
1000101000001000101000100000101000100000101000001000100000001000001000100000100000001000000000000000000000101000100000101010001
1000111110111000111000111000111000111000111000001000100000111110111110111110100000001000000000000000000000101000111110111110001
1000000000000000000000000000000000000000000000000000000000000000000000000000000000000000000000000000000000000000000000000000001
1000000000000000000000000000000000000000000000000000000000000000000000000000000000000000000000000000000000000000000000000000001
1000000000000000000000000000000000000000000000000000000000000000000000000000000000000000000000000000000000000000000000000000001
1000000000000000000000000000000000000000000000000000000000000000000000000000001110111110111110000000000000000000000000000000001
1000000000000000000000000000000000000000000000000000000000000000000000000000001000100000100000000000000000000000000000000000001
1000000000000000000000000000000000000000000000000000000000000000000000000000001000100000100000000000000000000000000000000000001
1000001110001110000010001110000010111010111000111010000010111110111110001000001000100000100000000000000000000000000000000000001
1000010110001000010110000010010110001110001000111010010010000010100000001000001000100000100000000000000000000000000000000000001
1000111010111110111010000010111010001010101000101010101010101010100000111110001000100000100000000000000000000000000000000000001
1000011010001000001000010000001000010000100000100000101010111010100000100010111000100000100000000000000000000000000000000000001
1000111010111110111000100000111000100000101110111000111110101010100000111110000000000000000000000000000000000000000000000000001
1000101000001000101000100000101000100000100000001000001000100000100000001000000000000000000000000000000000000000000000000000001
1000111110111000111000111000111000100000111000111110111000111110100000001000000000000000000000000000000000000000000000000000001
1000000000000000000000000000000000000000000000000000000000000000000000000000000000000000000000000000000000000000000000000000001
1000000000000000000000000000000000000000000000000000000000000000000000000000000000000000000000000000000000000000000000000000001
1000000000000000000000111110000000000000001110111110000000000000001110111000000000000000000000000000000000000000000000000000001
1000000000000000000000100000000000000000001000100000000000000000001000001000000000000000000000000000000000000000000000000000001
1000000000000000000000111110000000000000001000100000000000000000001000101000000000000000000000000000000000000000000000000000001
1000000000000000000010100000111110001110001000100000111110001110001000100000000000000000000000000000000000000000000000000000001
1000000000000000010010101110000010011010001000100000000010011000001000101110000000000000000000000000000000000000000000000000001
1000000000000000000010100000101010101110001000100000101010001010001000100000000000000000000000000000000000000000000000000000001
1000000000000000010000100000111010100010111000100000111010011010111000111000000000000000000000000000000000000000000000000000001
1000000000000000101010000000101010101010000000000000101010111110000000000000000000000000000000000000000000000000000000000000001
1000000000000000101010000000100000001010000000000000100000101010000000000000000000000000000000000000000000000000000000000000001
1000000000000000111110000000111110001010000000000000111110111110000000000000000000000000000000000000000000000000000000000000001
1000000000000000000000000000000000000000000000000000000000000000000000000000000000000000000000000000000000000000000000000000001
1000000000000000000000000000000000000000000000000000000000000000000000000000000000000000000000000000000000000000000000000000001
1111111111111111111111111111111111111111111111111111111111111111111111111111111111111111111111111111111111111111111111111111111
