P1
127 127
1111111111111111111111111111111111111111111111111111111111111111111111111111111111111111111111111111111111111111111111111111111
1000000000000000000000000000000000000000000000000000000000000000000000000000000000000000000000000000000000000000000000000000001
1000000000000000000000000000000000000000000000000000000000000101000000000000000000000000000000000000000000000000000000000000001
1000100101001001010010000000000000000000000000000000000000000111000000000000000000000000000000000000000000100101001001010010001
1001010010010100100101000000000000000000000000000000000000000101110000000000000000000000000000000000000001010010010100100101001
1000100101001001010010000000000000000000000000000000000000000110000000000000000000000000000000000000000000100101001001010010001
1000000000000000000000000000000000000000000000000000000000000101110000000000000000000000000000000000000000000000000000000000001
1000000000000000000000000000000000000000000000000000000000000000010000000000000000000000000000000000000000000000000000000000001
1000000000000000000000000000000000000000000000000000000000000111010000000000000000000000000000000000000000000000000000000000001
1000000000000000000000000000000000000000000000000000000000000000000000000000000000000000000000000000000000000000000000000000001
1000000000000000000000000000000000000000000000000000000000000000000000000000000000000000000000000000000000000000000000000000001
1000000000000000000000000000000000000000000000000000000000000000000000000000000000000000000000000000000000000000000000000000001
1000010100000011111010111000111000100011100011101011111000000000000000011100000100000111011100000001010111011111000000000000001
1000011100000010000010000000001000100000100011101001010000000000000000000100000100000001000100001011011000001010000000000000001
1000010101000010000011100000001011111010100010101011111000000000000000010100011111000001010100011101011100011111000000000000001
1000000001000010000010000001000010001010000010000000100000000000000000010000010001001000010000000100010100000100000000000000001
1000011101000010000011100010000011111010111011100010101000000000000000010111011111010000010111011100011111010101000000000000001
1000000101000010000010000010000000100010000000100010101000000000000000010000000100010000010000010100010100010101000000000000001
1000011111000010000011100011100000100011100011111010101000000000000000011100000100011100011100011100011111010101000000000000001
1000000000000000000000000000000000000000000000000000000000000000000000000000000000000000000000000000000000000000000000000000001
1000000000000000000000000000000000000000000000000000000000000000000000000000000000000000000000000000000000000000000000000000001
1000000101000010111011111000100000100011111000000000000000000000000000010111010111011101000100011111000000000000000000000000001
1000001111000010000010000000100000100001010000000000000000000000000000010000010000000111000100001010000000000000000000000000001
1000011101000011100010000011111011111011111000000000000000000000000000011100011100000101011111011111000000000000000000000000001
1000001000000010000010000010001010001000100000000000000000000000000000010000010000001000010001000100000000000000000000000000001
1000000001000011100010000011111011111010101000000000000000000000000000011100011100010000011111010101000000000000000000000000001
1000000001000010000010000000100000100010101000000000000000000000000000010000010000010000000100010101000000000000000000000000001
1000000001000011100010000000100000100010101000000000000000000000000000011100011100010000000100010101000000000000000000000000001
1000000000000000000000000000000000000000000000000000000000000000000000000000000000000000000000000000000000000000000000000000001
1000000000000000000000000000000000000000000000000000000000000000000000000000000000000000000000000000000000000000000000000000001
1000010100000011111010111010111000111011111000001011111000000000000000011101011111011101000111011101011101011111000000000000001
1000011110000010000011000011000000001010000001011001010000000000000000000111010000000111000001000111011101001010000000000000001
1000011101000011111011100011100000001011111011101011111000000000000000000101010000000101000001000101010101011111000000000000001
1000001001000010000010100010100001000010000000100000100000000000000000001000010000001000001000001000010000000100000000000000001
1000011111000010111011111011111010000010111011100010101000000000000000010000010000010000010000010000011100010101000000000000001
1000010101000010000010100010100010000010000010100010101000000000000000010000010000010000010000010000000100010101000000000000001
1000010101000010000011111011111011100010000011100010101000000000000000010000010000010000011100010000011111010101000000000000001
1000000000000000000000000000000000000000000000000000000000000000000000000000000000000000000000000000000000000000000000000000001
1000000000000000000000000000000000000000000000000000000000000000000000000000000000000000000000000000000000000000000000000000001
1000011101000000001000001011100000111011101011111011111000000000000000011111011111010111000100011111000000000000000000000000001
1000001111000001011001001000100000001000111010000001010000000000000000010000010000011000000100001010000000000000000000000000001
1000000111000011101010101010100000001000101011111011111000000000000000010000010000011100011111011111000000000000000000000000001
1000001001000000100010101010000001000001000010000000100000000000000000010000010000010100010001000100000000000000000000000000001
1000000111000011100011111010111010000010000010111010101000000000000000010000010000011111011111010101000000000000000000000000001
1000000101000010100000100010000010000010000010000010101000000000000000010000010000010100000100010101000000000000000000000000001
1000011101000011100011100011100011100010000010000010101000000000000000010000010000011111000100010101000000000000000000000000001
1000000000000000000000000000000000000000000000000000000000000000000000000000000000000000000000000000000000000000000000000000001
1000000000000000000000000000000000000000000000000000000000000000000000000000000000000000000000000000000000000000000000000000001
1000010000000011111011100011111010111011111000000000000000000000000000011100010111011111000001011111000000000000000000000000001
1000011010000010000000100010000010000001010000000000000000000000000000000100010000010000001011001010000000000000000000000000001
1000010111000010000010100011111011100011111000000000000000000000000000010100011100011111011101011111000000000000000000000000001
1000001001000010000010000010000010000000100000000000000000000000000000010000010000010000000100000100000000000000000000000000001
1000010111000010000010111010111011100010101000000000000000000000000000010111011100010111011100010101000000000000000000000000001
1000010101000010000010000010000010000010101000000000000000000000000000010000010000010000010100010101000000000000000000000000001
1000011111000010000011100010000011100010101000000000000000000000000000011100011100010000011100010101000000000000000000000000001
1000000000000000000000000000000000000000000000000000000000000000000000000000000000000000000000000000000000000000000000000000001
1000000000000000000000000000000000000000000000000000000000000000000000000000000000000000000000000000000000000000000000000000001
1000000001000011111011111011111011101000111011101010111011111000000000011111011111011111000100011111000000000000000000000000001
1000001011000010000010000010000000111000001011101011000001010000000000010000010000010000000100001010000000000000000000000000001
1000011101000010000011111011111000101000001010101011100011111000000000011111010000011111011111011111000000000000000000000000001
1000011100000010000010000010000001000001000010000010100000100000000000010000010000010000010001000100000000000000000000000000001
1000011111000010000010111010111010000010000011100011111010101000000000010111010000010111011111010101000000000000000000000000001
1000000001000010000010000010000010000010000000100010100010101000000000010000010000010000000100010101000000000000000000000000001
1000011101000010000010000010000010000011100011111011111010101000000000010000010000010000000100010101000000000000000000000000001
1000000000000000000000000000000000000000000000000000000000000000000000000000000000000000000000000000000000000000000000000000001
1000000000000000000000000000000000000000000000000000000000000000000000000000000000000000000000000000000000000000000000000000001
1000000000000000000000000000000000000000000000000000000000000000000000000000000000000000000000000000000000000000000000000000001
1000000000000000000000000000000000011100000111011111000100011111011111000100000100010001000000000000000000000000000000000000001
1000000000000000000000000000000000011010000100010000000100010000010000000100000100011011000000000000000000000000000000000000001
1000000000000000000000000000000000011100011111010000011111010000011111011111011111010101000000000000000000000000000000000000001
1000000000000000000000000000000000010100000100010000010001010000010000010001010001000100000000000000000000000000000000000000001
1000000000000000000000000000000000011101011111010000011111010000010111011111011111010101000000000000000000000000000000000000001
1000000000000000000000000000000000010101000100010000000100010000010000000100000100010001000000000000000000000000000000000000001
1000000000000000000000000000000000010101011100010000000100010000010000000100000100010001000000000000000000000000000000000000001
1000000000000000000000000000000000000000000000000000000000000000000000000000000000000000000000000000000000000000000000000000001
1000000000000000000000000000000000000000000000000000000000000000000000000000000000000000000000000000000000000000000000000000001
1000000000000000000000000000000000000000000000000000000000000000000000000000000000000000000000000000000000000000000000000000001
1000010100010100011100000011100011101011111011111000000000000000000000011111011101011111011111000000000000000000000000000000001
1000011100011100001110000000100000111010000001010000000000000000000000010000000111010000001010000000000000000000000000000000001
1000010101010101000101000010100000101011111011111000000000000000000000011111000101011111011111000000000000000000000000000000001
1000000001000001001101000010000001000010000000100000000000000000000000010000001000010000000100000000000000000000000000000000001
1000011101011101011111000010111010000010111010101000000000000000000000010111010000010111010101000000000000000000000000000000001
1000000101000101000001000010000010000010000010101000000000000000000000010000010000010000010101000000000000000000000000000000001
1000011111011111011111000011100010000010000010101000000000000000000000010000010000010000010101000000000000000000000000000000001
1000000000000000000000000000000000000000000000000000000000000000000000000000000000000000000000000000000000000000000000000000001
1000000000000000000000000011111111111111111111111000000000000000000000011111111111111111111111000000000000000000000000000000001
1000000000000000000000000000000000001000000000000000000000000000000000000000000001000000000000000000000000000000000000000000001
1000000000000000000000000000000000000100000000000000000000000000000000000000000001000000000000000000000000000000000000000000001
1000000000000000000000000000000000000100000000000000000000000000000000000000000001000000000000000000000000000000000000000000001
1000000000000000000000000000000000000010000000000000000000000000000000000000000001000000000000000000000000000000000000000000001
1000000000000000000000000000000000000010000000000000000000000000000000000000000001000000000000000000000000000000000000000000001
1000000000000000000000000000000000000001000000000000000000000000000000000000000001000000000000000000000000000000000000000000001
1000000000000000000000000000000000000001000000000000000000000000000000000000000010000000000000000000000000000000000000000000001
1000000000000000000000000000000000000000100000000000000000000000000000000000000010000000000000000000000000000000000000000000001
1000000000000000000000000000000000000000100000000000000000000000000000000000000010000000000000000000000000000000000000000000001
1000000000000000000000000000000000000000010000000000000000000000000000000000000100000000000000000000000000000000000000000000001
1000000000000000000000000010000000000000010000000000000000000000000000000000000100000000000010000000000000000000000000000000001
1000000000000000000000000111000000000000001000000000000000000000000000000000000100000000001100000000000000000000000000000000001
1000000000000000111110001010100000000000001000000000000000000000000000000000000100000000010000000000000000000000000000000000001
1000000000000000001000000010000000000000000100000000000000000000000000000000001000000000100000000000000000000000000000000000001
1000000000000000001000000010000000000000000100000000000000000000011111111111111111111111000000000000000000000000000000000000001
1000000000000000001000000010000000000000000010000000000000000000010000000000000000000000000000000000000000000000000000000000001
1000000000000000101000000010000000000000000010000000000000000000100000000000000000000000000000000000000000000000000000000000001
1000000000000000100000000010000000000000000001000000000000000011000000000000000000000000000000000000000000000000000000000000001
1000000000000000100000000010000000000000000001000000000000000100000000000000000000000000000000000000000000000000000000000000001
1000000000000000000000000010000000000000000000100000000000001000000000000000000000000000000000000000000000000000000000000000001
1000000000000000000000000010000000000000000000100000000000010000000000000000000000000000000000000000000000000000000000000000001
1000000000000000000000000010000000000000000000010000000001100000000000000000000000000000000000000000000000000000000000000000001
1000000000000000000000000010000000000011111111111111111110000000000000000000000000000000000000000000000000000000000000000000001
1000000000000000000000000010000000000010000000000000000000000000000000000000000000000000000000000000000000000000000000000000001
1000000000000000000000000010000000001100000000000000000000000000000000000000000000000000000000000000000000000000000000000000001
1000000000000000000000000010000000110000000000000000000000000000000000000000000000000000000000000000000000000000000000000000001
1000000000000000000000000010000001000000000000000000000000000000000000000000000000000000000000000000000000000000000000000000001
1000000000000000000000000010000110000000000000000000000000000000000000000000000000000000000000000000000000000000000000000000001
1000000000000000000000000010111000000000000000000000000000000000000000000000000000000000001000000000000000000000000000000000001
1000000000000000000000000010000000000000000000000000000000000000000000000000000000000000000100000000000000000000000000000000001
1000000000000000000000000011111111111111111111111111111111111111111111111111111111111111111110011111000000000000000000000000001
1000000000000000000000000000000000000000000000000000000000000000000000000000000000000000000100001000000000000000000000000000001
1000000000000000000000000000000000000000000000000000000000000000000000000000000000000000001000000111000000000000000000000000001
1000000000000000000000000000000000000000000000000000000000000000000000000000000000000000000000001101000000000000000000000000001
1000000000000000000000000000000000000000000000000000000000000000000000000000000000000000000000000101000000000000000000000000001
1000000000000000000000000000000000000000000000000000000000000000000000000000000000000000000000000101000000000000000000000000001
1000000000000000000000000000000000000000000000000000000000000000000000000000000000000000000000000101000000000000000000000000001
1000000000000000000000000000000000000000000000000000000000000000000000000000000000000000000000000000000000000000000000000000001
1000000000000000000000000000000000000000000000000000000000000000000000000000000000000000000000000000000000000000000000000000001
1000000000000000000000000000000000000000000000000000000000000000000000000000000000000000000000000000000000000000000000000000001
1111111111111111111111111111111111111111111111111111111111111111111111111111111111111111111111111111111111111111111111111111111
