P1
127 127
1111111111111111111111111111111111111111111111111111111111111111111111111111111111111111111111111111111111111111111111111111111
1000000000000000000000000000000000000000000000000000000000000000000000000000000000000000000000000000000000000000000000000000001
1000000000000000000000000000000000000000000000000000000000000101000000000000000000000000000000000000000000000000000000000000001
1000100101001001010101000000000000000000000000000000000000000111000000000000000000000000000000000000000000100101001001010101001
1001010010010100100010000000000000000000000000000000000000000101110000000000000000000000000000000000000001010010010100100010001
1000100101001001010101000000000000000000000000000000000000000110000000000000000000000000000000000000000000100101001001010101001
1000000000000000000000000000000000000000000000000000000000000101110000000000000000000000000000000000000000000000000000000000001
1000000000000000000000000000000000000000000000000000000000000000010000000000000000000000000000000000000000000000000000000000001
1001100000000000000000000000000000000000000000000000000000000111010000000000000000000000000000000000000000000000000000000000001
1000010000000000000000000000000000000000000000000000000000000000000000000000000000000000000000000000000000000000000000000000001
1000001000000000000000000000000000000000000000000000000000000000000000000000000000000000000000000000000000000000000000000000001
1000000110000000000000000000000000000000000000000000000000000000000000000000000000000000000000000000000000000000000000000000001
1000000010000000000000000000000000000000000000000000000000000000000000000000000000000000000000000000000000000000000000000000001
1000000001100000000000000000000000000000000000000000000000000000000000000000000000000000000000001110001110100000000000000000001
1000000000100000000000000000000000000000000000000000000000000000000000000000000000000000000000000010000011100000000000000000001
1000000000010000000000000000000000000000000000000000000000000000000000000000000000000000000000001010000010100000000000000000001
1000000000001000000000000000001111100000000011101111100011100000100010001111101111101111100010001000000100000011100000000000001
1000000000000100000000000000000101000000000010001000000000100100100010001000000000101000000010001011101000000110100000000000001
1000000000000100000000000000001000100000001111101000000000101010101111101000001010101000001111101000001000001011100000000000001
1000000000000010000000000000001000100011100010001000000100001010101000101000001110101000001000101110001000001000100000000000001
1000000000000001000000000000001111100111001111101000001000001111101111101000001010101000001111100000000000001010100000000000001
1000000000000000100000000000000010000010000010001000001000000010000010001000001000001000000010000000000000000010100000000000001
1000000000000000100000000000001111100100001110001000001110001110000010001000001111101000000010000000000000000010100000000000001
1000000000000000100000000000000000000011100000000000000000000000000000000000000000000000000000000000000000000000000000000000001
1000000000000000010000000000000000000010100000000000000000000000000000000000000000000000000000000000000000000000000000000000001
1000000000000000001000000000000000001111100000000000000000000000000000000000000000000000000000000000000000000000000000000000001
1000000000000000001100000000000000000000000000000000000000000000000000000000000000000000000000000000000000000000000000000000001
1000000000000000000100000000000000000000000000000000000000000000000000000000000000000000000000000000000000000000000000000000001
1000000000000000000010000000000000000000000000000000000000000000000000000000000000000000000000001110100000000000000000000000001
1000000000000000000010000000000000000000000000000000000000000000000000000000000000000000000000000011100000000000000000000000001
1000000000000000000010000000000000000000000000000000000000000000000000000000000000000000000000000010100000000000000000000000001
1000000000000000000001000000001111100000000011101110100011101111101111101110101111101111100010000100000000100000000000000000001
1000000000000000000001000000000110100000000010000011100000101000001000000011100000101000000010001000000100100000000000000000001
1000000000000000000000100000000011100000001111100010100000101000001111100010101010101000001111101000000000100000000000000000001
1000000000000000000000100000000110000011100010000100000100001000001000000100001110101000001000101000000100000000000000000000001
1000000000000000000000100000001011100111001111101000001000001000001011101000001010101000001111100000001010100000000000000000001
1000000000000000000000010000001000100010000010001000001000001000001000001000001000001000000010000000001010100000000000000000001
1000000000000000000000010000001110100100001110001000001110001000001000001000001111101000000010000000001111100000000000000000001
1000000000000000000000010000000000000011100000000000000000000000000000000000000000000000000000000000000000000000000000000000001
1000000000000000000000011000000000000010100000000000000000000000000000000000000000000000000000000000000000000000000000000000001
1000000000000000000000001000000000001111100000000000000000000000000000000000000000000000000000000000000000000000000000000000001
1000000000000000000000001000000000000000000000000000000000000000000000000000000000000000000000000000000000000000000000000000001
1000000000000000000000001000000000000000000000000000000000000000000000000000000000000000000000000000000000000000000000000000001
1000000000000000000000000100000000000000000000000000000000000000000000000000000000000000000000000000000000000000000000000000001
1000000000000000000000000100000000000000000000000000000000001111111000000000000000000000000000000000000000000000000000000000001
1000000000000000000000000100000000000000000000000000000000111000001110000000000000000000000000000000000000000000000000000000001
1000000000000000000000000100000000000000000000000000000001100000000011000000001111111000000000000000000000000000000000000000001
1000000000000000000000000100000000000000000000000000000011000000000001100000111000001110000000111110000111110000000000000000001
1000000000000000000000000100000000000000000000000000000010000000000000100001100000000011000001100011001100011000000000000000001
1000000011111000000000000100000000000000000000000000000110000011100000110001000000000001000001000001001000001000011000000000001
1000000001010000000000000100011000001110000111000011100100000111000000010011000000000001100001000001001000001000011000000000001
1000000010000000000000000100011000001010000101000010100100000010000000010010000000000000100001000001001000001000000000000000001
1000000011000000000000000100000000001110000111000011100100000100000000010010000000000000100001100011001100011000000000000000001
1000000011101000000000000100000000000000000000000000000100000011100000010010000000000000100000111110000111110000000000000000001
1000000000001000000000000100000000000000001111100000000100000010100000010010000000000000100000000000000000000000000000000000001
1000000000111000000000000100000000000000000111000000000100001111100000010010000000000000100000000000000000000000000000000000001
1000000000000000000000000100000000000000000010000000000100000000000000010011000000000001100000000000000000000000000000000000001
1000000000000000000000000100000000000000000100000000000110000000000000110001000000000001000000000000000000000000000000000000001
1000000000000000000000000100000000000000001110100000000010000000000000100001100000000011000000000000000000000000000000000000001
1000000000000000000000000100000000000000001000100000000011000000000001100000111000001110000000000000000000000000000000000000001
1000000000000000000000000100000000000000001111100000000001100000000011000000001111111000000000000000000000000000000000000000001
1000000000000000000000000100000000000000000000000000000000111000001110000000000000000000000000000000000000000000000000000000001
1000000000000000000000000100000000000000000000000000000000001111111000000000000000000000000000000000000000000000000000000000001
1000000000000000000000000100000000000000000000000000000000000000000000000000000000000000000000000000000000000000000000000000001
1000000000000000000000000100000000000000000000000000000000000000000000000000000000000000000000000000000000000000000000000000001
1000000000000000000000000100000000000000000000000000000000000000000000000000000000000000000000000000000000000000000000000000001
1000000000000000000000001000000000000000000000000000000000000000000000000000000000000000000000000000000000000000000000000000001
1000000000000000000000001000000000000000000000000000000000000000000000000000000000000000000000000000000000000000000000000000001
1000000000000000000000001000000000000000000000000000000000000000000000000000000000000000000000000000000000000000000000000000001
1000000000000000000000011000000000000000000000000000000000000000000000000000000000000000000000000000000000000000000000000000001
1000000000000000000000010000000000000000000000000000000000000000000000000000000000000000000000000000000000000000000000000000001
1000000000000000000000010000000000000000000000000000000000000000000000000000000000000000000000000000000000000000000000000000001
1000000000000000000000010000000000000000000000000000000000000000000000000000000000000000000000000000000000000000000000000000001
1000000000000000000000100000000000000000000000000000000000000000000000000000000000000000000000000000000000000000000000000000001
1000000000000000000000100000000000000000000000000000000000000000000000000000000000000000000000000000000000000000000000000000001
1000000000000000000000100000000000000000000000000000000000000000000000000000000000000000000000000000000000000000000000000000001
1000000000000000000001000000000000000000000000000000000000000000000000000000000000000000000000000000000000000000000000000000001
1000000000000000000001000000000000000000000000000000000000000000000000000000000000000000000000000000000000000000000000000000001
1000000000000000000010000000000000000000000000000000000000000000000000000000000000000000000000000000000000000000000000000000001
1000000000000000000010000000000000000000000000000000000000000000000000000000000000000000000000000000000000000000000000000000001
1000000000000000000010000000000000000000000000000000000000000000000000000000000000000000000000000111110001000000000000000000001
1000000000000000000100000000000000000000000000000000000000000000000000000000000000000000000000000100000001000000000000000000001
1000000000000000001100000000000000000000000000000000000000000000000000000000000000000000000000000111110111110000000000000000001
1000000000000000001000000000000111110000000001110111110001110000010000010111110111110111110001000100000100010001110000000000001
1000000000000000010000000000000010100000000001000100000000010010010010010100000000010100000001000101110111110011010000000000001
1000000000000000010000000000000100010000000111110100000000010101010101010100000101010100000111110100000001000101110000000000001
1000000000000000100000000000000100010111110001000100000010000101010101010100000111010100000100010100000001000100010000000000001
1000000000000000100000000000000111110010100111110100000100000111110111110100000101010100000111110000000000000101010000000000001
1000000000000001000000000000000001000100000001000100000100000001000001000100000100000100000001000000000000000001010000000000001
1000000000000010000000000000000111110110000111000100000111000111000111000100000111110100000001000000000000000001010000000000001
1000000000000100000000000000000000000111010000000000000000000000000000000000000000000000000000000000000000000000000000000000001
1000000000000100000000000000000000000000010000000000000000000000000000000000000000000000000000000000000000000000000000000000001
1000000000001000000000000000000000000001110000000000000000000000000000000000000000000000000000000000000000000000000000000000001
1000000000010000000000000000000000000000000000000000000000000000000000000000000000000000000000000000000000000000000000000000001
1000000000100000000000000000000000000000000000000000000000000000000000000000000000000000000000000000000000000000000000000000001
1000000001100000000000000000000000000000000000000000000000000000000000000000000000000000000000000000000101110000000000000000001
1000000010000000000000000000000000000000000000000000000000000000000000000000000000000000000000000000000110000000000000000000001
1000000110000000000000000000000000000000000000000000000000000000000000000000000000000000000000000000000111000000000000000000001
1000001000000000000000000000000111110000000001110000010001110000010111010000010111010111110111110001000101000000010000000000001
1000010000000000000000000000000011010000000001000010110000010010010111010010010111010000010100000001000111110010010000000000001
1001100000000000000000000000000001110000000111110111010000010101010101010101010101010101010100000111110101000000010000000000001
1000000000000000000000000000000011000111110001000001000010000101010100000101010100000111010100000100010111110010000000000000001
1000000000000000000000000000000101110010100111110111000100000111110111000111110111000101010100000111110000000101010000000000001
1000000000000000000000000000000100010100000001000101000100000001000001000001000001000100000100000001000000000101010000000000001
1000000000000000000000000000000111010110000111000111000111000111000111110111000111110111110100000001000000000111110000000000001
1000000000000000000000000000000000000111010000000000000000000000000000000000000000000000000000000000000000000000000000000000001
1000000000000000000000000000000000000000010000000000000000000000000000000000000000000000000000000000000000000000000000000000001
1000000000000000000000000000000000000001110000000000000000000000000000000000000000000000000000000000000000000000000000000000001
1000000000000000000000000000000000000000000000000000000000000000000000000000000000000000000000000000000000000000000000000000001
1000000000000000000000000000000111110000000001110111010111010000010111110111110000000000000000000000000000000000000000000000001
1000000000000000000000000000000001000000000001000111010001110010110100000010100000000000000000000000000000000000000000000000001
1000000000000000000000000000000001000000000111110101010001010111010111110111110000000000000000000000000000000000000000000000001
1000000000000000000000000000000001000111110001000100000010000001000100000001000000000000000000000000000000000000000000000000001
1000000000000000000000000000000101000010100111110111000100000111000101110101010000000000000000000000000000000000000000000000001
1000000000000000000000000000000100000100000001000001000100000101000100000101010000000000000000000000000000000000000000000000001
1000000000000000000000000000000100000110000111000111110100000111000100000101010000000000000000000000000000000000000000000000001
1000000000000000000000000000000000000111010000000000000000000000000000000000000000000000000000000000000000000000000000000000001
1000000000000000000000000000000000000000010000000000000000000000000000000000000000000000000000000000000000000000000000000000001
1000000000000000000000000000000000000001110000000000000000000000000000000000000000000000000000000000000000000000000000000000001
1000000000000000000000000000000000000001000000000000000000000000000000000000000000000000000000000000000000000000000000000000001
1000000000000000000000000000000000000000000000000000000000000000000000000000000000000000000000000000000000000000000000000000001
1000000000000000000000000000000000000000000000000000000000000000000000000000000000000000000000000000000000000000000000000000001
1000000000000000000000000000000000000000000000000000000000000000000000000000000000000000000000000000000000000000000000000000001
1000000000000000000000000000000000000000000000000000000000000000000000000000000000000000000000000000000000000000000000000000001
1000000000000000000000000000000000000000000000000000000000000000000000000000000000000000000000000000000000000000000000000000001
1000000000000000000000000000000000000000000000000000000000000000000000000000000000000000000000000000000000000000000000000000001
1111111111111111111111111111111111111111111111111111111111111111111111111111111111111111111111111111111111111111111111111111111
