P1
127 127
1111111111111111111111111111111111111111111111111111111111111111111111111111111111111111111111111111111111111111111111111111111
1000000000000000000000000000000000000000000000000000000000000000000000000000000000000000000000000000000000000000000000000000001
1000000000000000000000000000000000000000000000000000000000000111110000000000000000000000000000000000000000000000000000000000001
1000100101010100100010000000000000000000000000000000000000000011100000000000000000000000000000000000000000100101010100100010001
1001010010001001010101000000000000000000000000000000000000000001000000000000000000000000000000000000000001010010001001010101001
1000100101010100100010000000000000000000000000000000000000000010000000000000000000000000000000000000000000100101010100100010001
1000000000000000000000000000000000000000000000000000000000000111010000000000000000000000000000000000000000000000000000000000001
1000000000000000000000000000000000000000000000000000000000000100010000000000000000000000000000000000000000000000000000000000001
1000000000000000000000000000000000000000000000000000000000000111110000000000000000000000000000000000000000000000000000000000001
1000000000000000000000000000000000000000000000000000000000000000000000000000000000000000000000000000000000000000000000000000001
1000000000000111111111000000000000000000000000000000000000000000000000000000000000000000000000000000000000000000000000000000001
1000000000011000000000110000000000000000000000000000000000000000000000000000000000000000000000000000000000000000000000000000001
1000000001100000000000001100000000000000000000000000000000000000000000000000000000000000000000000000000000000000000000000000001
1000000011000000000000000110000000000000000000000000000000000000000000000000000000000000000000000000000000000000000000000000001
1000000110000000000000000011000000000000000000000000000000000000000000000000000000000000000000000000000000000000000000000000001
1000001100000000000000000001000000000000000000000000000000000000000000000000000000000000000000000000000000000000000000000000001
1000001000000000000000000000100000000000000000000000000000000000000000000000000000000000000000000000000000000000000000000000001
1000001000000011111000000000100000000000000000000000000000000000000000000000000000000000000000000000000000000000000000000000001
1000010000000001110000000000010000000000000000000000000000000000000000000000000000000000000000000000000000000000000000000000001
1000010000000000100000000000010000000000000000000000000000000000000000000000000000000000000000000000000000000000000111110000001
1000010000000001000000000000010000000000000000000000000000000000000000000000000000000000000000000000000000000000001100011000001
1000010000000011101000000000010000000000000000000000000000000000000000000000000000000000000000000000000000000000001000001000001
1000010000000010001000000000010000000000000000000000000000000000000000000000000000000000000000000000000000000000001000001000001
1000010000000011111000000000010000000000000000000000000000000000000000000000000000000000000000000011101000000000001000001000001
1000010000000000000000000000010000000000000000000000000000000000000000000000000000000000000000000011101000000000001100011000001
1000010000000000000000000000010000000000000000000000000000000000000000000000000000000000000000000010101000000000000111110000001
1000010000000000000000000000010000111000000000000000111011111010111010111010111011111011111000100010000000001000000000000000001
1000001000000000000000000000100001000000000000000000100010000011000010000010000000001010000000100011100001001000000100010000001
1000001000000000000000000000100010000000000000000011111011111011100011100011100010101010000011111000100000001000000110110000001
1000000100000000000000000001000010000011111010001000100010000010100010000010000011101010000010001011111001000000000100010000001
1000000110000000000000000011000010000001110011011011111010111011111011100011100010101010000011111000000010101000000110000000001
1000000011000000000000000110000010000000100010001000100010000010100010000010000010000010000000100000000010101000000111110000001
1000000001100000000000001100000010111001000011000011100010000011111011100011100011111010000000100000000011111000000000010000001
1000000000011000000000110000000000000011101011111000000000000000000000000000000000000000000000000000000000000000000000010000001
1000000000000111111111000000000000000010001000001000000000000000000000000000000000000000000000000000000000000000000000000000001
1000000000000000000000000000000000000011111000001000000000000000000000000000000000000000000000000000000000000000000000000000001
1000000000000000100000000000000000000000000000000000000000000000000000000000000000000000000000000000000000000000000001000000001
1000000000000000100000000000000000000000000000000000000000000000000000000000000000000000000000000000000000000000000001000000001
1000000000000000111111111111111111111111111111111111111111111111111111111111111111111111111111111111111111111111111111000000001
1000000000000000100000000000000000000000000000000000000000000000000000000000000000000000000000000000000000000000000001000000001
1000000000000000100000000000000000000000000000000000000000000000000000000000000000000000000000000000000000000000000001000000001
1000000000000000000000000000000000000000000000000000000000000000000000000000000000000000000000000000000000000000000000000000001
1000000000000000000000000000000000000000000000000000000000000000000000000000000000000000000000000000000000000000000000000000001
1000000000000000000000000000000000000000000000000000000000000000000000000011100011100000000000000000000000000000000000000000001
1000000000000000000000000000000000000000000000000000000000000000000000000000100000100000000000000000000000000000000000000000001
1000000000000000000000000000000000000000000000000000000000000000000000000010100010100000000000000000000000000000000000000000001
1000000000000011111000000000111011101000111011111011101011111011111000100010000010000000111000000000000000000000000000000000001
1000000000000001010000000000100000111000001010000011101000001010000000100010111010111001101000000000000000000000000000000000001
1000000000000010001000000011111000101000001011111010101010101010000011111010000010000010111000000000000000000000000000000000001
1000000000000010001010001000100001000001000010000010000011101010000010001011100011100010001000000000000000000000000000000000001
1000000000000011111011011011111010000010000010111011100010101010000011111000000000000010101000000000000000000000000000000000001
1000000000000000100010001000100010000010000010000000100010000010000000100000000000000000101000000000000000000000000000000000001
1000000000000011111011000011100010000011100010000011111011111010000000100000000000000000101000000000000000000000000000000000001
1000000000000000000011111000000000000000000000000000000000000000000000000000000000000000000000000000000000000000000000000000001
1000000000000000000000001000000000000000000000000000000000000000000000000000000000000000000000000000000000000000000000000000001
1000000000000000000000001000000000000000000000000000000000000000000000000000000000000000000000000000000000000000000000000000001
1000000000000000000000000000000000000000000000000000000000000000000000000000000000000000000000000000000000000000000000000000001
1000000000000000000000000000000000000000000000000000000000000000000000000000000000000000000000000000000000000000000000000000001
1000000000000000000000000000000000000000000000000000000000000000000000000000001000000000000000000000000000000000000000000000001
1000000000000000000000000000000000000000000000000000000000000000000000000001011000000000000000000000000000000000000000000000001
1000000000000000000000000000000000000000000000000000000000000000000000000011101000000000000000000000000000000000000000000000001
1000000000000011111000000000111011111000111011101010111011111011111000100000100000001000000000000000000000000000000000000000001
1000000000000001101000000000100010000000001000111010000000001010000000100011100001001000000000000000000000000000000000000000001
1000000000000000111000000011111010000000001000101011100010101010000011111010100000001000000000000000000000000000000000000000001
1000000000000001100010001000100010000001000001000010000011101010000010001011100001000000000000000000000000000000000000000000001
1000000000000010111011011011111010000010000010000011100010101010000011111000000010101000000000000000000000000000000000000000001
1000000000000010001010001000100010000010000010000010000010000010000000100000000010101000000000000000000000000000000000000000001
1000000000000011101011000011100010000011100010000011100011111010000000100000000011111000000000000000000000000000000000000000001
1000000000000000000011111000000000000000000000000000000000000000000000000000000000000000000000000000000000000000000000000000001
1000000000000000000000001000000000000000000000000000000000000000000000000000000000000000000000000000000000000000000000000000001
1000000000000000000000001000000000000000000000000000000000000000000000000000000000000000000000000000000000000000000000000000001
1000000000000000000000000000000000000000000000000000000000000000000000000000000000000000000000000000000000000000000000000000001
1000000000000000000000000000000000000000000000000000000000000000000000000000000000000000000000000000000000000000000000000000001
1000000000000000000000000000000000000000000000000000000000000000000000000000000000000000000000000000000000000000000000000000001
1000000000000000000000000000000000000000000000000000000000000000000000000000000000000000000000000000000000000000000000000000001
1000000000000000000000000000000000000000000000000000000000000000000000000000000011100010111000000000000000000000000000000000001
1000000000000000000000000000000000000000000000000000000000000000000000000000000000100010000000000000000000000000000000000000001
1000000000000000000000000000000000000000000000000000000000000000000000000000000010100011100000000000000000000000000000000000001
1000000000000011111000000000111011101000111000001011101011101011111011111000100010000010000000111000000000000000000000000000001
1000000000000001010000000000100011101000001001001000111000111000001010000000100010111011100001101000000000000000000000000000001
1000000000000010001000000011111010101000001010101000101000101010101010000011111010000010000010111000000000000000000000000000001
1000000000000010001011111000100010000001000010101001000001000011101010000010001011100011100010001000000000000000000000000000001
1000000000000011111001110011111011100010000011111010000010000010101010000011111000000000000010101000000000000000000000000000001
1000000000000000100000100000100000100010000000100010000010000010000010000000100000000000000000101000000000000000000000000000001
1000000000000011111001000011100011111011100011100010000010000011111010000000100000000000000000101000000000000000000000000000001
1000000000000000000011101000000000000000000000000000000000000000000000000000000000000000000000000000000000000000000000000000001
1000000000000000000010001000000000000000000000000000000000000000000000000000000000000000000000000000000000000000000000000000001
1000000000000000000011111000000000000000000000000000000000000000000000000000000000000000000000000000000000000000000000000000001
1000000000000000000000000000000000000000000000000000000000000000000000000000000000000000000000000000000000000000000000000000001
1000000000000000000000000000000000000000000000000000000000000000000000000000000000000000000000000000000000000000000000000000001
1000000000000000000000000000000000000000000000000000000000000000000000000000000000001000000000000000000000000000000000000000001
1000000000000000000000000000000000000000000000000000000000000000000000000000000001011000000000000000000000000000000000000000001
1000000000000000000000000000000000000000000000000000000000000000000000000000000011101000000000000000000000000000000000000000001
1000000000000011111000000000111000001000111011111011101010111011111011111000100000100000001000000000000000000000000000000000001
1000000000000001101000000000100001011000001010000000111011000000001010000000100011100001001000000000000000000000000000000000001
1000000000000000111000000011111011101000001011111000101011100010101010000011111010100000001000000000000000000000000000000000001
1000000000000001100011111000100000100001000010000001000010100011101010000010001011100001000000000000000000000000000000000000001
1000000000000010111001110011111011100010000010111010000011111010101010000011111000000010101000000000000000000000000000000000001
1000000000000010001000100000100010100010000010000010000010100010000010000000100000000010101000000000000000000000000000000000001
1000000000000011101001000011100011100011100010000010000011111011111010000000100000000011111000000000000000000000000000000000001
1000000000000000000011101000000000000000000000000000000000000000000000000000000000000000000000000000000000000000000000000000001
1000000000000000000010001000000000000000000000000000000000000000000000000000000000000000000000000000000000000000000000000000001
1000000000000000000011111000000000000000000000000000000000000000000000000000000000000000000000000000000000000000000000000000001
1000000000000000000000000000000000000000000000000000000000000000000000000000000000000000000000000000000000000000000000000000001
1000000000000000000000000000000000000000000000000000000000000000000000000000000000000000000000000000000000000000000000000000001
1000000000000000000000000000000000000000000000000000000000000000000000000000000000000000000000000000000000000000000000000000001
1000000000000000000000000000000000000000000000000000000000000000000000000000000000000000000011111011111000000000000000000000001
1000000000000000000000000000000000000000000000000000000000000000000000000000000000000000000010000010000000000000000000000000001
1000000000000000000000000000000000000000000000000000000000000000000000000000000000000000000010000010000000000000000000000000001
1000000000000000111000000000000000111011111000111010111000001011101011101011111011111000100010000010000000001000000000000000001
1000000000000001000000000000000000100010000000001010000001001011101000111000001010000000100010000010000001001000000000000000001
1000000000000010000000000000000011111010000000001011100010101010101000101010101010000011111010000010000000001000000000000000001
1000000000000010000011111011111000100010000001000010000010101010000001000011101010000010001010000010000001000000000000000000001
1000000000000010000001110001010011111010000010000011100011111011100010000010101010000011111000000000000010101000000000000000001
1000000000000010000000100010000000100010000010000010000000100000100010000010000010000000100000000000000010101000000000000000001
1000000000000010111001000011000011100010000011100011100011100011111010000011111010000000100000000000000011111000000000000000001
1000000000000000000011101011101000000000000000000000000000000000000000000000000000000000000000000000000000000000000000000000001
1000000000000000000010001000001000000000000000000000000000000000000000000000000000000000000000000000000000000000000000000000001
1000000000000000000011111000111000000000000000000000000000000000000000000000000000000000000000000000000000000000000000000000001
1000000000000000000000000000000000000000000000000000000000000000000000000000000000000000000000000000000000000000000000000000001
1000000000000000000000000000000000000000000000000000000000000000000000000000000000000000000000000000000000000000000000000000001
1000000000000000000000000000000000000000000000000000000000000000000000000000000000000000000000000000000000000000000000000000001
1000000000000000000000000000000000000000000000000000000000000000000000000000000000000000000000000000000000000000000000000000001
1000000000000000000000000000000000000000000000000000000000000000000000000000000000000000000000000000000000000000000000000000001
1000000000000000000000000000000000000000000000000000000000000000000000000000000000000000000000000000000000000000000000000000001
1000000000000000000000000000000000000000000000000000000000000000000000000000000000000000000000000000000000000000000000000000001
1111111111111111111111111111111111111111111111111111111111111111111111111111111111111111111111111111111111111111111111111111111
