P1
127 127
1111111111111111111111111111111111111111111111111111111111111111111111111111111111111111111111111111111111111111111111111111111
1000000000000000000000000000000000000000000000000000000000000000000000000000000000000000000000000000000000000000000000000000001
1000000000000000000000000000000000000000000000000000000000000111110000000000000000000000000000000000000000000000000000000000001
1000100101010100100101000000000000000000000000000000000000000011100000000000000000000000000000000000000000100101010100100101001
1001010010001001010010000000000000000000000000000000000000000001000000000000000000000000000000000000000001010010001001010010001
1000100101010100100101000000000000000000000000000000000000000010000000000000000000000000000000000000000000100101010100100101001
1000000000000000000000000000000000000000000000000000000000000111010000000000000000000000000000000000000000000000000000000000001
1000000000000000000000000000000000000000000000000000000000000100010000000000000000000000000000000000000000000000000000000000001
1000000000000000000000000000000000000000000000000000000000000111110000000000000000000000000000000000000000000000000000000000001
1000000000000000000000000000000000000000000000000000000000000000000000000000000000000000000000000000000000000000000000000000001
1000000000000000000000000000000000000000000000000000000000000000000000000000000000000000000000000000000000000000000000000000001
1000000000000000000000000000000000000000000000000000000000000000000000000000000000000000000000000000000000000000000000000000001
1000000000000000000000000000000000000000000000000000000000000000000000000000000000000000000000000000000000000000000000000000001
1000000000000000000111111111110000000000000000000000000000000000000000000000000000000000000000000000000000000000000000000000001
1000000000011111011100000000011100000000000000000000000000000000000000000000000000000000000000000000000000000000000000000000001
1000000000001110010000000000000110000000000000000000000000000000000000000000000000000000000000000000000000000000000000000000001
1000000000000100000000000000000001100000000000000000000000000000000000000000000000000000000000000000000000000000000000000000001
1000000000001000000000000000000000110000000000000000000000000000000000000000000000000000000000000000000000000000000000000000001
1000000000011101000000000000000000011000000000000000000000000000000000000000000000000000000000000000000000000000000000000000001
1000000000010001000000000000000000001000000000000000000000000011111000111011100011111000001000100011101000001011111000111000001
1000000000011111000000000000000000001100000000000000000000000001000000100000100010000001011000100011101001001010000001100000001
1000000000000000000000000000000000000100000000000000000000000000111011111010100011111011101011111010101010101010000000101000001
1000000000000000000000000000000000000010000000000000000000000001101000100010000010000000100010001010000010101010000001101000001
1000000000000000000000000000000000000010000000000000000000000000101011111010111010111011100011111011100011111010000011111000001
1000000001000000000001111100000000000001000000000000000000000000101000100010000010000010100000100000100000100010000010101000001
1000000011100000000000101000000000000001000000000000000000000000101011100011100010000011100000100011111011100010000011111000001
1000000111110000000001000000000000000001000000000000000000000000000000000000000000000000000000000000000000000000000000000000001
1000000111110000000001100000000000000001000000000000000000000000000000000000000000000000000000000000000000000000000000000000001
1000000001000000000001110100000000000001000000000000000000000000000000000000000000000000000011111111111000000000000000000000001
1000000001000000000000000100000000000001000000000000000000000000000000000000000000000000001110000000001110000000000000000000001
1000000001000000000000011100000000000001000000000000000000000000000000000000000000010001011000000000000011100000000000000000001
1000000001000000000000000000000000000001000000000000000000000000000000000000000000011011000000000000000000110000000000000000001
1000000001000000000000000000000000000001000000000000000000000000000000000000000000010001000000000000000000011000000000000000001
1000000001000000000000000000000000000001000000000000000000000000000000000000000000011000000000000000000000001100000000000000001
1000000001000000000000000000000000000001000000000000000000000000000000000000000000011111000000000000000000000100000000000000001
1000000000100000000000000000000000000010000000000000000000000000000000000000000000000001000000000000000000000110000000000000001
1000000000100000000000000000000000000010000000000000000000000000000000000000000000000001000000000000000000000011000000000000001
1000000000010000000000000000000000000100000000000000000000000000000000000000000000000000000000111110000000000001000000000000001
1000000000011000000000000000000000001100000000000000000000000000000000000000000000000000000000011100000000000001000000000000001
1000000000001000000000000000000000001000000000000000000000000000000000000000000000000000000000001000000000000001000000000000001
1000000000001100000000000000000000011000000000000000000000000000000000000000000000010000000000010000000000000001000000000000001
1000000000000110000000000000000000110000000000000000000000000000000000000000000000111000000000111010000000000001000000000000001
1000000000000011000000000000000001100000000000000000000000000000000000000000000001111100000000100010000000000001000000000000001
1000000000000000110000000000000110000000000000000000000000000000000000000000000001111100000000111110000000000001000000000000001
1000000000000000011100000000011100000000000000000000000000000000000000000000000000010000000000000000000000000001000000000000001
1000000000000000000111111111110000000000000000000000000000000000000000000000000000010000000000000000000000000001000000000000001
1000000000000000000000000000000000000000000000000000000000000000000000000000000000011000000000000000000000000011000000000000001
1000000000000000000000000000000000000000000000000000000000000000000000000000000000001100000000000000000000000110000000000000001
1000111110001110111110111110111010111010000010000010111000000010001110000000000000000100000000000000000000000100000000000000001
1000010000001000100000100000111010111010010110010010001000010110011000000000000000000110000000000000000000001100000000000000001
1000001110111110111110100000101010101010111010101010101000111010001010000000000000000011000000000000000000011000000000000000001
1000011010001000100000100000100000100000001000101010100000001000011010000000000000000001100000000000000000110000000000000000001
1000001010111110101110100000111000111000111000111110101110111000111110000000000000000000111000000000000011100000000000000000001
1000001010001000100000100000001000001000101000001000100000101000101010000000000000000000001110000000001110000000000000000000001
1000001010111000100000100000111110111110111000111000111000111000111110000000000000000000000011111111111000000000000000000000001
1000000000000000000000000000000000000000000000000000000000000000000000000000000000000000000000000000000000000000000000000000001
1000000000000000000000000000000000000000000000000000000000000000000000000000000000000000000000000000000000000000000000000000001
1000111110001110111110111110000000000000000000000000000000000000000000000000000000000000000000000000000000000000000000000000001
1000010000001000100000110000000000000000000000000000000000000000000000000000000000000000000000000000000000000000000000000000001
1000001110111110100000111010000000000000000000000000000000000000000000000000000000000000000000000000000000000000000000000000001
1000011010001000100000111010000000000000000000000000000000000000000000000000000000000000000000000000000000000000000000000000001
1000001010111110100000101110000000000000000000000000000000000000000000000000000000000000000000000000000000000000000000000000001
1000001010001000100000101010000000000000000000000000000000000000000000000000000000000000000000000000000000000000000000000000001
1000001010111000100000101010000000000000000000000000000000000000000000000000000000000000000000000000000000000000000000000000001
1000000000000000000000000000000000000000000000000000000000000000000000000000000000000000000000000000000000000000000000000000001
1000000000000000000000000000000000000000000000000000000000000000000000000000000000000000000000000000000000000000000000000000001
1000000000000000000000000000000000000000000000000000000000000000000000000000000000000000000000000000000000000000000000000000001
1000000000000000000000000000000000000000000000000000000000000000000000000000000000000000000000000000000000000000000000000000001
1000000000000000000000000000000000000000000000000000000000000000000000000000000000000000000011111111111000000000000000000000001
1000000000000000000000000000000000000000000000000000000000000000000000000000000000000000001110000000001110000000000000000000001
1000000000000000000000000000000000000000000000000000000000000000000000000000000000000000011000000000000011000000000000000000001
1000000000000000000000000000000000000000000000000000000000000000000000000000000000000001110000000000000001110000000000000000001
1000000000000000000000000000000000000000000000000000000000000000000000000000000000000011000000000000000000011000000000000000001
1000000000000000000000000000000000000000000000000000000000000000000000000000000000000010000000000000000000001000000000000000001
1000000000000000000000000000000000000000000000000000000000000000000000000000000000000110000000000000000000001100000000000000001
1000000000000000000000000000000000000000000000000000000000000000000000000000000000000100000000000000000000000100000000000000001
1000000000000000000000000000000000000000000000000000000000000000000000000000000000001100000000011111000000000110000000000000001
1000000000000000000000000000000111110001110101110000010111110000010101110001110000000000000000001110000000000010000000000000001
1000000000000000000000000000000010000001000110000010110100000010110100000011000000000000000000000100000000000010000000000000001
1000000000000000000000000000000001110111110111000111010100000111010111000001010000001000000000001000000000000010000000000000001
1000000000000000000000000000000011010001000101000001000100000001000100000011010000011100000000011101000000000010000000000000001
1000000000000000000000000000000001010111110111110111000100000111000111000111110000111110000000010001000000000010000000000000001
1000000000000000000000000000000001010001000101000101000100000101000100000101010000111110000000011111000000000010000000000000001
1000000000000000000000000000000001010111000111110111000100000111000111000111110000001000000000000000000000000010000000000000001
1000000000000000000000000000000000000000000000000000000000000000000000000000000000001100000000000000000000000110000000000000001
1000000000000000000000000000000000000000000000000000000000000000000000000000000000000100000000000000000000000100000000000000001
1000000000000000000000000000000000000000000000000000000000000000000000000000000000000110000000000000000000001100000000000000001
1000000000000000000000000000000000000000000000000000000000000000000000000000000000000010000000000000000000001000000000000000001
1000000000000000000000000000000000000000000000000000000000000000000000000000000000000011000000000000000000011000000000000000001
1000000000000000000000000000000000000000000000000000000000000000000000000000000000000001110000000000000001110000000000000000001
1000000000000000000000000000000000000000000000000000000000000000000000000000000000000000011000000000000011000000000000000000001
1000000000000000000000000000000000000000000000000000000000000000000000000000000000000000001110000000001110000000000000000000001
1000000000000000000000000000000000000000000000000000000000000000000000000000000000000000000011111111111000000000000000000000001
1000000000000000000000000000000000000000000000000000000000000000000000000000000000000000000000000000000000000000000000000000001
1000000000000000000000000000000000000000000000000000000000000000000000000000000000000000000000000000000000000000000000000000001
1000000000000000000000000000000000000000000000000000000000000000000000000000000000000000000000000000000000000000000000000000001
1000000000000000000000000000000000000000000000000000000000000000000000000000000000000000000000000000000000000000000000000000001
1000000000000000101110000000001110101110111010111010001000001000001000001000001000001000001000111110000000000000000000000000001
1000000000000000111010000000001000100000111010111010001000001000001000001000001000001000001000110000000000000000000000000000001
1000000000000000111110000000111110111000101010101010111110111110111110111110111110111110111110111010000000000000000000000000001
1000000000000000110010111110001000100000100000100000100010100010100010100010100010100010100010111010000000000000000000000000001
1000000000000000100010011100111110111000111000111000111110111110111110111110111110111110111110101110000000000000000000000000001
1000000000000000000010001000001000100000001000001000001000001000001000001000001000001000001000101010000000000000000000000000001
1000000000000000111110010000111000111000111110111110001000001000001000001000001000001000001000101010000000000000000000000000001
1000000000000000000000111010000000000000000000000000000000000000000000000000000000000000000000000000000000000000000000000000001
1000000000000000000000100010000000000000000000000000000000000000000000000000000000000000000000000000000000000000000000000000001
1000000000000000000000111110000000000000000000000000000000000000000000000000000000000000000000000000000000000000000000000000001
1000000000000000000000000000000000000000000000000000000000000000000000000000000000000000000000000000000000000000000000000000001
1000000000000000000000000000000000000000000000000000000000000000000000000000000000000000000000000000000000000000000000000000001
1000000000000000101110000000001110101110111010111010001000001000001000001000001000001000001000111110000000000000000000000000001
1000000000000000111010000000001000100000111010111010001000001000001000001000001000001000001000110000000000000000000000000000001
1000000000000000111110000000111110111000101010101010111110111110111110111110111110111110111110111010000000000000000000000000001
1000000000000000110010111110001000100000100000100000100010100010100010100010100010100010100010111010000000000000000000000000001
1000000000000000100010010100111110111000111000111000111110111110111110111110111110111110111110101110000000000000000000000000001
1000000000000000000010100000001000100000001000001000001000001000001000001000001000001000001000101010000000000000000000000000001
1000000000000000111110110000111000111000111110111110001000001000001000001000001000001000001000101010000000000000000000000000001
1000000000000000000000111010000000000000000000000000000000000000000000000000000000000000000000000000000000000000000000000000001
1000000000000000000000000010000000000000000000000000000000000000000000000000000000000000000000000000000000000000000000000000001
1000000000000000000000001110000000000000000000000000000000000000000000000000000000000000000000000000000000000000000000000000001
1000000000000000000000000000000000000000000000000000000000000000000000000000000000000000000000000000000000000000000000000000001
1000000000000000000000000000000000000000000000000000000000000000000000000000000000000000000000000000000000000000000000000000001
1000000000000000000000000000000000000000000000000000000000000000000000000000000000000000000000000000000000000000000000000000001
1000000000000000000000000000000000000000000000000000000000000000000000000000000000000000000000000000000000000000000000000000001
1000000000000000000000000000000000000000000000000000000000000000000000000000000000000000000000000000000000000000000000000000001
1000000000000000000000000000000000000000000000000000000000000000000000000000000000000000000000000000000000000000000000000000001
1000000000000000000000000000000000000000000000000000000000000000000000000000000000000000000000000000000000000000000000000000001
1111111111111111111111111111111111111111111111111111111111111111111111111111111111111111111111111111111111111111111111111111111
