P1
127 127
1111111111111111111111111111111111111111111111111111111111111111111111111111111111111111111111111111111111111111111111111111111
1000000000000000000000000000000000000000000000000000000000000000000000000000000000000000000000000000000000000000000000000000001
1000000000000000000000000000000000000000000000000000000000000111110000000000000000000000000000000000000000000000000000000000001
1000100101010101010010000000000000000000000000000000000000000011100000000000000000000000000000000000000000100101010101010010001
1001010010001000100101000000000000000000000000000000000000000001000000000000000000000000000000000000000001010010001000100101001
1000100101010101010010000000000000000000000000000000000000000010000000000000000000000000000000000000000000100101010101010010001
1000000000000000000000000000000000000000000000000000000000000111010000000000000000000000000000000000000000000000000000000000001
1000000000000000000000000000000000000000000000000000000000000100010000000000000000000000000000000000000000000000000000000000001
1000000000000000000000000000000000000000000000000000000000000111110000000000000000000000000000000000000000000000000000000000001
1000000000000000000000000000000000000000000000000000000000000000000000000000000000000000000000000000000000000000000000000000001
1000000000000000000000000000000000000000000000000000000000000000000000000000000000000000000000000000000000000000000000000000001
1000000000000000000000000000000000000000000000000000000000000000000000000000000000000000000000000000000000000000000000000000001
1000000000000000000000000000000000000000000000000000000000000000000000000000000000000000000000000000000000000000000000000000001
1000000000000000000000000000000000000000000000000000000000000000000000000000000000000000000000000000000000000000000000000000001
1000000000000000000000000000000000000000000000000000000000000000000000000000000000000000000000000000000000000000000000000000001
1000000000000000000000000000000000000000000000000000000000000010101010101000000000000000000000000000000000000000000000000000001
1000000000000000000000000000000000000000000000000000000000000011111011111000000010111010111010111010111000001000000000000000001
1000000000000000000000000000000000000000000000000000000000000010101010101000000011000011000010000011000001001000000000000000001
1000000000000000000000000000000000000000000000000000000000000001100001100000000011100011100011100011100000001000000000000000001
1000000000000000000000000000000000000000000000000000000000000011101011101000000010100010100010000010100001000000000000000000001
1000000000000000000000000000000000000000000000000000000000000000101000101000000011111011111011100011111010101000000000000000001
1000000000000000000000000000000000000000000000000000000000000011101011101000000010100010100010000010100010101000000000000000001
1000000000000000000000000000000000000000000000000000000000000000000000000000000011111011111011100011111011111000000000000000001
1000000000000000000000000000000000000000000000000000000000000000000000000000000000000000000000000000000000000000000000000000001
1000000000000000000000000000000000000000000000000000000000000011100011100000000000000000000000000000000000000000000000000000001
1000000000000000000000000000000000000001000000000000000000000001110001110000000000000001111100000000000000000000000000000000001
1000000000000000000000000000000000000001000000000000000000000000101000101000000000000000010000000000000000000000000000000000001
1000000000000000000000000000000000000010100000000000000000000001101001101000000000000000010000000000000000000000000000000000001
1000000000000000000000000000000000000010100000000000000000000011111011111000000000000000010000000000000000000000000000000000001
1000000000000000000000000000000000000010100000000000000000000000001000001000000000000000010000000000000000000000000000000000001
1000000000000000000000000000000000000010010000000000000000000011111011111000000000000000010000000000000000000000000000000000001
1000000000000000000000000000000000000100010000000000000000000000000000000000000000000000010000000000000000000000000000000000001
1000000000000000000000000000000000000100010000000000000000000000000000000000000000000000010000000000000000000000000000000000001
1000000000000000000000000000010000000100010000000000000000000010001000000000000000000000010000000000000000000000000000000000001
1000000000000000000000000000010000000100001000000000000000000011001000000000000000000000010000000000000000000000000000000000001
1000000000000000000000000000101000001000001000000000000000000011111000000000000000000000010000000000000000000000000000000000001
1000000000000000000000000000101000001000001000000000000000000000001000000000000000000000010000000000000000000011000000000000001
1000000000000000000000000000101000001000000100000000000000000010001000000000000000000000010000000000000000000011000000000000001
1000000000000000000000000000101000010000000100000000000000000010000000000000000000000000010000000000000000000000110000000000001
1000000000000000000000000001000100010000000100000000000000000010111000000000000000000000010000000000000000000000110000000000001
1000000000000000000000000001000100010000000010000000000000000000000000000000000000000000010000000000000000000000000000000000001
1000000000000000000000000001000100010000000010000000000000000000000000000000000000000000010000000000000000011111000000000000001
1000000001010000000000000010000010100000000010000000000000000000101011100011100000000000010000000000000000001001000000000000001
1000000001110000000000000010000010100000000001000000000000000001111001110001110000000000010000000000000000011101000000000000001
1000000001010000000000000010000010100000000001000000000000000011101000101000101000000000010000000000000000001000001100000000001
1000000001000000000000000010000010100000000001000000000000000001000001101001101000000000010000000000000000011100001100000000001
1000000001111100000000000100000001000000000001000000000000000000001011111011111000000000010000000000000000000100000000000000001
1000000001000100000000000100000001000000000000100000000000000000001000001000001000000000010000000000000000000111000000000000001
1000000001011100000000000100000000000000000000100000111110000000001011111011111000000000010000000000000000000000000000000000001
1000000000000000000000001000000000000000000000100000111000000000000000000000000000000000010000000000000000000000000000000000001
1000000000000000000000001000000000000000000000010000101110000000000000000000000000000000010000000000000000000000000000000000001
1000010000010000010000001000000000000000000000010000010000000000000000000000000000000000010000000000000000000000000000000000001
1000111000111000111000010000000000000000000000010000111000000000000000000000000000000000010000000000000000000000000000000000001
1000010000010000010000010000000000000000000000001000101000000000000000000000000000000000010000000000000000000000000000000000001
1001111101111101111100010000000000000000000000001000101110000000000000000000000000000000010000000000000000000000000011000000001
1000010000010000010000010000000000000000000000001000000000000000000000000000000000000000010000000000000000000000000011000000001
1000010000010000010000100000000000000000000000000100000000000000000000000000000000000000010000000000000000000000000000000000001
1000101000101000101000100000000000000000000000000100000000000000000000000000000000000000010000000000000000000000000000000000001
1000101000101000101001000000000000000000111000000100000000000000000000000000000000000000010000000000000000000000000000000000001
1000101000101000101010000000000000000000011000000010011000000110000001100000011000000110010001100000011000000110000000000000001
1011111111111111111100000000000000000000001000000011100110011001100110011001100110011001100110011001100110011001100000000000001
1000000000000000000000000000000000000000010000000010000001100000011000000110000001100000011000000110000001100000000000000000001
1000000000000000000000000000000000000000111110000010000000000000000000000000000000000000000000000100000000000000000000000000001
1000000000000000000000000000000000000000001000000001000000000000000000000000000000000000000000000100000000000000000000000000001
1000000000000000000000000000000000000000001110000001000000100000000000000000000000000000000000000100000000000000000000000000001
1000000000010111011100011100000000000000000000000001000001100000000000000000000000000000000000000100000000000000000000000000001
1000000000011010001110001110000000000000000000000000100011100000000000000000000000000000000000000100000000000000000000000000001
1000000000010001000101000101000000000000000000000000100001000000000000000000000000000000000000000100000000000000000000000000001
1000000000001001001101001101000000000000000000000000100010111000000000000000000000000000000000000100000000000000000000110000001
1000000000000101011111011111000000000000000000000000010010100000000000000000000000000000000000000100000000000000000000110000001
1000000000000101000001000001000000000000000000000000010010100000000010100010100011100000000000000100000000000000000000000000001
1000000000011111011111011111000000000000000000000000010000000000000011100011100001110000000000000100000000000000000000000000001
1000000000000000000000000000000000000000000000000000001000000000000010101010101000101000000000000100000000000000000000000000001
1000000000000000000000000000000000000000000000000000001000000000000000001000001001101000000000000100000000000000000000000000001
1000000000011111011111011100011100011100000000000000001000000000000011101011101011111000000000000100000000000000000000000000001
1000000000001100001100001110001110001110000000000000001000000000000000101000101000001000000000000100000000000000000000000000001
1000000000011101011101000101000101000101000000000000000100000000000011111011111011111000000000000100000000000000000000000000001
1000000000010101010101001101001101001101000000000000000100000000000000000000000000000000000000000100000000000000000000000000001
1000000000011101011101011111011111011111000000000000000100000000000000000000000000000000000000000100000000000000000000000000001
1000000000010100010100000001000001000001000000000000000010000000000011111000000000000000000000000100000000000000000000000000001
1000000000010111010111011111011111011111000000000000000010000000000011110000000000000000000000000100000000000000000000000000001
1000000000000000000000000000000000000000000000000000000010000000000011111000000000000000000000000100000000000000000000000000001
1000000000000000000000000000000000000000000000000000000001000000000001001000000000000000000000000100000000000000000000000000001
1000000000010001010001011100011100011100000000000000000001000000000000111000000000000000000000000100000000000000000000000000001
1000000000011011011011001110001110001110000000000000000001000000000000101000000000000000000000000100000000000000000000000000001
1000000000011101011101000101000101000101000000000000000000100000000000101000000000000000000000000100000000000000000000000000001
1000000000011100011100001101001101001101000000000000000000100000000000000000000000000000000000000100000000000000000000001100001
1000000000010111010111011111011111011111000000000000000000100000000000000000000000000000000000000100000000000000000000001100001
1000000000010101010101000001000001000001000000000000000000100000000010001000000000000000000000000100000000000000000000000000001
1000000000010111010111011111011111011111000000000000000000010000000011011000000000000000000000000100000000000000000000000000001
1000000000000000000000000000000000000000000000000000000000010000000011111000000000000000000000000100000000000000000000000000001
1000000000000000000000000000000000000000000000000000000000010000000001100000000000000000000000000100000000000000000000000000001
1000000000010001011100000000000000000000000000000000000000001000000011101000000000000000000000000100000000000000000000000000001
1000000000011011001110000000000000000000000000000000000000001000000000001000000000000000000000000100000000000000000000000000001
1000000000011101000101000000000000000000000000000000000000000100000000111000000000000000000000000100000000000000000000000000001
1000000000011100001101000000000000000000000000000000000000000100000000000000000000000000000000000100000000000000000000000000001
1000000000010111011111000000000000000000000000000000000000000100000000000000000000000000000000000100000000000000000000000000001
1000000000010101000001000000000000000000000000000000000000000010000000000000000000000000000000000100000000000000000000000000001
1000000000010111011111000000000000000000000000000000000000000010000000000000000000000000000000000100000000000000000000000000001
1000000000000000000000000000000000000000000000000000000000000010000000000000000000000000000000000100000000000000000000000000001
1000000000000000000000000000000000000000000000000000000000000001000000000000000000000000000000000100000000000000000000000000001
1000000000000000000000000000000000000000000000000000000000000001000000000000000000000000000000000100000000000000000000000000001
1000000000000000000000000000000000000000000000000000000000000001000000000000000000000000000000000100000000000000000000000000001
1000000000000000000000000000000000000000000000000000000000000000100000000000000000000000000000000100000000000000000000000000001
1000000000000000000000000000000000000000000000000000000000000000100000000000000000000000000000011111000000000000000000000000001
1000000000000000000000000000000000000000000000000000000000000000000000000000000000000000000000000000000000000000000000000000001
1000000000000000000000000000000000000000000000000000000000000000000000000000000000000111110111110001000001000001000000010000001
1000000000000000000000000000000000000000000000000000000000000000000000000000000000000100000100000001000001000001000010010000001
1000000000000000000000000000000000000000000000000000000000000000000000000000000000000100000100000111110111110111110000010000001
1000000000000000000000000000000000000000000000000000000000000000000000011100000000000100000100000100010100010100010010000000001
1000000000000000000000000000000000000000000000000000000000000000000000000100000000000100000100000111110111110111110101010000001
1000000000000000000000000000000000000000000000000000000000000000000000010100000000000100000100000001000001000001000101010000001
1000011111000111000001000111011101000001011101010111000001000111000111010000000000000100000100000001000001000001000111110000001
1000001001000100001001000001000111001001000111011000001001000100001100010111000000000000000000000000000000000000000000000000001
1000011101011111010101000001000101010101000101011100000001010101000101010000000000000000000000000000000000000000000000000000001
1000001000000100010101001000001000010101001000010100001000010001001101011100000000000000000000000000000000000000000000000000001
1000011100011111011111010000010000011111010000011111010101010101011111000000000000000000000000000000000000000000000000000000001
1000000100000100000100010000010000000100010000010100010101000100010101000000000000000000000000000000000000000000000000000000001
1000000111011100011100011100010000011100010000011111011111011100011111000000000000000000000000000000000000000000000000000000001
1000000000000000000000000000000000000000000000000000000000000000000000000000000000000000000000000000000000000000000000000000001
1000000000000000000000000000000000000000000000000000000000000000000000000000000000000000000000000000000000000000000000000000001
1000000000000000000000000000000000000000000000000000000000000000000000000000000000000000000000000000000000000000000000000000001
1000000000000000000000000000000000000000000000000000000000000000000000000000000000000000000000000000000000000000000000000000001
1000000000000000000000000000000000000000000000000000000000000000000000000000000000000000000000000000000000000000000000000000001
1000000000000000000000000000000000000000000000000000000000000000000000000000000000000000000000000000000000000000000000000000001
1000000000000000000000000000000000000000000000000000000000000000000000000000000000000000000000000000000000000000000000000000001
1111111111111111111111111111111111111111111111111111111111111111111111111111111111111111111111111111111111111111111111111111111
