P1
127 127
1111111111111111111111111111111111111111111111111111111111111111111111111111111111111111111111111111111111111111111111111111111
1000000000000000000000000000000000000000000000000000000000000000000000000000000000000000000000000000000000000000000000000000001
1000000000000000000000000000000000000000000000000000000000010111000000000000000000000000000000000000000000000000000000000000001
1000100101010101010101000000000000000000000000000000000000011100000000000000000000000000000000000000000000100101010101010101001
1001010010001000100010000000000000111100000000000000000000010100000000000000000000000000000000000000000001010010001000100010001
1000100101010101010101000000000111000011000000000000000000001000000000000000000000000000000000000000000000100101010101010101001
1000000000000000000000000000001000000000100000000000000000010001000000000000000000000000000000000000000000000000000000000000001
1000000000000000000000000000010000000000010000000000000000010001000001111100000000000000000000000000000000000000000000000000001
1000000000000000000000000000010000000100001000000000000000011101000010000010000000000000000000000011111000000000000000000000001
1000000000000111100000000000010000111100001000000000000000000000000100000001000000000000000000000000100000000000000000000000001
1000000000011010110000000000010011000010001000000000000000000000001000000000100000000000000000000000100000000000000000000000001
1000000000101010010000000000010100000001001000000000000000000000010000000000010000000000000000000000100000000000000000000000001
1000000000101000010000000000011000000000101000000000000000000000010011000000010000000000000000000000100000000000000000000000001
1000000000101001010000000000001011000110010000000000000000000000100100111100001000000000000000000000100000000000000000000000001
1000000000100001010110000000001001000100010000000000000000000000101000000010001000000000000000000000100000000000000000000000001
1000000000100000011010000000001000010000110000000000000000000000101000000010000100000000000000000000100000000000000000000000001
1000000000100000010010000000000100011000100000000000000000000000101011011010000100000000000000000000100000000000000000000000001
1000000000100000000100000000000100000000100000000000000000000000101001010010000100000000000000000000100000000000000000000000001
1000000000010000001000000000000010111000100000000000000000000000101000000001000100000000000000000000100000000000000000000000001
1000000000010000010000000000000010000001100000000000000000000000101010010001000100000000000000000000100000000000000000000000001
1000000000010000100000000000000001000110100000000000000000000000101001100010000100000000000000000000100000000000000000000000001
1000000000010000100000000000000010111000110000000000000000000000101100000110000100000000000000000000100000000000000000000000001
1000000000010000100000000000000100000000001000000000000000000000100111111010000100000000000000000000100000000000000000000000001
1000000000010000100000000000011000000000000100000000000000000000010010000010000100000000000000000000100000000000000000000000001
1000000000010000100000000001100000000000000011000000000000000000010010000001000100000000000000000000100000000000000000000000001
1000000000010000100000001110011111000011111100111000000000000000010100000000100100000000000000000000100000000000000000000000001
1000000000010000100000110000100000011000000010000100000000000000010100000000011100000000000000000000100000000000000000000000001
1000000000010000100001000001000000000000000001000010000000000000111000111000010011000000000000000000100000000000000000000000001
1000000000010000100010000000000000000000000000000001000000000011000111000111100000100000000000000000100000000000000000000000001
1000000000010000100010000000000000000000000000000001000000000100000000000000000000010000000000000000100000000000000000000000001
1000000000010000101100000000000000000000000000000000100000001000000000000000000000001000000000000000100000000000000000000000001
1000000000010000010000000000000000000000000000010000100000001000000000000000000000000100000000000000100000000000000000000000001
1000000000010000010000000000000000000000000000010000100000001000000000000000000000000100000000000000100000000000000000000000001
1000000000010000010000000000000000000000000000100000100000010000000000000000000000000010000000000000100000000000000000000000001
1000000000010000000000000000000000000000000000100000100000010001000000000000000010000001000000000000100000000000000000000000001
1000000000010000000000001100100000000000000100100000100000010001000000000000000111000001000000000000100000000000000000000000001
1000000000010000000000001010000000011000000001100000100000010010000000000000000010100000100000000000100000000000000000000000001
1000000000010000000000010001111111100111111110100000100000010010000000000000000010010000010000000000100000000000000000000000001
1000000000010000000011101000000000000000000000100000100000010010100000000000010010001000010000000000100000000000000000000000001
1000000000010000000110001000000000000000000000100000010000010010000010000100000110000100001000000000100000000000000000000000001
1000000000001100011000000100000000101000000000100000010000010001000110000010001010000110001000000000100000000000000000000000001
1000000000000011100000000100000001000100000000100000010000010001111000000001110010000100001000000000100000000000000000000000001
1000000000000000000000000100000010000010000000100000010000010001100000000000000010001000010000000000100000000000000000000000001
1000000000000000000000000100000010000010000001110000010000010001100000000000000100001000010000000000100000000000000000000000001
1000000000000000000000000010000010000001000001010000010000100001100000000000001100010000100000000000100000000000000000000000001
1000000000000000000000000010000100000001000001010000010000100010100000000000001000010001000000000000100000000000000000000000001
1000000000000000000000000010001000000000100001001000010000100010100000000000001000100001000000000000100000000000000000000000001
1000000000000000000000000100000000000000000001001000010001100011000000000000000100100010000000000000100000000000000000000000001
1000000000000000000000000100000000000000000001001000001001000010000000000000000101000010000000000000000000000000000000000000001
1000000000000000000000000100000000000000000001001000001001000100000000000000000110000100000000000000000000000000000000000000001
1000000000000000000000000100000000010000000001001000001001000100000000000000000100001000000000001111100011101011100000100000001
1000000000000111000000000100000000010000000001001000010001001000000000000000000010001000000000001000000000101100000100100000001
1000000000001000000000000100000000000000000001001000010001001000000000100000000100010000000000001000000000101110000000100000001
1000000000000100000000001000000000000000000001001000010001001000000000100000001000010000000000001000000100001010000100000000001
1000000000000100000000001000100000000000001000101000010001001000000000000000001000100000000000001000001000001111101010100000001
1000000000011101000000001000100000000000001000101000010001001000000000000000001000100000000000001000001000001010001010100000001
1000000000000001000000001000010000000000010000101000010001001000000000000000000111010000000000001000001110001111101111100000001
1000000000011111000000001000010000000000010000101000100001001000000000000000000000010000000000000000000000000000000000000000001
1000000000000000000000001000010000000000010000101000100001001000000000000000000000010000000000000000000000000000000000000000001
1000000000000000000000010000001000000000100000101000100001010000001000000000000000010000000000000000100000000000000000000000001
1000000000000000000000010000001000000001000000010000100001010000001000000010000000001000000000000000100000000000000000000000001
1000000000000000000000010000000100000010000000010000100001010000000100000010000000001000000000000000100000000000000000000000001
1000000000000000000000010000000011000110000000100001000001010000000010000100000000001000000000000000100000000000000000000000001
1000000000000000000000010000000010101010000001000001000001010000000001001000000000001000000000000000100000000000000000000000001
1000000000000000000000010000000010101010000001000001000010010000000000110000000000001000001010000000100000000000000000000000001
1000000000000000000000010000000010101010000010010001000010010000000000010000000000001000011010000000100000000000000000000000001
1000011000000000000000010000000010101010000100110001000010010000000000010000000000001000111010000000100000000000000000000000001
1000011000000000000000001000000001101100000111010001000011010000000000010000000000001000001010000000100000000000000000000000001
1000000110000000000000001000000000110100000000010010000001010000000000101000000000010000111110000000100000000000000000000000001
1000000110000000000000001000000000100100000000010010000000111000000000101000000000010000001000000000100000000000000000000000001
1000000000000000000000001000000000100100000000100100000000001000000000100100000000010000001110000000100000000000000000000000001
1000000000000000000000001000000000100100000001001000000000001000000000100100000000010000000000000000100000000000000000000000001
1000000000000000000000001000000000100100000001111000000000001000000000100100000000010000000000000000100000000000000000000000001
1000000000000000000000001000000000100100000000001000000000000100000000100010000000010000000000000000100000000000000000000000001
1000000001100111110000001000000000100100000000011000000000000100000000100010000000001000000000000000100000000000000000000000001
1000000001100010010000001000000000100100000000010000000000000100000000100010000000001000000000000000100000000000000000000000001
1000000000000111010000001000000000100100000000010000000000000100000000100001000000001000000000000000100000000000000000000000001
1000000000000010000000001000000000100100000000010000000000000100000000100001000000001000000000000000100000000000000000000000001
1000000000000111000000000100000000100110000000010000000000000010000000100001000000001000000000000000100000000000000000000000001
1000000000000001000000000100000000100010000000100000000000000010000000100000100000001000000000000000100000000000000000000000001
1000000000000001110000000100000000100010000000100000000000000001000000100000100000001000000000000000100000000000000000000000001
1000000000000000000000000100000000100010000000100000000000000001000000100000100000000100000000000000100000000000000000000000001
1000000000000000000000000010000000100010000000100000000000000001000000100000100000000100000000000000100000000000000000000000001
1000000000000000000000000010000000100010000000100000000000000001000000100000010000000100000000000000100000000000000000000000001
1000000000011000000000000010000000100010000000100000000000000001000000100000010000000100000000000000100000000000000000000000001
1000000000011000000000000010000000100011000000100000000000000001000100100000001000000100000000000000100000000000000000000000001
1000000000000000000000000010000000110001000000100000000000000001001100010000001001000100000000000000100000000000000000000000001
1000000000000000000000000010010000010001010010110000000000000001000000010000000100110110000000000000100000000000000000000000001
1000000000000000000000000010011100010001011110010000000000000001000000010000000100000010000000000000100000000000000000000000001
1000000000000000000000000010000000010001000000010000000000000001000000010000000100000001000000000000100000000000000000000000001
1000000000000000000000000010000000010001000000010000000000000001000000010000000100000001000000000000100000000000000000000000001
1000000000000000000000000010000000010001000000010000000000000001000000010000000100000000100000000000100000000000000000000000001
1000000000000000000000000010000000010001000000010000000000000001000000010000000100000000100000000000100000000000000000000000001
1000000000000000000000000001000000010001000000010000000000000000100000100000000100000000100000000000100000000000000000000000001
1000000000000000000000000001000000010001000000010000000000000000100000100000000010000000100000000000100000000000000000000000001
1000000000000000000000000001000000010001000000010000000000000000100000100000000010000000100000000000100000000000000000000000001
1000000000000000000000000001000000100001000000010000000000000000100000100000000001000000100000000000100000000000000000000000001
1000000000000000000000000001000000100000100000010000000000000000100000100000000001000000100000000000100000000000000000000000001
1000000000000110000000000001000000100000100000010000000000000000010000100000000000100000010000000000100000000000000000000000001
1000000000000110000000000000100000100000100000010000000000000000010000100000000000010000010000000000100000000000000000000000001
1000000000000000000000000000100000100000100000010000000000000000010000100000000000010000010000000000100000000000000000000000001
1000000000000000000000000000100000100000100000110000000000000000010000100000000000001000010000000000100000000000000000000000001
1000000000000000000000000000100000100000110000100000000000000000001000100000000000001000010000000000100000000000000000000000001
1000000000000000000000000000100000100000010000100000000000000000001000100000000000000100010000000000100000000000000000000000001
1000000000000000000000000000010000100000010000100000000000000000001000100000000000000100010000000000100000000000000000000000001
1000000000000000000000000000010000100000010000100000000000000000001000100000000000000100010000000000100000000000000000000000001
1000000000000000000000000000010000100000010001000000000000000000001000100000000000000010001000000000100000000000000000000000001
1000000000000000000000000000010000100000010001000000000000000000010000010000000000000010001000000000100000000000000000000000001
1000000000000000000000000000010000100000010001000000000000000000100000010000000000000001000100000000100000000000000000000000001
1000000000000000000000000000010000100000010001000000000000000001000001100000000000000001000100000000100000000000000000000000001
1000000000000000000000000000100000010000010001000000000000000010000010000000000000000010000010000000100000000000000000000000001
1000000000000000000000000001000000010000110001000000000000000010000100000000000000000010000001000000100000000000000000000000001
1000000000000000000000000010000000010000100000100000000000000100100100000000000000000001100000100000100000000000000000000000001
1000000000000000000000001100000011100000100000100000000000000101001000000000000000000000010000010000100000000000000000000000001
1000000000000000000000010000000100000000100000010000000000000010010000000000000000000000010000010000100000000000000000000000001
1000000000000000000000100000001000000000010000010000000000000001100000000000000000000000001001110000100000000000000000000000001
1000000000000001100000100000010000000000001000001000000000000000000000000000000000000000000100010000100000000000000000000000001
1000000000000001100000101000010000000000001000001000000000000000000000000000000000000000000011100000100000000000000000000000001
1000000000000000000000010001100000000000001000001000000000000000000000000000000000000000000000000000100000000000000000000000001
1000000000000000000000001110000000000000000100101000000000000000000000000000000000000000000000000000100000000000000000000000001
1000000000000000000000000000000000000000000010010000000000000000000000000000000000000000000000000011111000000000000000000000001
1000000000000000000000000000000000000000000001100000000000000000000000000000000000000000000000000000000000000000000000000000001
1000000000000000000000000000000000000000000000000000000000000000000000000000000000000000000000000000000000000000000000000000001
1000000000000000000000000000000000000000000000000000000000000000000000000000000000000000000000000000000000000000000000000000001
1000000000000000000000000000000000000000000000000000000000000000000000000000000000000000000000000000000000000000000000000000001
1000000000000000000000000000000000000000000000000000000000000000000000000000000000000000000000000000000000000000000000000000001
1111111111111111111111111111111111111111111111111111111111111111111111111111111111111111111111111111111111111111111111111111111
