P1
127 127
1111111111111111111111111111111111111111111111111111111111111111111111111111111111111111111111111111111111111111111111111111111
1000000000000000000000000000000000000000000000000000000000000000000000000000000000000000000000000000000000000000000000000000001
1000000000000000000000000000000000000000000000000000000000000101110000000000000000000000000000000000000000000000000000000000001
1001010010001000100010000000000000000000000000000000000000000111000000000000000000000000000000000000000001010010001000100010001
1000100101010101010101000000000000000000000000000000000000000101000000000000000000000000000000000000000000100101010101010101001
1001010010001000100010000000000000000000000000000000000000000010000000000000000000000000000000000000000001010010001000100010001
1000000000000000000000000000000000000000000000000000000000000100010000000000000000000000000000000000000000000000000000000000001
1000000000000000000000000000000000000000000000000000000000000100010000000000000000000000000000000000000000000000000000000000001
1000000000000000000000000000000000000000000000000000000000000111010000000000000000000000000000000000000000000000000000000000001
1000000000000000000000000000000000000000000000000000000000000000000000000000000000000000000000000000000000000000000000000000001
1000000000000000000000000000000000000000000000000000000000000000000000000000000000000000000000000000000000000000000000000000001
1000000000000000000000000000000000000000000000000000000000000000000000000000000000000000000000000000000000000000000000000000001
1000000101000000000001110001110111110001010001110000010001000001000001000001000001000001000001000001000001000000000000000000001
1000000111000000000001000010000100000011010001000010110001000001000001000001000001000001000001000001000001000000000000000000001
1000000101000000000111110001000101110111010111110111010111110111110111110111110111110111110111110111110111110000000000000000001
1000000100000111110001000001000100000001010001000001000100010100010100010100010100010100010100010100010100010000000000000000001
1000000111110011100111110111010100000111110111110111000111110111110111110111110111110111110111110111110111110000000000000000001
1000000100010001000001000000010100000001000001000101000001000001000001000001000001000001000001000001000001000000000000000000001
1000000101110010000111000111110111110001110111000111000001000001000001000001000001000001000001000001000001000000000000000000001
1000000000000111010000000000000000000000000000000000000000000000000000000000000000000000000000000000000000000000000000000000001
1000000000000100010000000000000000000000000000000000000000000000000000000000000000000000000000000000000000000000000000000000001
1000000000000111110000000000000000000000000000000000000000000000000000000000000000000000000000000000000000000000000000000000001
1000000000000000000000000000000000000000000000000000000000000000000000000000000000000000000000000000000000000000000000000000001
1000000000000000000000000000000000000000000000000000000000000000000000000000000000000000000000000000000000000000000000000000001
1000000000000000000000000000000000000000000000000000000000000000000000000000000000000000000000000000000000000000000000000000001
1000000101110000000001110101110000000001110111010001000111110000000000000001110000000100000100000100000100000100000100000000001
1000000111010000000001000111010000000001000001110001000110000000000000000000001000001010001010001010001010001010001000000000001
1000000111110000000111110111110000000111110001010111110111010000000000000001111100001010001010001010001010001010001000000000001
1000000110010001110001000110010001010001000010000100010111010000000000000000100100010001010001010001010001010001010000000000001
1000000100010010000111110100010011010111110100000111110101110000000000000001111100010001010001010001010001010001010000000000001
1000000000010001000001000000010111010001000100000001000101010000000000000001010000100000100000100000100000100000100000000000001
1000000111110001000111000111110001010111000100000001000101010000000000000001010000100000100000100000100000100000100000000000001
1000000000000111010000000000000111110000000000000000000000000000000000000000000000000000000000000000000000000000000000000000001
1000000000000000010000000000000001000000000000000000000000000000000000000000000000000000000000000000000000000000000000000000001
1000000000000111110000000000000001110000000000000000000000000000000000000000000011100000100000100000100000100011100000000000001
1000000000000000000000000000000000000000000000000000000000000000000000000000000000100000100000100000100000100010010000000000001
1000000000000000000000000000000000000000000000000000000000000000000000000000000010100011111011111011111011111010101000000000001
1000000000000000000000000000000000000000000000000000000000000000000000000000000010000010001010001010001010001001101000000000001
1000000111110000000001110111110000000001110101110001000001110000000000000000000010111011111011111011111011111000101000000000001
1000000010100000000001000010100000000001000110000001000011010000000000000000000010000000100000100000100000100000100000000000001
1000000100010000000111110100010000000111110111000111110101110000000000000000000011100000100000100000100000100011100000000000001
1000000100010001110001000100010001010001000101000100010100010000000000000000000000000000000000000000000000000000000000000000001
1000000111110010000111110111110011010111110111110111110101010000000000000000000000000000000000010000000000000000000000000000001
1000000001000001000001000001000111010001000101000001000001010000000000000000000000000000000000111000000000000000000000000000001
1000000111110001000111000111110001010111000111110001000001010000000000000000000000000000000001010100000000000000000000000000001
1000000000000111010000000000000111110000000000000000000000000000000000000000000000000000000000010000000000000000000000000000001
1000000000000000010000000000000001000000000000000000000000000000000000000000000000000000000000010000000000000000000000000000001
1000000000000111110000000000000001110000000000000000000000000000000000000000000000000000000000010000000000000000000000000000001
1000000000000000000000000000000000000000000000000000000000000000000000000000000000000000000000010000000000000000000000000000001
1000000000000000000000000000000000000000000000000000000000000000000000000000000000000000000000010000000000000000000000000000001
1000000000000000000000000000000000000000000000000000000000000000000000000000000000000000000000010000000000000000000000000000001
1000000111110000000001110111110000000001110111110111110111110111110000000000000000000000000000010000000000000000000000000000001
1000000001000000000001000001000000000001000100000100000100000010100000000000000000000000000000010000000000000000000000000000001
1000000001000000000111110001000000000111110111110100000100000111110000000000000000000000000001010100000000000000000000000000001
1000000001000001110001000001000001010001000100000100000100000001000000000000000000000000000000111000000000000000000000000000001
1000000101000010000111110101000011010111110101110100000100000101010000000000000000000000000000010000000000000000000000000000001
1000000100000001000001000100000111010001000100000100000100000101010000000000000000000000000000000000000000000000000000000000001
1000000100000001000111000100000001010111000100000100000100000101010000000000000000000001110000010001110000000000000000000000001
1000000000000111010000000000000111110000000000000000000000000000000000000000000000000000010000010001001000000000000000000000001
1000000000000000010000000000000001000000000000000000000000000000000000000000000000000001010001111101010100000000000000000000001
1000000000000111110000000000000001110000000000000000000000000000000000000000000000000001000001000100110100000000000000000000001
1000000000000000000000000000000000000000000000000000000000000000000000000000000000000001011101111100010100000000000000000000001
1000000000000000000000000000000000000000000000000000000000000000000000000000000000000001000000010000010000000000000000000000001
1000000000000000000000000000000000000000000000000000000000000000000000000000000000000001110000010001110000000000000000000000001
1000000000000000000000000000000000000000000000000000000000000000000000000000000000000000000000000000000000000000000000000000001
1000000000000000000000000000000000000000000000000000000000000000000000000000000000000000000000000000000000000000000000000000001
1000000000000000000000000000000000000000000000000000000000000000000000000001110000000000100000000001000000000010000000000000001
1000000000000000000000000000000000000000000000000000000000000000000000000000001000000011011000000110110000001101100000000000001
1000000000000000000000000000000000000000000000000000000000000000000000000001111100000100000100001000001000010000010000000000001
1000000000000000000000000000000000000000000000000000000000000000000000000000100100000100000100001000001000010000010000000000001
1000000000000000000000000000000000000000000000000000000000000000000000000001111100001000000010010000000100100000001000000000001
1000000000000000000000000000000000000000000000000000000000000000000000000001010000001000000010010000000100100000001000000000001
1000000000000000000000000000000000000000000000000000000000000000000000000001010000010000000001100000000011000000000100000000001
1000000000000000000000000000000000000000000000000000000000000000000000000000000000000000000000000000000000000000000000000000001
1000000000000000000000000000000000000000000000000000000000000000000000000000000000000000000000000000000000000000000000000000001
1000000000000000000000000000000000000000000000000000000000000000000000000000000000000000000000000000000000000000000000000000001
1000000000000000000000000000000000000000000000000000000000000000000000000000000000000000000000000000000000000000000000000000001
1000000000000000000000000000000000000000000000000000000000000000000000000000000000000000000000000000000000000000000000000000001
1000000000000000000000000000000000000000000000000000000000000000000000000000000000000000000000000000000000000000000000000000001
1000000000000000000000000000000000000000000000000000000000000000000000000000000000000000000000000000000000000000000000000000001
1000000000000000000000011100000000000000000000000000000000000000000000000000000000000000000000000000000000000000000000000000001
1000000000000000000000100000000000000000000000000000000000000000000000000000000000000000000000000000000000000000000000000000001
1001111100001000000001000000000011100000000000000001110000000000000000011100000000000000000000000000000000000000000000000000001
1001000000011100000001000000000101010000000000000010101000000000000000101010000000000000000000000000000000000000000000000000001
1001000000101010000001110000000101010000000000000010101000000000000000101010000000000000000000000000000000000000000000000000001
1001000000001000000000010000001001001000000000000100100100000000000001001001000000000000000000000000000000000000000000000000001
1001000000001000000001110000001001001000000000000100100100000000000001001001000000000000000000000000000000000000000000000000001
1001000000001000000000000000010001001000000000001000100010000000000010001000100000000000000000000000000000000000000000000000001
1001000000001000000000000000010001000100000000010000100001000000000010001000100000000000000000000000000000000000000000000000001
1000000000001000000000000000100001000010000000010000100001000000000100001000100000000000000000000000000000000000000000000000001
1000000000001000000000000000100001000010000000100000100001000000000100001000100000000000000000000000000000000000000000000000001
1000000000001000000000000001000001000001000000100000100001000000001000001000010000000000000000000000000000000000000000000000001
1000000000001000000000000001000001000000100001000000100000100000001000001000010000000000000000000000000000000000000000000000001
1000000000001000000000000010000001000000100010000000100000010000010000001000001000000000000000000000000000000000000000000000001
1000000000001000000000000100000001000000010010000000100000010000100000001000001000000000000000000000000000111000000000000000001
1000000000001000000000000100000001000000010100000000100000001000100000001000000100000000000000000000000000010000000000000000001
1000000000001000000000001000000001000000001000000000100000000101000000001000000100000000000000000000000000111000000000000000001
1000000000001000000000010000000001000000010100000000100000000101000000001000000010000000000000000000000001000000000000000000001
1000000000001000000000010000000001000000010100000000100000000010000000001000000001000000000000000000000010001000000000000000001
1000010000001000000000100000000001000000100010000000100000000101000000001000000001000000000000000000000010001000000000000000001
1000010000001000000001000000000001000000100010000000100000000101000000001000000000100000000000000000000011111000000000000000001
1001111100001000000001000000000001000001000001000000100000001000100000001000000000100000000000000000000000000000000000000000001
1001000100001000000010000000000001000010000000100000100000010000010000001000000000010000000000000000000000000000000000000000001
1001111100001000000100000000000001000010000000100000100000010000010000001000000000001000000000000000010000000000000000000000001
1000010000001000001100000000000001000100000000010000100000100000001000001000000000000100000000000000001000000000000000000000001
1000010000001111111111111111111111111111111111111111111111111111111111111111111111111111111111111111111100000000000000000000001
1000000000000000000000000000000001000000000000000000100000000000000000001000000000000000000000000000001000000000000000000000001
1000000000000000000000000000000010000000000000000000100000000000000000001000000000000000000000000000010000000000000000000000001
1000000000000000000000000000001100000000000000000000100000000000000000001000000000000000000000000000000000000000000000000000001
1000000000000000000000000000000000000000000000000000000000000000000000000000000000000000000000000000000000011100000100000000001
1000000000000111000000010111010000000000011101011111011101000000001110100000101110100000000000000000000000010000100100000000001
1000000000000001000010010111010000000000011101010000011101000000001110100101101110100000000000000000000000010001010100000000001
1000000000000101000101010101010000000000010101011111010101000000001010101110101010100000000001111100010000010001010100000100001
1000000000000100000101010100000000000000010000010000010000000000001000000010001000000000000001000000010000010001111100100100001
1000000000000101110111110111000000000000011100010111011100000000001110001110001110000000000001000001111100010000010000000100001
1000000000000100000001000001000000000000000100010000000100000000000010001010000010000000000001000001000101110001110000100000001
1000000000000111000111000111110000000000011111010000011111000000001111101110001111100000000001000001111100000000000001010100001
1000000000000000000000000000000000000000000000000000000000000000000000000000000000000000000001000000010000000000000001010100001
1000000000000000000000000000000000000000000000000000000000000000000000000000000000000000000001000000010000000000000001111100001
1000000000000000000000000000000000000000000000000000000000000000000000000000000000000000000000000000000000000000000000000000001
1000000000000000000000000000000000000000000000000000000000000000000000000000000000000000000000000000000000000000000000000000001
1000000000000000000000000000000000000000000000000000000000000000000000000000000000000000000000000000000000000000000000000000001
1000000000000000000000000000000000000000000000000000000000000000000000000000000000000000000000000000000000000000000000000000001
1000000000000000000000000000000000000000000000000000000000000000000000000000000000000000000000000000000000000000000000000000001
1000000000000000000000000000000000000000000000000000000000000000000000000000000000000000000000000000000000000000000000000000001
1000000000000000000000000000000000000000000000000000000000000000000000000000000000000000000000000000000000000000000000000000001
1111111111111111111111111111111111111111111111111111111111111111111111111111111111111111111111111111111111111111111111111111111
