P1
127 127
1111111111111111111111111111111111111111111111111111111111111111111111111111111111111111111111111111111111111111111111111111111
1000000000000000000000000000000000000000000000000000000000000000000000000000000000000000000000000000000000000000000000000000001
1000000000000000000000000000000000000000000000000000000000000101110000000000000000000000000000000000000000000000000000000000001
1001010010001000100101000000000000000000000000000000000000000111000000000000000000000000000000000000000001010010001000100101001
1000100101010101010010000000000000000000000000000000000000000101000000000000000000000000000000000000000000100101010101010010001
1001010010001000100101000000000000000000000000000000000000000010000000000000000000000000000000000000000001010010001000100101001
1000000000000000000000000000000000000000000000000000000000000100010000000000000000000000000000000000000000000000000000000000001
1000000000000000000000000000000000000000000000000000000000000100010000000000000000000000000000000000000000000000000000000000001
1000000000000101010100010100010100000000000000000000000000000111010000000000000000000000000000000000000000000000000000000000001
1000000000001111011100011100011100000000000000000000000000000000000000000001010000000101010000010100000000000000000000000000001
1000000000011101010101010101010101000000000000000000000000000000000000000001110000000111110000011100000000000000000000000000001
1000000000001000000001000001000001000000000000000000000000000000000000000001010100000101010111010101000000000000000000000000001
1000000000000001011101011101011101000000000000000000000000000000000000000000000101110011000111000001000000000000000000000000001
1000000000000001000101000101000101000000000000000000000000000000000000000001110101110111010000011101000000000000000000000000001
1000000000000001011111011111011111000000000000000000000000000000000000000000010100000001010000000101000000000000000000000000001
1000000000000000000000000000000000000001110000000000000000000000000000000001111100000111010000011111000000000000000000000000001
1000000000000000000011000000000000000000111000000000000000000000000000000000000000000000000000000000000000000000000000000000001
1000000000000000000011000000000000000000010100000000000000000000000000000000000000000011000000000000000000000000000000000000001
1000000000000000000000000000000000000000110100000000000000000000000000000000000000000011000000000000000000000000000000000000001
1000000000000000000001010000000000000001111100000000000000000000000000000000000000000000000000000000000000000000000000000000001
1000000000000000000011110000000000001100000100000000000000000000000000000000000000000001010000000000000000000000000000000000001
1000000000000000000111010000000000001101111100000000000000000000000000000000000000000011110000000000000000001010100000000000001
1000000000000000000010000100000000000000000000000000000000000000000000000000000000010111010100000000000000101111100000000000001
1001010000010100010000010111000001010000000000000000000000000000000000000000000000110010000110000000000001101010100000000000001
1001110000111100110000010011100011110000000000000000000000000000000000000000000001100000010011000000000011000110001000000000001
1001010101110101100000010000110111010000000000000000000000000000000000000101010011000000010001100001010110001110101100000000001
1000000100100001000000000000010010000000000000000000000000000000000000000111110110000000010000110011110100000010100110000000001
1001110100000100000000000000000000010000000000000000000000000000000000000101010100000000000000010111010000001110100011000000001
1000010100000100000000000000000000010000000000000000000000000000000000000011000000000000000000000010000000000000000001100000001
1001111100000100000000000000000000010000000000000000000000000000000000000111010000000000000000000000010000000000000000100000001
1000000000000000000111110000000000000000000000000000000000000000000000000001010000001010000000000000010000000000000000000000001
1000000000110000000101000000000001100000000000000000000000000000000000000111010000001010000000000000010000000000000000010100001
1000000000110000000111000000000001100000000000000000000000000000000000000000000000001111100000000000000000000000000000111100001
1000000000110000000010000000000001100000000000000000000000000000000000000011000000000100000000000011000000000000000001110100001
1000000000110000000001000000000001100000000000000000000000000000000000000011000000001110000000000011000000000000000000100000001
1000000000110000000001000000000001100000000000000000000000000000000000000000000000001000000000000000000000000000000000000100001
1000000000110000000001110000000000000000000000000000000000000000000010100000101000001111100000000001010000000000000000000100001
1000000000110000000000000000000101010000000000000000000000000000000011100001111000000000000000000011110000000000000000000100001
1000000000000000000000000000000111110000000000000000000000000000000010101011101000000000000000000111010000000000000000000000001
1000000001010100000000000000000101010000000000000000000000000000000000001001000000000000000000000010000000000000000000100000001
1000000001111100000000000000010011000000000000000000000000000000000011101000001000000000000000010000010000000000000001100000001
1000000001010100000000000000110111010000000000000000000000000000000000101000001010000101010000110000010100001010100011000000001
1000000000110001000001010001100001010000000000000000000000000000000011111000001011000111110001100000010110001111100110000000001
1000000001110101100011110011000111010000000000000000000000000000000000000000000001100101010011000000000011001010101100000000001
1000000000010100110111010110000000000110000000000000000000000000000000000000000000110011000110000000000001100110001000000000001
1000000001110100010010000100000000000110000000000000000000000000000000000000000000010111010100000000000000101110100000000000001
1000000000000000000000010000000000000000101000000000000000000000000000000000000000000001010000000000000000000010100000000000001
1000000000000000000000010000000000000000111000000000000000000000000000000000000000000111010000000000000000001110100000000000001
1000000000000000000000010000000000000000101010000000000000000000000000000000000000000000000000000000000000000000000000000000001
1000000000000000000000000000000000000000000010000000000000000000000000000000000000000000000000000000000000000000000000000000001
1000000000000000000011000000000000000000111010000000000000000000000000000000000000000000000000000000000000000000000000000000001
1000000000000000000011000000000000000000001010000000000000000000000000000000000000000000000000000000000000000000000000000000001
1000000000000000000000000000000000000000111110000000000000000000000000000000000000000000000000000000000000000000000000000000001
1000000000000000000111000000000000000000000000000000000000000000000000000000000000000000000000000000000000000000000000000000001
1000000000000000000011100000000000000000000000000000000000000000000000000000000000000000000000000000000000000000000000000000001
1000000000000000000001010000000000000000000000000000000000000000000000000000000000000000000000000000000000000000000000000000001
1000000000000000000011010000000000000000000000000000000000000000000000000000000000000000000000000000000000000000000000000000001
1000000000000000000111110000000000000000000000000000000000000000000000000000000000000000000000000000000000000000000000000000001
1000000000000000000000010000000000000000000000000000000000000000000000000000000000000000000000000000000000000000000000000000001
1000000000000000000111110000000000000000000000000000000000000000000000000000000000000000000000000000000000000000000000000000001
1000000000000000000000000000000000000000000000000000000000000000000000000000000000000000000000000000000000000000000000000000001
1000000000000000000000000000000000000000000000000000000000000000000000000000000000000000000000000000000000000000000000000000001
1000000000000000000000000000000000000000000000000000000000000000000000000000000000000000000000000000000000000000000000000000001
1000000000000000000000000000000000000000000101000000000000000000000000000000000000000000000000000000000000000000000000000000001
1000000000000000000000000000000000000000000111000000000000000000000000000000000000000000000000000000000000000000000000000000001
1000000000000000000000000000000000000000000101010000000000000000000000000000000000000000000000000000000000000000000000000000001
1000000000000000000000000000000000000000000000010000000000000000000000000000000111000000000000000000000000000000000000000000001
1000000000000000000000000000000000000000000111010000000000000000000000000000000011100000000000000000000000000000000000000000001
1000000000000000000000000000000000000000000001010000000000000000000000000000000001010000000000000000000000000000000000000000001
1000000000000000000000000000000000000000000111110000000000000000000000000000000011010000000000000000000000000000000000000000001
1000000000000010100000101000000000000000000000000000000000000000000000000000000111110000000000000000000000000000000000000000001
1000000000000011100001111000000000000000001100000000000000000000000000000000000000010000000000000000000000000000000000000000001
1000000000000010101011101000000000000000011000000000000000000000000000000000000111110000000000000000000000000000000000000000001
1000000000000000001001000000000000000000000000000000000000000000000000000000000000000000000000000000000000000000000000000000001
1000000000000011101000001000000000000000000000000000000000000000000000000000000001100000000000000000000000000000000000000000001
1000000000000000101000001000000000000101010000000000000000000000000000000000000001100000000000000000000000000000000000000000001
1000000000000011111000001000000000000111110000000000000000000000000000000000000001100000000000000000000000000000000000000000001
1000000000000000000000000000000000000101010000000000000000001010000000000000000001100000000000000000000000000000000000000000001
1000000000000000001000110000000000000011000100000000000000001110000000000000000000000000000000000000000000000000000000000000001
1000000000000000011000011000000000010111010110101000000000001010100000000000000001010000000000000000010101000000000000000000001
1000000000000000110000001100000000110001010010111000000000000000100000000000000011110000000000000001011111000000000000000000001
1000000000000000100000000110000000100111010000101010000000001110101000000000010111010100000000000011010101000000000000000000001
1000000000000000000000000010000000000000000000000010000000000010101100000000110010000110000000000110001100010000000000000000001
1000101000001010000000000000001010000000000000111010000000001111100101010101100000010011000010101100011101011000000000000000001
1000111000011110000000000000011110000000000000001010000000000000000001111101000000010001100111101000000101001100000000000000001
1000101010111010000000000000111010000000000000111110000000000000000001010100000000010000101110100000011101000110000000000000001
1000000010010000000000000000010000000000000000000000000000000000000000110000000000000000000100000000000000000010000000000000001
1000111010000010000000000000000010000000000000000000000000000000000001110100000000000000000000100000000000000000000000000000001
1000001010000010001111100000000010000000000000000000000000000000000000010100000101110000000000100000000000000000000000000000001
1000111110000010000010100000000010000000000000000000000000000000000001110100000100010000000000100000000000000000010101010000001
1000000000000000001111100000000000000000000000000000000000000000000000000000000101110000000000000000000000000000111101110000001
1000000001100000000100000000011000000000000000000000000000000000000000110000000010000000000110000000000000000001110101010100001
1000000001100000001110000000011000000000000000000000000000000000000000110000000111000000000110000000000000000000100000000100001
1000000001100000001000000000011000000000000000000000000000000000000000000000000001000000000000000000000000000000000101110100001
1000000001100000001000000000011000000000000000000000000000000000000000010100000111000000000010100000000000000000000100010100001
1000000000000000000000000000000000000000000000000000000000000000000000111100000000000000000111100000000000000000000101111100001
1000000010101000000000000000101010000000000000000000000000000000000001110100000000000000001110100000000000000000000000000000001
1000000011111000000000000000111110000000000000000000000000000000000000100000000000000000100100000000000000000010000000000000001
1000000010101000000000000000101010000000000000000000000000000000000000000101000000000001100000100000000000000010000000000000001
1000000001100000000000000000011000000000000000000000000000000000000100000101100101010011000000101000010101000100000000000000001
1000000011101000000000000010111010000000000000000000000000000000001100000100110111110110000000101100011111001100000000000000001
1000000000101010000000000110001010000000000000000000000000001010101000000000010101010100000000000110010101011000000000000000001
1000000011101011000010101100111010000000000000000000000000001111100000000000000011000000000000000011001100010000000000000000001
1000000000000001100111101000000000000000000000000000000000001010100000000000000111010000000000000001011101000000000000000000001
1000000000000000101110100000000000000000000000001010001111100110000000000000000001010000000000000000000101000000000000000000001
1000000000000000000100000000000000000000000000001110001111101110100000000000000111010000000000000000011101000000000000000000001
1000000000000000000000100000000000000000000000001010100000000010100000000000000000000000000000000000000000000000000000000000001
1000000000000000000000100000000000000000000000000000100000001110100000000000000000000000000000000000000000000000000000000000001
1000000000000000000000100000000000000000000000001110100000000000000000000000000000000000000000000000000000000000000000000000001
1000000000000000000000000000000000000000000000000010100000001000000000000000000000000000000000000000000000000000000000000000001
1000000000000000000110000000000000000000000000001111100000011000000000000000000000000000000000000000000000000000000000000000001
1000000000000000000110000000000000000000000000000000000000010000000000000000000000000000000000000000000000000000000000000000001
1000000000000000000000000000000000000000000000000000000000000000000000000000000000000000000000000000000000000000000000000000001
1000000000000000001110000000000000000000000000000000000001010000000000000000000000000000000000000000000000000000000000000000001
1000000000000000000111000000000000000000000000000000000001110000000000000000000000000000000000000000000000000000000000000000001
1000000000000000000010100000000000000000000000000000000001010100000000000000000000000000000000000000000000000000000000000000001
1000000000000000000110100000000000000000000000000000000000000100000000000000000000000000000000000000000000000000000000000000001
1000000000000000001111100000000000000000000000000000000001110100000000000000000000000000000000000000000000000000000000000000001
1000000000000000000000100000000000000000000000000000000000010100000000000000000000000000000000000000000000000000000000000000001
1000000000000000001111100000000000000000000000000000000001111100000000000000000000000000000000000000000000000000000000000000001
1000000000000000000000000000000000000000000000000000000000000000000000000000000000000000000000000000000000000000000000000000001
1000000000000000000000000000000000000000000000000000000000000000000000000000000000000000000000000000000000000000000000000000001
1000000000000000000000000000000000000000000000000000000000000000000000000000000000000000000000000000000000000000000000000000001
1000000000000000000000000000000000000000000000000000000000000000000000000000000000000000000000000000000000000000000000000000001
1000000000000000000000000000000000000000000000000000000000000000000000000000000000000000000000000000000000000000000000000000001
1000000000000000000000000000000000000000000000000000000000000000000000000000000000000000000000000000000000000000000000000000001
1111111111111111111111111111111111111111111111111111111111111111111111111111111111111111111111111111111111111111111111111111111
