P1
127 127
1111111111111111111111111111111111111111111111111111111111111111111111111111111111111111111111111111111111111111111111111111111
1000000000000000000000000000000000000000000000000000000000000000000000000000000000000000000000000000000000000000000000000000001
1000000000000000000000000000000000000000000000000000000000000101110000000000000000000000000000000000000000000000000000000000001
1001010010001001010010000000000000000000000000000000000000000111000000000000000000000000000000000000000001010010001001010010001
1000100101010100100101000000000000000000000000000000000000000101000000000000000000000000000000000000000000100101010100100101001
1001010010001001010010000000000000000000000000000000000000000010000000000000000000000000000000000000000001010010001001010010001
1000000000000000000000000000000000000000000000000000000000000100010000000000000000000000000000000000000000000000000000000000001
1000000000000000000000000000000000000000000000000000000000000100010000000000000000000000000000000000000000000000000000000000001
1000000000000000000000000000000000000000000000000000000000000111010000000000000000000000000000000000000000000000000000000000001
1000000000000000000000000000000000000000000000000000000000000000000000000000000000000000000000000000000000000000000000000000001
1000000000000000000000000000000000000000000000000000000000000000000000000000000000000000000000000000000000000000000000000000001
1000000000000000000000000000000000000000000000000000000000000000000000000000000000000000000000000000000000000000000000000000001
1000000000000000000000000000000000000000000000000000000000000000000000000000000000000000000000000000000000000000000000000000001
1000000000000000000000000000000000000000000000000000000000000000000000000000000000000000000000000000000000000000000000000000001
1000000000000000000000000000000000000000000000000000000000000000000000000000000000000000000000000000000000000000000000000000001
1000000010111110001010111110111110111000111110101000111110000010111110111000000000000000000001111100000000000001011100000000001
1000010110000010011110100000100000001000000010111000100000010110000010011100000000000000000000010100000000000001000100000000001
1000111010101010111010101110100000101000101010101010101110111010101010001010000000000000000001111100000000000001011100000000001
1000001000111010010000100000100000100000111010000010100000001000111010011010000000000000000000100000000000000000100000000000001
1000111000101010000010100000100000101110101010111010100000111000101010111110000000000000000001110000000000000001110000000000001
1000101000100000000010100000100000100000100000001010100000101000100000000010000000000000000001000000000000000000010000000000001
1000111000111110000010111110100000111000111110111110111110111000111110111110000000000000000001000000000000000001110000000000001
1000000000000000000000000000000000000000000000000000000000000000000000000000000000000000000000000000000000000000000000000000001
1000000000000000000000000000000000000000000000000000000000000000000000000000000000000000000000000000000000000000000000000000001
1000000000000000000000000001110001111101110000000000000000000000000000000000000000000000000001010000000000000001111100000000001
1000000000000000000000000000010000000100111000000000000000000000000000000000000000000000000001010000000000000001010000000000001
1000000000000000000000000001010001010100010100000000000000000000000000000000000000000000000001111100000000000001110000000000001
1000000000000000000000000001000001110100110100000000000000000000000000000000000000000000000000100000000000000000100000000000001
1000000000000000000000000001011101010101111100000000000000000000000000000000000000000000000001110000000000000000010000000000001
1000000000000000000000000001000001000000000100000000000000000000000000000000000000000000000001000000000000000000010000000000001
1000000000000000000000000001110001111101111100000000000000000000000000000000000000000000000001111100000000000000011100000000001
1000000000000000000000000000000000000000000000000000000000000000000000000000000000000000000000000000000000000000000000000000001
1000000000000000000000000000000000011000000000000000000000000000000000000000000000000000000000000000000000000000000000000000001
1000000000000000000000000000000000011000000000000000000000000000000000000000000000000000000000000010000000000001000000000000001
1000000000000000000000000000000001111110000000000000000000000000000000000000000000000000000000000010000000000001000000000000001
1000000000000000000000000000000000111100000000000000000000000000000000000000000000000000000000000001000000000010000000000000001
1000011100000000000000000000000000011000000000000000000000000000000000000000000000000000000000000000110000001100000000000000001
1000010010000000000000000000000000000000000000000000000000000000000000000000000000000000000000000000001100110000000000000000001
1000010111000000000000000000011111111111111111111100000000000000000000000001111100000000000000000000000011000000000000000000001
1000011000000000000000000111110000000000000000000111110000000000000000000000010000000000000000000000001100110000000000000000001
1000011101000000000000111000000000000000000000000000001111000000000000000000010000000000000000000000110000001100000000000000001
1000010101000000000000100000000000000000000000000000000001110000000000000000010000000000000000000001000000000010000000000000001
1000011101000000000001000000000000000000000000000000000000011100000000000000010000000000000000000010000000000001000000000000001
1000000000000000000010000000000000000000000000000000000000000111000000000000010000000000000000000010000000000001000000000000001
1000000000000000000100000000000000000000000000000000000000000001110000000000010000000000000000000001000000000010000000000000001
1000000000000000001100000000000000111111111000000000000000000000011000000000010000000000000000000000110000001100000000000000001
1000000000000000001000000000000011100000001110000000000000000000001000000000010000000000000000000000001100110000000000000000001
1000000000000000010000000000000110000000000011000000000000000000001000000000010000000000000000000000000011000000000000000000001
1000000000000000100000000000001100000000000001100000000000000000001000000000010000000000000000000000001100110000000000000000001
1000000000000001000000000000011000100000010000110000000000000000000100000000010000000000000000000000110000001100000000000000001
1000000000000001000000000000110000100000010000011000000000000000000100000000010000000000000000000011000000000011000000000000001
1000000000000001000000000000100000010000100000001000000000000000000010000000010000000000000000001100000000000000110000000000001
1000000000000000100000000001100000010000100000001100000000000000000010000000010000000000000000010000000000000000001000000000001
1000000000000000100000000001000000001001000000000100000000000000000001100000010000000000000000010000000000000000000100000000001
1000000000000000100000000001000000000110000000000100000000000000000000010000010000000000000000001001000000000000000100000000001
1000000000000000010000000001000000011001100000000100000000000000000000001000010000000000000000000110000000000000001000000000001
1000000000000000010000000001000000100000010000000100000000000000000000001000010000000000000000011001100000000100110000000000001
1000000000000000010000000001000000100000010000000100000000000000000000001000010000000000000000100000010000000011000000000000001
1000000000000000010000000001000000100000010000000100000000000000000000000100010000000000000001000000001000001100110000000000001
1000000000000000001000000001000000011001100000000100000000000000000000000100010000000000000001000000001000010000001000000000001
1000000000000000001000000001000000000110000000000100000000000000000000000100010000000000000000100000010000100000000100000000001
1000000000000000000100000001000000001001000000000100000000000000000000000100010000000000000000011001100000100000000100000000001
1000000000000000000100000001100000010000100000001100000000000000000000000100010000000000000000000110000000010000001000000000001
1000000000000000001000000000100000010000100000001000000000000000000000001000010000000000000000011001100000001100110000000000001
1000000000000000010000000000110000100000010000011000000000000000000000001000010000000000000000100000010000000011000000000000001
1000000000000000100000000000011000100000010000110000000000000000000000010000010000000000000001000000001000001100110000000000001
1000000000000000100000000000001100000000000001100000000000000000000000110000010000000000000001000000001000010000001000000000001
1000000000000001000000000000000110000000000011000000000000000000000001100000010000000000000000100000010000100000000100000000001
1000000000000001000000000000000011100000001110000000000000000000000001000000010000000000000000011001100000100000000100000000001
1000000000000010000000000000000000111111111000000000000000000000000010000000010000000000000000000110000000011000001000000000001
1000000000000010000000000000000000000000000000000000000000000000001100000000010000000000000000011001100000000100110000000000001
1000000000000010000000000000000000000000000000000011110000000000011000000000010000000000000000000000000000000011000000000000001
1000000000000011000000000000000000000000000000000100001000000001110000000000010000000000000000000000000000000000000000000000001
1000000000000001110000000000000000000000000000111000000100000111000000000000010000000000000000000000000000000000000000000000001
1000000000000000011100000000000000000000000001000000000011111100000000000000010000000000000000000000000000000000000000000000001
1000000000000000000111000000000000000000000010000000000000000000000000000000010000000000000000000000000000000000000000000000001
1000000000000000000001111000000000000000001100000000000000000000000000000000010000000000000000000000000000000000000000000000001
1000000000000000000000000111110000000000111000000000000000000000000000000000010000000000000000000000000000000000000000000000001
1000000000000000000000000000011111111111000000000000000000000000000000000001111100000000000000000000000000000000000000000000001
1000000000000000000000000000000000000000000000000000000000000000000000000000000000000000000000000000000000000000000000000000001
1000000000000000000000000000000000000110000000000000000000000000000000000000000000000000011101110100000000000000000000000000001
1000000000000000000000000000000000000110000000000000000000000000000000000000000000000000010001110100000000000000000000000000001
1000000000000000000000000000000000011111100000000000000000000000000000000000000000000000010001010100000000000000000000000000001
1000000000000000000000000000000000001111000000000000000000000000000000000001111100010000010001000000000100000000000000000000001
1000000000000000000000000000000000000110000000000000000000000000000000000001000000010000010001110000100100000000000000000000001
1000000000000000000000000000000000000000000000000000000000000000000000000001000001111100010000010000000100000000000000000000001
1000000000000000000000000000000000000000000000000000000000000000000000000001000001000101110001111100100000000000000000000000001
1000000000000000000000000101011111011100011111011100000000000000000000000001000001111100000000000001010100000000000000000000001
1000000000000000000000001111010000000100000001001110000000000000000000000001000000010000000000000001010100000000000000000000001
1000000000000000000000011101010111010100010101000101000000000000000000000001000000010000000000000001111100000000000000000000001
1000000000000000000000001000010000010000011101001101000000000000000000000000000000000000000000000000000000000000000000000000001
1000000000000000000000000001010000010111010101011111000000000000000000000000000000000000000000000000000000000000000000000000001
1000000000000000000000000001010000010000010000000001000000000000000000000000000000000000000000000000000000000000000000000000001
1000000000000000000000000001011111011100011111011111000000000000000000000000000000000000000000000000000000000000000000000000001
1000000000000000000000000000000000000000000000000000000000000000000000000000000000000000000000000000000000000000000000000000001
1000000000000000000000000000000000000000000000000000000000000000000000000000000000000000000000000000000000000000000000000000001
1000000000000000000000000000000000000000000000000000000000000000000000000000000000000000000000000000000000000000000000000000001
1000000000000000000000000000000000000000000000000000000000000000000000000000000000000000000000000000000000000000000000000000001
1000000000000000000000000000000000000000000000000000000000000000000000000000000000000000000000000000000000000000000000000000001
1000000000000000000000000000000000000000000000000000000000000000000000000000000111110111110000000000000000000000000000000000001
1000000000000000000000000000000000000000000000000000000000000000000000000000000100000100000000000000000000000000000000000000001
1000000000000000000000000000000000000000000000000000000000000000000000000000000100000111110000000000000000000000000000000000001
1000000000000000000000000000000111000000000001110111000000000001110111110001000100000100000000000000000000000000000000000000001
1000000000000000000000000000000100100000000001000100100000000001000100000001000100000101110000000000000000000000000000000000001
1000000000000000000000000000000101110000000111110101110000000111110100000111110100000100000000000000000000000000000000000000001
1000000000000000000000000000000110000001110001000110000001010001000100000100010100000100000000000000000000000000000000000000001
1000000000000000000000000000000111010010000111110111010011010111110100000111110000000000000000000000000000000000000000000000001
1000000000000000000000000000000101010001000001000101010111010001000100000001000000000000000000000000000000000000000000000000001
1000000000000000000000000000000111010001000111000111010001010111000100000001000000000000000000000000000000000000000000000000001
1000000000000000000000000000000000000111010000000000000111110000000000000000000000000000000000000000000000000000000000000000001
1000000000000000000000000000000000000000010000000000000001000000000000000000000000000000000000000000000000000000000000000000001
1000000000000000000000000000000000000111110000000000000001110000000000000000000000000000000000000000000000000000000000000000001
1000000000000000000000000000000000000000000000000000000000000000000000000000000000000000000000000000000000000000000000000000001
1000000000000000000000000000000000000000000000000000000000000000000000000000000000000000000000000000000000000000000000000000001
1000000000000000000000000000000000000000000000000000000000000000000000000000000000000000000000000000000000000000000000000000001
1000000000000000000000000000000000000000000000000000000000000000000000000000000000000000000000000000000000000000000000000000001
1000000000000000000000000000000000000000000000000000000000000000000000000000000000000000000000000000000000000000000000000000001
1000000000000000000000000000000000000000000000000000000000000000000000000000000000000000000000000000000000000000000000000000001
1000000000000000000000000000000000000000000000000000000000000000000000000000000000000000000000000000000000000000000000000000001
1000000000000000000000000000000000000000000000000000000000000000000000000000000000000000000000000000000000000000000000000000001
1000000000000000000000000000000000000000000000000000000000000000000000000000000000000000000000000000000000000000000000000000001
1000000000000000000000000000000000000000000000000000000000000000000000000000000000000000000000000000000000000000000000000000001
1000000000000000000000000000000000000000000000000000000000000000000000000000000000000000000000000000000000000000000000000000001
1000000000000000000000000000000000000000000000000000000000000000000000000000000000000000000000000000000000000000000000000000001
1000000000000000000000000000000000000000000000000000000000000000000000000000000000000000000000000000000000000000000000000000001
1000000000000000000000000000000000000000000000000000000000000000000000000000000000000000000000000000000000000000000000000000001
1111111111111111111111111111111111111111111111111111111111111111111111111111111111111111111111111111111111111111111111111111111
