P1
127 127
1111111111111111111111111111111111111111111111111111111111111111111111111111111111111111111111111111111111111111111111111111111
1000000000000000000000000000000000000000000000000000000000000000000000000000000000000000000000000000000000000000000000000000000
1000000000000000000000000000000000000000000000000000000000000111110000000000000000000000000000000000000000000000000000000000001
1001010010001001010101000000000000000000000000000000000000000011100000000000000000000000000000000000010100100010010101010000011
1000100101010100100010000000000000000000000000000000000000000001000000000000000000000000000000000000001001010101001000100000111
1001010010001001010101000000000000000000000000000000000000000010000000000000000000000000000000000000010100100010010101010000011
1000000000000000000000000000000000000000000000000000000000000111010000000000000000000000000000000000000000000000000000000000001
1000000000000000000000000000000000000000000000000000000000000100010000000000000000000000000000000000000000000000000000000000000
1000000000000000000000000000000000000000000000000000000000000111110000000000000000000000000000000000000000000000000000000000000
1000000000000000000000000000000000000000000000000000000000000000000000000000000000000000000000000000000000000000000000000000000
1000000000000000000000000000000000000000000000000001111111111111111111111111111111111111111111111111111111111111111111111111111
1000000000000000000000000000000000000000000000000001000000000001110000000000000000000000000001111110000000000000000000000000000
1000000000000000000000000000000000000000000000000001000000000011111111111000000000000000000011111111110000000000000000000000000
1000000000000000000000000000000000000000000000000000100000000011111111111111000000000000000111111111110000000000000000000000000
1000000000000000000000000000000000000000000000000000000000000011111111111111100000000000001111111111111000000000000000000000000
1000000000000000000000000000000000000000000000000000010000000011111111111111111000000000001111111111111100000000000000000000000
1000000000000000000000000000000000000000000000000000001000000011111111111111111110111000011111111111111100000000000000000000000
1000000000000000000000000000000000000000000000000000001000000011111111111111111111111000111111111111111110000000000000000000000
1000000000000000000000000000000000000000000000000000000100000001111111111111111111111111111111111111111110000000000000000000000
1000000000000000000000000000000000000000000000000000000110000000111111111111111111111111111111111111111110000000000000000000000
1000000000000000000000000000000000000000000000000000000010000000111111111111111111111111111111111111111110000000000000000000000
1000000000000000000000000000000000000000000000000000000001000000011111111111111111111111111111111111111110000000000000000000000
1000000000000000000000000000000000000000000000000000000001000000001111111111111111111111111111111111111110000000000000000000001
1000000000000000000000000000000000000000000000000000000000100000001111111111111111111111111111111111111110000000000000000000010
1000000000000000000000000000000000000000000000000000000000101100001111111111111111111111111111111111111110000000000000000000010
1000000000000000000000000000000000000000000000000000000000011110001111111111111111111111111111111111111110000000000000000000100
1000000000000000000000000000000000000000000000000000000000001111001111111111111111111111111111111111111110000000000000000000100
1000000000000000000000000000000000000000000000000000000000001111100111111111111111111111111111111111111110100000000000000001000
1000000000000000000000000000000000000000000000000000000000000111100011111111111111111111111111111111111101110000000000000010000
1000000000000000000000000000000000000000000000000000000000000111100000111111111111111111111111111111111001110000000000000110000
1000000000000000000000000000000000000000000000000000000000000011100000011111111111111111111111111111111001111000000000000100000
1000000000000000000000000000000000000000000000000000000000000011100000011111111111111111111111111111110011111000000000001000000
1000000000000000000000000000000000000000000000000000000000000001000000001111111111111111111111111111100011111000000000011000000
1000000000000000000000000000000000000000000000000000000000000000000000001111111111111111111111100000001111110000000000010000000
1000000000000000000000000000000000000000000000000000000000000000100000001111111111111111111111100000111111111000000000010000000
1000000000000000000000000000000000000000000000000000000000000000010000001111111111111111111111100011111111111111000000100000000
1000000000000000000000000000000000000000000000000000000000000000010000001111111111111111111110000011111111111110100001000000000
1000000000000000000000000000000000000000000000000000000000000000001000001111111111111111111100001111111111111011000001000000000
1000000000000000000000000000000000000000000000000000000000000000001000001111111100000111110000001111111111111101000010000000000
1000000000000000000000000000000000000000000000000000000000000000000100001111000111111111110001111111111111111001100110000000000
1000000000000000000000000000000000000000000000000000000000000000000100001111011111111111111011111111111111110000100100000000000
1000000000000000000000000000000000000000000000000000000000000000000010000110111111111111111111111111111111111000101000000000000
1000000000000000000000000000000000000000000000000000000000000000000000000010111111111111111111111111111111111111001000000000000
1000000000000000000000000000000000000000000000000000000000000000000001000000111111111111111111100111111111111111011111111111111
1000000000000000000000000000000000000000000000000000000000000000000000100000111111111111111111000111111111111001000000000000000
1000000000000000000000000000000000000000000000000000000000000000000000010000111111111111111111111111111111111101000000000000000
1000000000000000000000000000001111111111111111111111111111111111111111110000111110001111111111111111111111111000000000000000000
1000000000000000000000000000001000000000000000000000000000000000000000000000111110111111111111111111111111111000000000011000000
1000000000000000000000000000000100000000000000000000000000000000000000000000011001111111111111111111111111111000000000011100000
1000000000000000000000000000000010000000000000000000000000000000000000000000000011111111111111111111111111111000000000000000001
1000000000000000000000000000000010000000000000000000000000000000000000000000000011111111111001111111111111110000000000001111111
1000000000000000000000000000000001000000000000000000000000000000000000000000000011111111111111111111111111100000000000011111111
1000000000000000000000000000000001000000000000000000000000000000000000000000000011111111111111111111111111110000000000011111111
1000000000000000000000000000000000100000000000000000000000000000000000000000001111111111111111111111111111110000000000111111111
1000000000000000000000000000000000100000000000000000000000000000000000000000011111111111111111111111111111100000000000111111111
1000000000000000000000000000000000010000000000000000001000000000000000000001111111111111111111111111111111100000000001111111100
1000000000000000000000000000000000001000000000000000011000000000000000001111111111111111111111111111111111000000000001111111000
1000000000000000000000000000000000001000000000000000111000000000000000011111111111111111111111111111111111000000000001111110001
1000000000000000000000000000000000000100000000000000010000000000000000011111111111111110000000111111111111000000000001111111001
1000000000000000000000000000000000000100000000000000101110000000000001001111111111111110111000111111111111000000000000001111011
1000000000000000000000000000000000000010000000000000101000000000000001100011111111111110011000111111111111100000000000000000011
1000000000000000000000000000000000000001000000000000101000000000000001000011111111111110001000111111111111110000000000000000011
1000000000000000000000000000000000000001000000000000000000000000000000000001111111111110010000111111111111110011000000000001111
1000000000000000000000000000000000000000100000000000000000000000000000000000111111111110111110111111111111111010000000000000100
1000000000000000000000000000000000000000010000000000000000000000000000000000010111111110001000111111111111111110000000000000011
1000000000000000000000000000000000000000010000000000000000000000000000000000000111111110001110111111111111111100000000000000001
1000000000000000000000000000000000000000001000000000000000000000000000000000001111111110000000111111111111111100000000000000111
1000000000000000000000000000000000000000001000000000000000000000000000001100111111111111111111111111111111111000000000000000011
1000000000000000000000000000000000000000000100000000000000000000000000000001111111111111111111111111111111111001000000000000001
1000000000000000000000000000000000000000000100000000000000000000000010000001111111111111111111111111111111111111100000000000001
1000000000000000000000000000000000000000000010000000000000000000000110000011111111111111111111111111111111111111000000000000000
1000000000000000000000000000000000000000000010000000000000000000001101111111111111111111111111111111111111111111000000000000110
1000000000000000000000000000000000000000000001000000000000000000111111111111111111111111111111111111111111111111110000000001000
1000000000000000000000000000000000000000000000100000000000000001001001111111111111111111111111111111111111111111111100000011000
1000000000000000000000000000000000000000000000100000000000000010011000011111111111111111111111111111111111111111111111101100000
1000000000000000000000000000000000000000000000010000000000000010100000011111101111111111111111111111111111111111111111111110000
1000000000000000000000000000000000000000000000001000000000000100100000001111011111111111111111111111111111111111111111010110001
1000000000000000000000000000000000000000000000001000000000000100101000000000011111111111111111111111111111111111111111001010001
1000000000000000000000000000000000000000000000001000000000000100100100000000000011111111111111111111111110000111110110000011011
1000000000000000000000000000000000000000000000000100000000001100000010000000000011111111111111111111111110000011110000000000011
1000000000000000000000000000000000000000000000000010000000001100000001000000000001111111111111111111111110000000100000000000010
1000000000111111111111111111111111111111111111111110000000001000000001000000000001111111111111111111111110000111000000000000000
1000000000010000000000000000000000000000000000000111100000001000000000000000000000000000001111111111111100110110000000000001000
1000000000001100000000000000000000000000000000001111110000001101111000000011111000000001110100000000000001111000000000001000000
1000000000000011000000000000000000000000000000001111111000001101111100010111000000000010000100000000010011100000000000010000000
1000000000000000110000000000000000000000000000011111111000000101111100011110000000011100000100000001111111010000000000000000000
1000000000000000001000000000000000000000000001111111111111000110001010011000000000100000000101111111110000000000000000000000000
1000000000000000000110000000000000000000000001111111111111100110011010000000000001000000000101111001000000000000000000000000000
1000000000000000000001100000000000000000000000111111111111110010010110000000000110000000000101010010000000000000000000000000000
1000000000000000000000011000000000000000000000111111111111110000001100000000001000000000000100000000000000000000000000000000000
1000000000000000000000000110000000000000000000001111111111111101001100000001110000000000000100000000000000000000000000000000000
1000000000000000000000000011000000000000000000000111111111111100001100000110000000000000000100000000000000000000000000000000000
1000000000000000000000000000110000000000000000000011111111111100111100001000000000000000000100000000000000000000000000000000001
1000000000000000000000000000001100000000000000000011111111111100000100010000000000000000000100000000000000000000000000000000010
1000000000000000000000000000000010000000000000000011111111111000110100010000000000000000000100000000000000000000000000000000010
1000000000000000000000000000000001100000000000000111111111110000100100010000000000000000000100000000000000000000000000000000100
1000000000000000000000000000000000010000000000000111111111110000000100010000000000000000000100000000000000000000000000000000100
1000000000000000000000000000000000001100000000001111111111110010100000010000000000000000000100000000000000000000000000000001000
1000000000000000000000000000000000000011000000001111111111111100010000010000000000000000000100000000000000000000000000000001000
1000000000000000000000000000000000000000100000011111111111111000111010010000000000000000000100000000000000000000000000000010000
1000000000000000000000000000000000000001100000011111111111100000111000010000000000000000000100000000000000000000000000000010000
1000000000000000000000000000000000000001000000111111111111100000101010010000000000000000000100000000000000000000000000000100000
1000000000000000000000000000000000000010000001111111111111000000000110010000000000000000000100000000000000000000000000001000000
1000000000000000000000000000000000000010000001001111111110000000010100010000000000000000000100000000000000000000000000001000000
1000000000000000000000000000000000000100000000000001111110000000000100010000000000000000000100000000000000000000000000010000000
1000000000000000000000000000000000000100000000000000000000000000000000010000000000000000000110000000000000000000000000010000000
1000000000000000000000000000000000001000000000000000000000000000001000010000000000000000000001100000000000000000000000100000000
1000000000000000000000000000000000010000000000000000000000000000001000010000000000000000000000011000000000000000000001000000000
1000000000000000000000000000000000010000000000000000000000000000010000010000000000000000000000000110000000000000000001000000000
1000000000000000000000000000000000100000000000000000000000000000000000010000000000000000000000000001000000000000000010000000000
1000000000000000000000000000000000100000000000000000000000010000000000010000000000000000000000000000110000000000000010000000000
1000000000000000000000000000000001000000000110000000000000100010000000010000000000000000000000000000001000000000000100000000000
1000000000000000000000000000000010000000000111000000000000000100000000010000000000000000000000000000000110000000000100000000000
1000000000000000000000000000000010000000000011100000000000000000000000010000000000000000000000000000000001100000001000000000000
1000000000000000000000000000000100000000000000111110000000000000000000010000000000000000000000000000000000010000001000000000000
1000000000000000000000000000001000000000000000011000000000000000000000010000000000000000000000000000000000001110010000000000000
1000000000000000000000000000001111111111111111111111111111111111111111110000000000000000000000000000000000000001100000000000000
1000000000000000000000000000000000000000000000000000000000000000000000000000000000000000000000000000000000000000000000000000000
1000000000000000000000000000000000000000000000000000000000000000000000000000000000000000000000000000000000000000000000000000000
1000000000000000000000000000000000000000000000000000000000000000000000000000000000000000000000000000000000000000000000000000000
1000000000000000000000000000000000000000000000000000000000000000000000000000000000000000000000000000000000000000000000000000001
1000000000000000000000000000000000000000000000000000000000000000000000000000000000000000000000000000000000000000000000000000011
1000000000000000000000000000000000000000000000000000000000000000000000000000000000000000000000000000000000000000000000000000111
1000000000000000000000000000000000000000000000000000000000000000000000000000000000000000000000000000000000000000000000000000011
1000000000000000000000000000000000000000000000000000000000000000000000000000000000000000000000000000000000000000000000000000001
1000000000000000000000000000000000000000000000000000000000000000000000000000000000000000000000000000000000000000000000000000000
1111111111111111111111111111111111111111111111111111111111111111111111111111111111111111111111111111111111111111111111111111111
