P1
127 127
1111111111111111111111111111111111111111111111111111111111111111111111111111111111111111111111111111111111111111111111111111111
0000000000000000000000000000000000000000000000000000000000000000000000000000000000000000000000000000000000000000000000000000001
1000000000000000000000000000000000000000000000000000000000000111110000000000000000000000000000000000000000000000000000000000001
1100001010010010100100010000000000000000000000000000000000000011100000000000000000000000000000000000000001010010010100100010001
1110000100101001001010101000000000000000000000000000000000000001000000000000000000000000000000000000000000100101001001010101001
1100001010010010100100010000000000000000000000000000000000000010000000000000000000000000000000000000000001010010010100100010001
1000000000000000000000000000000000000000000000000000000000000111010000000000000000000000000000000000000000000000000000000000001
0000000000000000000000000000000000000000000000000000000000000100010000000000000000000000000000000000000000000000000000000000001
0000000000000000000000000000000000000000000000000000000000000111110000000000000000000000000000000000000000000000000000000000001
0000000000000000000000000000000000000000000000000000000000000000000000000000000000000000000000000000000000000000000000000000001
1111110000000000000000000000000000000000000000000000000000000000000000000000000000000000000000000000000000000000000000000000001
0000110000000000000000000000000000000000000000110000000000000000000000000000000000000001100000000000000000000000000000000000001
0000100000000000000000000000000000000000000001001000000000000000000000000000000000000010000000000000000000000000000000000000001
0001000000000000000000000000000000000000000001001000000000000000000000000000000000000000010000000000000000000000000000000000001
0001000000000000000000000000000000000000000010000100000000000000000000000000000000000100000000000000000000000000000000000000001
0010000000000000000000000000000000000000000010000100000000000000000000000000000000001000001000000000000000000000000000000000001
0010000000000000000000000000000000000000000100000010000000000000000000000000000000000000000100000000000000000000000000000000001
0100000000000000000000000000000000000000000100000010000000000000000000000000000000000000000000000000000000000000000000000000001
0100000000000000000000000000000000000000001000000001000000000000000000000000000000010000000010000000000000000000000000000000001
1000000000000000000000000000000000000000010000000001000000000000000000000000000000100000000000000000000000000000000000000000001
1000000000000000000000000000000000000000010000000000100000000000000000000000000000100000000001000000000000000000000000000000001
0000000000000000000000000000000000000000100000000000010000000000000000000000000001000000000000100000000000000000000000000000001
0000000000000000000000000000000000000000100000000000010000000000000000000000000000000000000000100000000000000000000000000000001
0000000000000000000000000000000000000001000000000000001000000000000000000000000010000000000000010000000000000000000000000000001
0000000000000000000000000000000000000010000000000000001000000000000000000000000100000000000000010000000000000000000000000000001
0000000000000000000000000000000000000010000000000000000100000000000000000000000000000000000000001000000000000000000000000000001
0000000000000000000000000000000000000100000000000000000100000000000000000000001000000000000000000000000000000000000000000000001
0000000000000000000000000000000000001000000000000000000010000000000000000000010000000000000000000100000000000000000000000000001
0000000000000000000000000000000000001000000000000000000001000000000000000000010000000000000000000010000000000000000000000000001
0000000000000000000000000000000000010000000000000000000001000000000000000000100000000000000000000010000000000000000000000000001
0000000000000000000000000000000000010000000000011100000000100000000000000000100000000000000000000001000000000000000000000000001
0000000000000000000000000000000000010000000000011110000000100000000000000000000000000000000000000001000000000000000000000000001
0000000000000000000000000000000000100000000000111111000000010000000000000001000000000000000000000000100000000000000000000000001
0000000000000000000000000000000001000000000001111111110000001000000000000010000000000000000000000000010000000000000000000000001
0000000000000000000000000000000010000000000001111111111100001000000000000000000000000000000000000000010000000000000000000000001
0000000000000000000000000000000010000000000011111111111110000100000000000100000000000000000000000000001000000000000000000000001
0000000000000000000000000000000100000000000011111111111111000100000000001000000000000000000000000000001000000000000000000000001
0000000000000000000000000000000100000000000111111111111111000010000000001000000000000000000000000000000100000000000000000000001
0000000000000000000000000000001000000000111111000000011111100010000000010000000000000000000000000000000000000000000000000000001
0000000000000000000000000000011000000000111111011100011111100001000000110000000000000000000000000000000010000000000000000000001
0000000000000000000000000000010000000001111111001100011111111001100000100000000000000000000000000000000011000000000000000000001
0000000000000000000000000000100000000011111111000100011111111100100001000000000000000000000000000000000001000000000000000000001
0000000000000000000000000000100000001111111111001000011111111110010001000000000000000000000000000000000000100000000000000000001
1111111111111111111111111111000110011111111111011111011111111111011010000000000000000000000000000000000000110000000000000000001
0000000000000000000000000000000000011111111111000100011111111111101000000000000000000000000000000000000000010000000000000000001
0000000000000000000000000000000000011111111111000111011111111111110100000000000000000000000000000000000000001000000000000000001
0000000000000000000000000000000000011111111111000000011111111111110100000000000000000000000000000000000000001000000000000000001
0000000000000000000000000000010000011111111111111111111111111111111000000000000000000000000000000000000000001000000000000000001
0000000000000000000000000000000001111111111111111111111111111111111100000000000000000000000000000000000000001000000000000000001
1100000011111000000000000000000001111111111111111111111111111111111100000000000000000000000000000000000000001000000000000000001
1100001011111100000000000001110000111111111111111111111111111111111100000000000000000000000000000000000000001000000000000000001
1100001111111111000000000000111000111111111111111111111111111111111110000100000000000000000000000000000000001000000000000000001
1000001111111111100000000000011000011111111111111110000000001111111111000100000000000000000000000000000000001000000000000000001
1000011111111111111111110000000000011111111111111100000000000000111111100000000000000000000000000000000000001000000000000000001
0000011111111111111111111111000000010001111111111000000000000000011111110000000000000000000111111000000000001000000000000000001
0000011111111111111111111101100000010000011111100000000000000000000011110000000100000000001111111110000000001000000000000000001
0000111111111111111111110000100000110000000000000000000000000000000000000000000100000000001111111111000000001000000000000000001
0000111111111111111111110000000000110000000000000000000000000000000000000000000110000000011111111111100000001000000000000000001
0000111111111111111111110000000001000000000000000000000000000000000000000000000011100000111111111111110000001000000000000000001
0000111111111111111111111000000001000000000000000000000000000000000000000000000011110000111111111111111000001000000000000000001
0000111111111111111111111000001001000000000000000000000000000000000000000000000001111001111111111111111000001000000000000000001
0000111111111111111111111000001010000000010000000000000000000000000000000000000001111001111111111111111100001000000000000000001
1101111111111111111111111000001100000000000000000000000000000000000000000000000000111111111111111111111100001000000000000000001
1111111111111111111111111110111100000000000000000000000000000000000000000000000000111111111111111111111110001000000000000000001
1111111111111111111111111111111100000000000000000000000000000000000000000000000000111111111111111111111111001000000000000000001
0111111111111111111111111111111000000000000000000000000000000000000000000000000001111111111111111111111111001000000000000000001
1111111111111111111111111111111000000000000000000000000000000000000000000000000001111111111111111111111111001000000000000000001
1111111111111111111111111111110000000000000000000000000000000000000000000000000000011111111111111111111111001000000000000000001
1111111111111111111111111111110000000000000000000001000000000000000000000000000000011111111111111111111111001000000000000000001
1111111111111111111111111110000000000000000000000011000000000000000000000000000000011111110011111111111110001000000000000000001
1111111111111111111111111110000000000000000000000111000000000000000000000000000000011111110011111111111110001000000000000000001
1111111111111111111111111100000000000000000000000010000000000000000000000000000000000111110011111111111110001000000000000000001
1111111111111111111111111000000000000000000000000101110000000000000000000000000000000011100011111111111100001000000000000000001
1111111111111111111111000000000000000000000000000101000000000000000000000000000000000000000011111111111000001000000000000000001
1111111111111111111100000000000000000000000000000101000000000000000000000000000000000000000001111111111000001000000000000000001
1111111111001111111000000000000000000000000000000000000000000000000000000000000000000000000001111111110000001000000000000000001
1100001110000000000000000000000000000000000000000000000000000000000000000000000000000000000011111111000000001000000000000000001
1000000000000000000000000000000000000000000000000000000000000000000000000000000000000000000011111000000000001000000000000000001
0000000000000000000000000000000000000000000000000000000000000000000000000000000000000000000000000000000000001000000000000000001
0000000000000000000000000000000000000000000000000000000000000000000000000000000000000000000000000000000000001000000000000000001
0000000000000000000000000000000000000000000000000000000000000000000000000000000000000000000000000000000000001000000000000000001
0000000000000000000000000000000000000000000000111111111111111111111111111111111111111111111111111111111111111000000000000000001
0000010000000000000000000000000000000000000000100000000000000000000000000000000000000000000000000000000000000000000000000000001
0000101000000000000000000000000000000000000000010000000000000000000000000000000000000000000000000000000000000000000000000000001
0000000100000000000000000000000000000000000000001000000000000000000000000000000000000000000000000000000000000000000000000000001
0001000000000000000000000000000000000000000000001000000000000000000000000000000000000000000000000000000000000000000000000000001
0000000010000000000000000000000000000000000000000100000000000000000000000000000000000000000000000000000000000000000000000000001
0010000001000000000000000000000000000000000000000100000000000000000000000000000000000000000000000000000000000000000000000000001
0100000001000000000000000000000000000000000000000010000000000000000000000000000000000000000000000000000000000000000000000000001
0100000000100000000000000000000000000000000000000010000000000000000000000000000000000000000000000000000000000000000000000000001
1000000000100000000000000000000000000000000000000001000000000000000000000000000000000000000000000000000000000000000000000000001
1000000000010000000000000000000000000000000000000001000000000000000000000000000000000000000000000000000000000000000000000000001
0000000000000000000000000000000000000000000000000000100000000000000000000000000000000000000000000000000000000000000000000000001
0000000000001000000000000000000000000000000000000000010000000000000000000000000000000000000000000000000000000000000000000000001
0000000000000000000011000000000000000000000000000000010000000000000000000000000000000000000000000000000000000000000000000000001
0000000000000100000100000000000000000000000000000000001000000000000000000000000000000000000000000000000000000000000000000000001
0000000000000010000000000000000000000000000000000000001100000000000000000000000000000000000000000000000000000000000000000000001
0000000000000000000000000000000000000000000000000000000100000000000000000000000000000000000000000000000000000000000000000000001
0000000000000001000000000000000000000000000000000000000010000000000000000000000000000000000000000000000000000000000000000000001
0000000000000000100000000000001000000000000000000000000011000000000000000000000000000000000000000000000000000000000000000000001
0000000000000000100000000000000000000000000000000000000001000000000000000000000000000000000000000000000000000000000000000000001
0000000000000000010000000000000000000000000000000000000001100000000000000000000000000000000000000000000000000000000000000000001
0000000000000000010000000000000000000000000000000000000000100000000000000000000000000000000000000000000000000000000000000000001
0000000000000000001000000000000000000000000000000000000000010000000000000000000000000000000000000000000000000000000000000000001
0000000000000000000000000000000000000000000000000000000000010000000000000000000000000000000000000000000000000000000000000000001
0000000000000000000100000000000000000000000000000000000000001000000000000000000000000000000000000000000000000000000000000000001
0000000000000000000000000000000000000000000000000000000000001000000000000000000000000000000000000000000000000000000000000000001
0000000000000000000010000000000000000000000000000000000000000100000000000000000000000000000000000000000000000000000000000000001
0000000000000000000001000000000000000000000000000000000000000110000000000000000000000000000000000000000000000000000000000000001
0000000000000000000000000000000000000000000000000000000000000010000000000000000000000000000000000000000000000000000000000000001
0000000000000000000000100000000000000001000000000000000000000001000000000000000000000000000000000000000000000000000000000000001
0000000000000000000000010000000000000000000000000000000000000001100000000000000000000000000000000000000000000000000000000000001
0000000000000000000000010000000000000000000000000000000000000000100000000000000000000000000000000000000000000000000000000000001
0000000000000000000000001000000000000000000000000000000000000000110000000000000000000000000000000000000000000000000000000000001
0000000000000000000000001000000000000000000000000000000000000000010000000000000000000000000000000000000000000000000000000000001
0000000000000000000000000100000000010000000000000000000000000000001000000000000000000000000000000000000000000000000000000000001
0000000000000000000000000011111111111111111111111111111111111111111000000000000000000000000000000000000000000000000000000000001
0000000000000000000000000000000000000000000000000000000000000000000000000000000000000000000000000000000000000000000000000000001
0000000000000000000000000000000000000000000000000000000000000000000000000000000000000000000000000000000000000000000000000000001
0000000000000000000000000000000000000000000000000000000000000000000000000000000000000000000000000000000000000000000000000000001
1000000000000000000000000000000000000000000000000000000000000000000000000000000000000000000000000000000000000000000000000000001
1100000000000000000000000000000000000000000000000000000000000000000000000000000000000000000000000000000000000000000000000000001
1110000000000000000000000000000000000000000000000000000000000000000000000000000000000000000000000000000000000000000000000000001
1100000000000000000000000000000000000000000000000000000000000000000000000000000000000000000000000000000000000000000000000000001
1000000000000000000000000000000000000000000000000000000000000000000000000000000000000000000000000000000000000000000000000000001
0000000000000000000000000000000000000000000000000000000000000000000000000000000000000000000000000000000000000000000000000000001
1111111111111111111111111111111111111111111111111111111111111111111111111111111111111111111111111111111111111111111111111111111
