P1
127 127
1111111111111111111111111111111111111111111111111111111111111111111111111111111111111111111111111111111111111111111111111111111
1000000000000000000000000000000000000000000000000000000000000000000000000000000000000000000000000000000000000000000000000000001
1000000000000000000000000000000000000000000000000000000000000101000000000000000000000000000000000000000000000000000000000000001
1001010010010100100101000000000000000000000000000000000000000111000000000000000000000000000000000000000001010010010100100101001
1000100101001001010010000000000000000000000000000000000000000101110000000000000000000000000000000000000000100101001001010010001
1001010010010100100101000000000000000000000000000000000000000110000000000000000000000000000000000000000001010010010100100101001
1000000000000000000000000000000000000000000000000000000000000101110000000000000000000000000000000000000000000000000000000000001
1000000000000000000000000000000000000000000000000000000000000000010000000000000000000000000000000000000000000000000000000000001
1000000000000000000000000000000000000000000000000000000000000111010000000000000000000000000000000000000000000000000000000000001
1000000000000000000000000000000000000000000000000000000000000000000000000000000000000000000000000000000000000000000000000000001
1000000000000000000000001000000000000000000000000000000000000000000000000000000000000000000000000000000000000000000000000000001
1000000000000000000001011000000000000000000000000000000000000000000000000000000000000000000000000000000000000000000000000000001
1000000000000000000011111000000000000000000000000000000000000000000000000000000000000000000000000000000000000000000000000000001
1000000000000000000011101000000000000000000000000000000000000000000000000000000000000000000000000000000000000000000000000000001
1000000000000000000010101000000000000000000000000000000000000000000000000000000000000000000000000000000000000000000000000000001
1000000000000000000010100000000000000000000000000000000000000000000000000000000000000000000000000000000000000000000000000000001
1000000000000000000010100000000000000000000000000000000000000000000000000000000000000000000000000000000000000000000000000000001
1000000000000000000000000000000000000000000000000000000000000000000000000000000000000000000000000000000000000000000000000000001
1000000000000111100000000000011111000000000000000000000000000000000000000000000000000000000000000000000000000000000000000000001
1000000000111000000000000000000100000000000000000000000000000000000000000000000000000000000000000000000000000000000000000000001
1000000011000000000000000000000100000000000000000000000000000000000000000000000000000000000000000000000000000000000000000000001
1000000100000000000000000000000100000000000000000000000000000000000000000000000000000000000000000000000000000000000000000000001
1000001000000000000000000000000100000000000000000000000000000000000000000000000000000000000000000000000000000000000000000000001
1000001000000000000000000000000100000000000000000000000000000000000000000000000000000000000000000000000000000000000000000000001
1000000100000000000000000000000100000000000000000000000000000000000000000000000000000000000000000000000000000000000000000000001
1000000011000000000000000000000100000000000000000000000000000000000000000000000000000000000000000000000000000000000000000000001
1000000000111000000000000000000100000000000000000000000000000000000000000000000000000000000000000000000000000000000000000000001
1000000000000111100000000000000100000000000000000000000000000000000000000000000000000000000000000000000000000000000000000000001
1000000000000000011110000000000100000000000000000000000000000000000000000000000000000000000000000000000000000000000000000000001
1000000000000000000001110000000100000000000000000000000000000000000000000000000000000000000000000000000000000000000000000000001
1000000000000000000000001100000100000000000000000000000000000000000000000000000000000000000000000000000000000000000000000000001
1000000000000000000000000010000100000000000000000000000000000000000000000000000000000000000000000000000000000000000000000000001
1000000000000000000000000001000100000000000000000000000000000000000000000000000000000000000000000000000000000000000000000000001
1000000000000000000000000001000101111100000000000000000000000000000000000000000000000000000000000000000000000000000000000000001
1000000000000000000000000010000100010000111000001110111010001000111110001000111000101110001000001000001000001000111000000000001
1000000000000000000000001100000100010000000100001000111010001000100000001000001000100000001000001000001000001000100100000000001
1000000000000000000001110000000100010000111110111110101010111110100000111110101000111000111110111110111110111110101010000000001
1000000000000000011110000000000100010000010010001000100000100010100000100010100000100000100010100010100010100010011010000000001
1000000000000111100000000000000100010000111110111110111000111110100000111110101110111000111110111110111110111110001010000000001
1000000000111000000000000000000100010000101000001000001000001000100000001000100000100000001000001000001000001000001000000000001
1000000011000000000000000000000100010000101000111000111110001000100000001000111000111000001000001000001000001000111000000000001
1000000100000000000000000000000100010000000000000000000000000000000000000000000000000000000000000000000000000000000000000000001
1000001000000000000000000000000100010000000000000000000000000000000000000000000000000000000000000000000000000000000000000000001
1000001000000000000000000000000100010000001110001110001000001110001000111010000010101110111110000010000010000000000000000000001
1000000100000000000000000000000100010000000100001000001000000010001000111010010010110000100000010110010010000000000000000000001
1000000011000000000000000000000100010000001110111110111110000010111110101010101010111000111110111010000010000000000000000000001
1000000000111000000000000000000100010000010000001000100010010000100010100000101010101000100000001000010000000000000000000000001
1000000000000111100000000000000100010000100010111110111110100000111110111000111110111110101110111000101010000000000000000000001
1000000000000000011110000000000100010000100010001000001000100000001000001000001000101000100000101000101010000000000000000000001
1000000000000000000001110000000100010000111110111000001000111000001000111110111000111110100000111000111110000000000000000000001
1000000000000000000000001100000100010000000000000000000000000000000000000000000000000000000000000000000000000000000000000000001
1000000000000000000000000010000101111100000000000000000000000000000000000000000000000000000000000000000000000000000000000000001
1000000000000000000000000001000100000000000000000000000000000000000000000000000000000000000000000000000000000000000000000000001
1000000000000000000000000001000100000000000000000000000000000000000000000000000000000000000000000000000000000000000000000000001
1000000000000000000000000010000100000000000000000000000000000000000000000000000000000000000000000000000000000000000000000000001
1000000000000000000000001100000100000000000000000000000000000000000000000000000000000000000000000000000000000000000000000000001
1000000000000000000001110000000100000000000000000000000000000000000000000000000000000000000000000000000000000000000000000000001
1000000000000000011110000000000100000000000000000000000000000000000000000000000000000000000000000000000000000000000000000000001
1000000000000111100000000000000100000000000000000000000000000000000000000000000000000000000000000000000000000000000000000000001
1000000000111000000000000000000100000000000000000000000000000000000000000000000000000000000000000000000000000000000000000000001
1000000011000000000000000000000100000000000000000000000000000000000000000000000000000000000000000000000000000000000000000000001
1000000100000000000000000000000100000000000000000000000000000000000000000000000000000000000000000000000000000000000000000000001
1000001000000000000000000000000100111110111000111010111110111110111000111010111110111000111110000000000000000000000000000000001
1000001000000000000000000000000100100000001000001110000010100000001000001110000010001000100000000000000000000000000000000000001
1000000100000000000000000000000100100000101000001010101010100000101000001010101010101000111110000000000000000000000000000000001
1000000011000000000000000000000100100000100000010000111010100000100000010000111010100000100000000000000000000000000000000000001
1000000000111000000000000000000100100000101110100000101010100000101110100000101010101110101110000000000000000000000000000000001
1000000000000111100000000000000100100000100000100000100000100000100000100000100000100000100000000000000000000000000000000000001
1000000000000000011110000000000100100000111000100000111110100000111000100000111110111000100000000000000000000000000000000000001
1000000000000000000001110000000100000000000000000000000000000000000000000000000000000000000000000000000000000000000000000000001
1000000000000000000000001100000100000000000000000000000000000000000000000000000000000000000000000000000000000000000000000000001
1000000000000000000000000010000100101110111110001000001000001000101000000000000000000000000000000000000000000000000000000000001
1000000000000000000000000001000100100000100000001000001000001000111000000000000000000000000000000000000000000000000000000000001
1000000000000000000000000001000100111000111110111110111110111110101000000000000000000000000000000000000000000000000000000000001
1000000000000000000000000010000100100000100000100010100010100010100000000000000000000000000000000000000000000000000000000000001
1000000000000000000000001100000100111000101110111110111110111110111110000000000000000000000000000000000000000000000000000000001
1000000000000000000001110000000100100000100000001000001000001000100010000000000000000000000000000000000000000000000000000000001
1000000000000000011110000000000100111000100000001000001000001000101110000000000000000000000000000000000000000000000000000000001
1000000000000111100000000000000100000000000000000000000000000000000000000000000000000000000000000000000000000000000000000000001
1000000000111000000000000000000100000000000000000000000000000000000000000000000000000000000000000000000000000000000000000000001
1000000011000000000000000000000100000000000000000000000000000000000000000000000000000000000000000000000000000000000000000000001
1000000100000000000000000000000100000000000000000000000000000000000000000000000000000000000000000000000000000000000000000000001
1000001000000000000000000000000100000000000000000000000000000000000000000000000000000000000000000000000000000000000000000000001
1000001000000000000000000000000100000000000000000000000000000000000000000000000000000000000000000000000000000000000000000000001
1000000100000000000000000000000100000000000000000000000000000000000000000000000000000000000000000000000000000000000000000000001
1000000011000000000000000000000100000000000000000000000000000000000000000000000000000000000000000000000000000000000000000000001
1000000000111000000000000000000100000000000000000000000000000000000000000000000000000000000000000000000000000000000000000000001
1000000000000111100000000000000100000000000000000000000000000000000000000000000000000000000000000000000000000000000000000000001
1000000000000000011110000000000100000000000000000000100000001110111110111010001000001000001000001000111000000000000000000000001
1000000000000000000001110000000100000000000000000000110000001000100000111010001000001000001000001000110000000000000000000000001
1000000000000000000000001100000100000000000000000000111110111110100000101010111110111110111110111110101010000000000000000000001
1000000000000000000000000010000100000000000000000000100010001000100000100000100010100010100010100010101010000000000000000000001
1000000000000000000000000001000100000000000000000000111010111110100000111000111110111110111110111110101110000000000000000000001
1000000000000000000000000001000100000000000000000000001000001000100000001000001000001000001000001000101000000000000000000000001
1000000000000000000000000010000100000000000000000000111000111000100000111110001000001000001000001000111000000000000000000000001
1000000000000000000000001100000100000000000000000000000000000000000000000000000000000000000000000000000000000000000000000000001
1000000000000000000001110000000100000000000000000000000000000000000000000000000000000000000000000000000000000000000000000000001
1000000000000000011110000000011111000000000000000000000000000000000000000000000000000000000000000000000000000000000000000000001
1000000000000000000000000000000000000000000000000000000000000000000000000000111000000000000000000000000000000000000000000000001
1000000000000000000000000000000000000000000000000000000000000000000000000001111100000000000000000000000000000000000000000000001
1000000000000000000000000000000000000000000000000000000000000000000000000010010010000000000000000000000000000000000000000000001
1000000000000000000000000000000000000000000000000000000000000000000000000100000001000000000000000000000000000000000000000000001
1000000000000000000000000000000000000000000000000000000000000000000000001000000000100000000000000000000000000000000000000000001
1000000000000000000000000000000000000000000000000000000000000000000000010000000000010000000000000000000000000000000000000000001
1000000000000000000000000000000000000000000000000000000000000000000000100000000000001000000000000000000000000000000000000000001
1000000000000000000000000000000000000000000000000000000000000000100001000000000000000100001000000000000000000000000000000000001
1000000000000000000000000000000000000000000000000000000000000000010010000000000000000010010000000000000000000000000000000000001
1000000000000000000000000000000000000000000000000000000000000000001100000000000000000001100000000000000000000000000000000000001
1000000000000000000000000000000000000000000000000000000000000000000011100000000000001110000000000000000000000000000000000000001
1000000000000001110000000000000000000000000000000000000000000000000000011000000000110000000000000000000000000000000000000000001
1000000000000011111000000000000000000000000000000000000000000000000000000111111111000000000000000000000000000000000000000000001
1000000000000100100100000000000000000000000000000000000000000000000000000000000000000000000000000000000000000000000000000000001
1000000000001000000010000000000000000000000000000000000000000000111111111111111111111111111000000000000000000000000000000000001
1000000000010000000001000000000011111000000000000000000000000000000000000000000000000000000000000000000000000000000000000000001
1000000000100000000000100000000001110000000000000000000000000000000000000000000000000000000001110100010000000100000000000000001
1000000001000000000000010000000000100000000000000000000000000000100000000000000000000000001000011100010000100100000000000000001
1001000010000000000000001000010001000000000000000000000000000000100000000000000000000000001000010101111100000100000000000000001
1000100100000000000000000100100011101000000000000000000000000000111111111111111111111111111000100001000100100000000000000000001
1000011000000000000000000011000010001000000000000000000000000000100000000000000000000000001001000001111101010100000000000000001
1000000111000000000000011100000011111000000000000000000000000000100000000000000000000000001001000000010001010100000000000000001
1000000000110000000001100000000000000000000000000000000000000000000000000000000000000000000001000000010001111100000000000000001
1000000000001111111110000000000000000000000000000000000000000000000000000000000000000000000000000000000000000000000000000000001
1000000000000000000000000000000000000000000000000000000000000000000000000000000000000000000000000000000000000000000000000000001
1001111111111111111111111111110000000000000000000000000000000000000000000000000000000000000000000000000000000000000000000000001
1000000000000000000000000000000000000000000000000000000000000000000000000000000000000000000000000000000000000000000000000000001
1000000000000000000000000000000000000000000000000000000000000000000000000000000000000000000000000000000000000000000000000000001
1111111111111111111111111111111111111111111111111111111111111111111111111111111111111111111111111111111111111111111111111111111
