P1
127 127
1111111111111111111111111111111111111111111111111111111111111111111111111111111111111111111111111111111111111111111111111111111
1000000000000000000000000000000000000000000000000000000000000000000000000000000000000000000000000000000000000000000000000000001
1000000000000000000000000000000000000000000000000000000000000111110000000000000000000000000000000000000000000000000000000000001
1001010010010101010010000000000000000000000000000000000000000101010000000000000000000000000000000000000001010010010101010010001
1000100101001000100101000000000000000000000000000000000000000111110000000000000000000000000000000000000000100101001000100101001
1001010010010101010010000000000000000000000000000000000000000111010000000000000000000000000000000000000001010010010101010010001
1000000000000000000000000000000000000000000000000000000000000111110000000000000000000000000000000000000000000000000000000000001
1000000000000000000000000000000000000000000000000000000000000101010000000000000000000000000000000000000000000000000000000000001
1000000000000000000000000000000000000000000000000000000000000111110000000000000000000000000000000000000000000000000000000000001
1000000000000000000000000000000000000000000000000000000000000000000000000000000000000000000000000000000000000000000000000000001
1000000000000000000000000000000000000000000000000000000000000000000000000000000000000000000000000000000000000000000000000000001
1000000000000000000000000000000000000000000000000000000000000000000000000000000000000000000000000000000000000000000000000000001
1000000000000000000000000000000000000000000000000000000000000000000000000000000000000000000000000000000000000000000000000000001
1000000000000000000000000000000000000000000000000000000000000000000000000000000000000000000000000000000000000000000000000000001
1000000000000000000000000000000000000000000000000000000000000000000000000000000000000000000000000000000000000000000000000000001
1000000000000000000000000000000000000000000000000000000000000000000000000000000000000000000000000000000000000000000000000000001
1000000000000000000000000000000000000000000000000000000000000000000000000000000000000000000000000000000000000000000000000000001
1000000000000000000000000000000000000000000000000000000000000000000000000000000000000000000000000000000000000000000000000000001
1000000000000000000000000000000000000000000000000000000000000000000000000000000000000000000000000000000000000000000000000000001
1000000000000000000111000000000000000000000000000000000000000000000000000000000000000000000000000000000000000000000000000000001
1000000000000000000001000000000000000000000000000000000000000000000000000000000000000000000000000000000000000000000000000000001
1000000000000000000101000000000000000000000000000000000000000000000000000000000000000000000000000000000000000000000000000000001
1000000000000100010100000001110101110001110111110111110001110111110001110111110101110000000101110101110001110111110000000000001
1000000000000110010101110001000110000001000100000000010010100000010010110000010111010000000100000101100001000100000000000000001
1000000000000111110100000111110111000101010111110101010111110101010111010101010101110000000101000111110101010111110000000000001
1000000000000110010111000001000101000100010100000111010100000111010011010111010010010111110111100010000100010100000000000000001
1000000000000111110000000111110111110101010101110101010100010101010111010101010101110101010101000101110101010101110000000000001
1000000000000101010000000001000101000001000100000100000100010100000101000100000101010111110100000100000001000100000000000000001
1000000000000111010000000111000111110111000100000111110100010111110111110111110101010111010101110111000111000100000000000000001
1000000000000000000000000000000000000000000000000000000000000000000000000000000000000111110000000000000000000000000000000000001
1000000000000000000000000000000000000000000000000000000000000000000000000000000000000101010000000000000000000000000000000000001
1000000000000000000000000000000000000000000000000000000000000000000000000000000000000111110000000000000000000000000000000000001
1000000000000000000000000000000000000000000000000000000000000000000000000000000000000000000000000000000000000000000000000000001
1000000000000000000000000000000000000000000000000000000000000000000000000000000000000000000000000000000000000000000000000000001
1000000000000000000000000000000000000000000000000000000000000000000000000000000000000000000000000000000000000000000000000000001
1000000000000000000000000000000000000000000000000000000000000000000000111011100011101000000000000000000000000011111000000000001
1000000000000000000000000000000000000000000000000000000000000000000000100000100000111000000000000000000000000010000000000000001
1000000000000000000000000000000000000000000000000000000000000000000000100010100000101000000000000000000000000011111000000000001
1000000010111000000000111011100000111011101000001011111011111000100000100010000001000011111000111000111000001010000000000000001
1000000011101000000000100000100000001000111001011000001010000000100000100010111010000000001001101000100001001010111000000000001
1000000010111000000011111010100000001000101011101010101010000011111000100010000010000010101010111010101000001010000000000000001
1000000001001011111000100010000001000001000000100011101010000010001011100011100010000011101010001010001001000010000000000000001
1000000010111010101011111010111010000010000011100010101010000011111000000000000000000010101010101010101010101000000000000000001
1000000010101011111000100010000010000010000010100010000010000000100000000000000000000010000000101000100010101000000000000000001
1000000010101011101011100011100011100010000011100011111010000000100000000000000000000011111000101011100011111000000000000000001
1000000000000011111000000000000000000000000000000000000000000000000000000000000000000000000000000000000000000000000000000000001
1000000000000010101000000000000000000000000000000000000000000000000000000000000000000000000000000000000000000000000000000000001
1000000000000011111000000000000000000000000000000000000000000000000000000000000000000000000000000000000000000000000000000000001
1000000000000000000000000000000000000000000000000000000000000000000000000000000000000000000000000000000000000000000000000000001
1000000000000000000000000000000000000000000000000000000000000000000000000000000000000000000000000000000000000000000000000000001
1000000000000000000000000000000000000000000000000000000000000000000000000000000000000000000000000000000000000000000000000000001
1000000000000000000000000000000000000000000000000000000000000000000000000000000000000000000000000000000000000000000000000000001
1000000000000000000000000000000000000000000000000000000000000000000000000000000000000000000000000000000000000000000000000000001
1000000000000000000000000000000000000000000000000000000000000000000001110111110111010000000000000001110111000000000000000000001
1000000000000000000000000000000000000000000000000000000000000000000001000100000111010000000000000001000001000000000000000000001
1000000000000000000000000000000000000000000000000000000000000000000001000111110101010000000000000001000101000000000000000000001
1000000000000101110001110111110001110001000101110111110111110001000001000100000100000111110001110001000100000000000000000000001
1000000000000101100001000100000000010001000110000000010100000001000001000101110111000000010011000001000101110000000000000000001
1000000000000111110111110100000000010111110111000101010100000111110001000100000001000101010001010001000100000000000000000000001
1000000000000010000001000100000010000100010101000111010100000100010111000100000111110111010011010111000111000000000000000000001
1000000000000101110111110100000100000111110111110101010100000111110000000000000000000101010111110000000000000000000000000000001
1000000000000100000001000100000100000001000101000100000100000001000000000000000000000100000101010000000000000000000000000000001
1000000000000111000111000100000111000001000111110111110100000001000000000000000000000111110111110000000000000000000000000000001
1000000000000000000000000000000000000000000000000000000000000000000000000000000000000000000000000000000000000000000000000000001
1000000000000000000000000000000000000000000000000000000000000000000000000000000000000000000000000000000000000000000000000000001
1000000000000000000000000000000000000000000000000000000000000000000000000000000000000000000000000000000000000000000000000000001
1000000000000000000000000000000000000000000000000000000000000000000000000000000000000000000000000000000000000000000000000000001
1000000000000000000000000000000000000000000000000000000000000000000000000000000000000000000000000000000000000000000000000000001
1000000000000000000000000000000000000000000000000000000000000000000000000000000000000000000000000000000000000000000000000000001
1000000000000000000000000000000000000000000000000000000000000000000000000000000000000000000000000000000000000000000000000000001
1000000000000000000000000000000000000000000000000000000000000000000000000000000000000000000000000000000000000000000000000000001
1000000000000000000000000000000000000000000000000000000000000000000000000000000000000000000000000000000000000000000000000000001
1000000000000000000000000000000000000000000000000000000000000000000000000000000000000000000000000000000000000000000000000000001
1000000000000000000000000000000000000000000000000000000000000000000000000000000000000000000000000000000000000000000000000000001
1000000000000000000000000000000000000000000000000000000000000000000000000000000000000000000000000000000000000001110111110000001
1000000000000000000000000000000000000000000000000000000000000000000000000000000000000000000000000000000000000001000100000000001
1000000000000000000000000000000000000000000000000000000000000000000000000000000000000000000000000000000000000001000100000000001
1000000100010001110111110001110111110101110001000001000001000001000001000001000001000001000001000111110111110001000100000000001
1000000110010001000100000001000100000100000001000001000001000001000001000001000001000001000001000000010110000001000100000000001
1000000111110111110100000101010100000111000111110111110111110111110111110111110111110111110111110101010111010001000100000000001
1000000110010001000100000100010100000100000100010100010100010100010100010100010100010100010100010111010111010111000100000000001
1000000111110111110100000101010100000111000111110111110111110111110111110111110111110111110111110101010101110000000000000000001
1000000101010001000100000001000100000100000001000001000001000001000001000001000001000001000001000100000101010000000000000000001
1000000111010111000100000111000100000111000001000001000001000001000001000001000001000001000001000111110101010000000000000000001
1000000000000000000000000000000000000000000000000000000000000000000000000000000000000000000000000000000000000000000000000000001
1000000000000000000000000000000000000000000000000000000000000000000000000000000000000000000000000000000000000000000000000000001
1000000000000000000000000000000000000000000000000000000000000000000000000000000000000000000000000000000000000000000000000000001
1000000000000000000000000000000000000000000000000000000000000000000000000000000000000000000000000000000000000000000000000000001
1000000000000000000000000000000000000000000000000000000000000000000000000000000000000000000000000000000000000000000000000000001
1000000000000000000000000000000000000000000000000000000000000000000000000000000000000000000000000000000000000000000000000000001
1000000000000000000000000000000000000000000000000000000000000000000000000000000000000000000000000000000000000000000000000000001
1000000000000000000000000000000000000000000000000000000000000000000000000000000000000000000000000000000000000000000000000000001
1000000000000000000000000000000000000000000000000000000000000000000000000000000000000000000000000000000000000000000000000000001
1000000000000000000000000000000000001111100000000011101110000011101110101111100000101111100000000000000000000000000000000000001
1000000000000000000000000000000000000010000000000010000010000000100011101000000101100101000000000000000000000000000000000000001
1000000000000000000000000000000000000010000000001111101010000000100010101111101110101111100000000000000000000000000000000000001
1000000000000000000000000000000000000010001111100010001000000100000100001000000010000010000000000000000000000000000000000000001
1000000000000000000000000000000000001010001010101111101011101000001000001011101110001010100000000000000000000000000000000000001
1000000000000000000000000000000000001000001111100010001000001000001000001000001010001010100000000000000000000000000000000000001
1000000000000000000000000000000000001000001110101110001110001110001000001000001110001010100000000000000000000000000000000000001
1000000000000000000000000000000000000000001111100000000000000000000000000000000000000000000000000000000000000000000000000000001
1000000000000000000000000000000000000000001010100000000000000000000000000000000000000000000000000000000000000000000000000000001
1000000000000000000000000000000000000000001111100000000000000000000000000000000000000000000000000000000000000000000000000000001
1000000000000000000000000000000000000000000000000000000000000000000000000000000000000000000000000000000000000000000000000000001
1000000000000000000000000000000000000000000000000000000000000000000000000000000000000000000000000000000000000000000000000000001
1000000000000000000000000000000000000000000000000000000000000000000000000000000000000000000000000000000000000000000000000000001
1000000000000000000000000000000000000000000000000000000000000000000000000000000000000000000000000000000000000000000000000000001
1000000000000000000000000000000000000000000000000000000000000000000000000000000000000000000000000000000000000000000000000000001
1000000000000000000000000000000000000000000000000000000000000000000000000000000000000000000000000000000000000000000000000000001
1000000000000000000000000000000000000000000000000000000000000000000000000000000000000000000000000000000000000000000000000000001
1000000000000000000000000000000000000000000000000000000000000000000000000000000000000000000000000000000000000000000000000000001
1000000000000000000000000000000000000000000000000000000000000000000000000000000000000000000000000000000000000000000000000000001
1000000000000000000000000000000000000000000000000000000000000000000000000000000000000000000000000000000000000000000000000000001
1000000000000000000000000000000000000000000000000000000000000000000000000000000000000000000000000000000000000000000000000000001
1000000000000000000000000000000000000000000000000000000000000000000000000000000000000000000000000000000000000000000000000000001
1000000000000000000000000000000000000000000000000000000000000000000000000000000000000000000000000000000000000000000000000000001
1000000000000000000000000000000000000000000000000000000000000000000000000000000000000000000000000000000000000000000000000000001
1000000000000000000000000000000000000000000000000000000000000000000000000000000000000000000000000000000000000000000000000000001
1000000000000000000000000000000000000000000000000000000000000000000000000000000000000000000000000000000000000000000000000000001
1000000000000000000000000000000000000000000000000000000000000000000000000000000000000000000000000000000000000000000000000000001
1000000000000000000000000000000000000000000000000000000000000000000000000000000000000000000000000000000000000000000000000000001
1000000000000000000000000000000000000000000000000000000000000000000000000000000000000000000000000000000000000000000000000000001
1000000000000000000000000000000000000000000000000000000000000000000000000000000000000000000000000000000000000000000000000000001
1000000000000000000000000000000000000000000000000000000000000000000000000000000000000000000000000000000000000000000000000000001
1000000000000000000000000000000000000000000000000000000000000000000000000000000000000000000000000000000000000000000000000000001
1000000000000000000000000000000000000000000000000000000000000000000000000000000000000000000000000000000000000000000000000000001
1111111111111111111111111111111111111111111111111111111111111111111111111111111111111111111111111111111111111111111111111111111
