P1
127 127
1111111111111111111111111111111111111111111111111111111111111111111111111111111111111111111111111111111111111111111111111111111
1000000000000000000000000000000000000000000000000000000000000000000000000000000000000000000000000000000000000000000000000000001
1000000000000000000000000000000000000000000000000000000000000101010000000000000000000000000000000000000000000000000000000000001
1001010010010101010101000000000000000000000000000000000000000111110000000000000000000000000000000000000001010010010101010101001
1000100101001000100010000000000000000000000000000000000000000111110000000000000000000000000000000000000000100101001000100010001
1001010010010101010101000000000000000000000000000000000000000001000000000000000000000000000000000000000001010010010101010101001
1000000000000000000000000000000000000000000000000000000000000111110000000000000000000000000000000000000000000000000000000000001
1000000000000000000000000000000000000000000000000000000000000001000000000000000000000000000000000000000000000000000000000000001
1000000000000000000000000000000000000000000000000000000000000001000000000000000000000000000000000000000000000000000000000000001
1000000000000000000000000000000000000000000000000000000000000000000000000000000000000000000000000000000000000000000000000000001
1000000000000000000000000000000000000000000000000000000000000000000000000000000000000000000000000000000000000000000000000000001
1000000000000000000000000000000000000000000000000000000000000000000000000000000000000000000000101010111110000000000000000000001
1000000000000000000000000000000000000000000000000000000000000000000000000000000000000000000000111110010010000000000000000000001
1000000000000000000000000000000000000000000000000000000000000000000000000000000000000000000000111110000010000000000000000000001
1000000000000101010001110000000000000000000000000000000000000000000000000000000000000000000000001000010000000000000000000000001
1000000000000111110011010000000000000000000000000000000000000000000000000000000000000000000000111110001110000000000000000000001
1000000000000111110101110000000000000000000000000001010101111100000000000000000000000000000000001000001000000000000000000000001
1000000000000001000100010000000000000000000000000001111100111000000000000000000000000000000000001000001000000000000000000000001
1000000000000111110101010000000000000000000000000001111100010000000000000000000000000000000000000000000000000000000000000000001
1000000000000001000001010000000000000000000000000000010000100000000100000000000000000000000000000000000000000000000000000000001
1000000000000001000001010000000000000000000000000001111101110100101100000000000000000000000000101010111110000000000000000000001
1000000000000000000000000000000000000000000000000000010001000101111100000000000000000000000000111110010010000000000000000000001
1000000000000000000000000000000000000000000000000000010001111101110100000000000000000000000000111110111010000000000000000000001
1000000000000101010000010000000000000000000000000000000000000001010100000000000000000000000000001000010000000000000000000000001
1000000000000111110010010000000000000000000000000000000000000001010000000000000000000000000000111110111000000000000000000000001
1000000000000111110000010000000000000000000000000000000000000001010000000000000000000000000000001000001000000000000000000000001
1000000000000001000010000000000000000000000000000000000000000000000000000000000000000000000000001000001110000000000000000000001
1000000000000111110101010000000000000000000000000000000000000000000000000000000000000000000000000000000000000000000000000000001
1000000000000001000101010000000000000000000000000000000000000000000000000000000000000000000000000000000000000000000000000000001
1000000000000001000111110000000000000000000000000000000000000000000000000000000000000000000000000000000000000000000000000000001
1000000000000000000000000000000000000000000000000000000000000000000000000000000000000000000000000000000000000000000000000000001
1000000000000000000000000000000000000000000000000000000000000000000000000000000001010101110100000000000000000000000000000000001
1000000000000101010001110000000000000000000000000000000000000000000000000000000001111101001100000000000000000000000000000000001
1000000000000111110011000000000000000000000000000000000000000000000000000000000001111101000100000000010101011100000000000000001
1000000000000111110001010000000000000000000000000000000000000000000000000000000000010001100000000000011111001100000000000000001
1000000000000001000011010000000000000000000000000000000000000000000000000000000001111101000000000000011111000100000000000000001
1000000000000111110111110000000000000000000000000000000000000000000000000000000000010001000000000000000100001000000001000000001
1000000000000001000101010000000000000000000000000000000000000000000000000000000000010001110000000000011111011111001011000000001
1000000000000001000111110000000000000000000000000000000000000000000000000000000000000000000000000000000100000100011111000000001
1000000000000000000000000000000000000000000000000000000000000000000000000000000000000000000000000000000100000111011101000000001
1000000000000000000000000000000000000000000000000000000000000000000000000000000001010100011100000000000000000000010101000000001
1000000000000000000000000000000101010111110000000000000000000000000000000000000001111100101000000000000000000000010100000000001
1000000000000000000000000000000111110110000000000000000000000000000000000000000001111100011100000000000000000000010100000000001
1000000000000000000000000000000111110100000000000000000000000000000000000000000000010000010000000000000000000000000000000000001
1000000000000000000000000000000001000010000000010000000000000000000000000000000001111100011100000000000000000000000000000000001
1000000000000000000000000000000111110101110010110000000000000000000000000000000000010000010000000000010101011111000000000000001
1000000000000000000000000000000001000100010111110000000000000000000000000000000000010001110000000000011111011100000000000000001
1000000000000000000000000000000001000100010111010000000000000000000000000000000000000000000000000000011111010111000000000000001
1000000000000000000000000000000000000000000101010000000000000000000000000000000000000000000000000000000100001000000001000000001
1000000000000000000000000000000000000000000101000000000000000000000000000000000001010101110000000000011111011100001011000000001
1000000000000000000000000000000000000000000101000000000000000000000000000000000001111101101000000000000100010100011111000000001
1000000000000000000000000000000000000000000000000000000000000000000000000000000001111101110000000000000100010111011101000000001
1000000000000000000000000000000000000000000000000000000000000000000000000000000000010001010000000000000000000000010101000000001
1000000000000000000000000000000101010101000000000000000011100011100011100000000001111101110100000000000000000000010100000000001
1000000000000000000000000000000111110111000000000000000011100011100011100000000000010001010100000000000000000000010100000000001
1000000000000000000000000000000111110101110000000000000011100011100011100000000000010001010100000000000000000000000000000000001
1000000000000000000000000000000001000110000000010000000011111111111111100000000000000000000000000000000000000000000000000000001
1000000000000000000000000000000111110101110010110000000011111111111111100000000000000000000000000000010101000100000000000000001
1000000000000000000000000000000001000000010111110000000011111111111111100000000001010101000000000000011111001100000000000000001
1000000000000000000000000000000001000111010111010000000011111111111111100000000001111101100000000000011111011100000000000000001
1000000000000000000000000000000000000000000101010000000011111111111111100000000001111101111100000000000100001000000001000000001
1000000000000000000000000000000000000000000101000000000011111111111111100000000000010001000100000000011111010111001011000000001
1000000000000000000000000000000000000000000101000000000000000011100000000000000001111101110100000000000100010100011111000000001
1000000000000000000000000000000000000000000000000000000000000011100000000000000000010000010000000000000100010100011101000000001
1000000000000000000000000000000000000000000000000000000000000011100000000000000000010001110000000000000000000000010101000000001
1000000000000000000000000000000101010101110000000000000011111111111111100000000000000000000000000000000000000000010100000000001
1000000000000000000000000000000111110111000000000000000011111111111111100000000000000000000000000000000000000000010100000000001
1000000000000000000000000000000111110101000000000000000011111111111111100000000000000000000000000000000000000000000000000000001
1000000000000000000000000000000001000010000000010000000000000011100000000000000000000000000000000000000000000000000000000000001
1000000000000000000000000000000111110100010010110000000000000011100000000000000000000000000000000000000000000000000000000000001
1000000000000000000000000000000001000100010111110000000000000011100000000000000000000000000000000000000000000000000000000000001
1000000000000000000000000000000001000111010111010000000000000011100000000000000000000000000000000000000000000000000000000000001
1000000000000000000000000000000000000000000101010000000000000011100000000000000000000000000000000000000000000000000000000000001
1000000000000000000000000000000000000000000101000000000000000011100000000000000000000000000000000000000000000000000000000000001
1000000000000000000000000000000000000000000101000000000000000000000000000000000000000000000000000000000000000000000000000000001
1000000000000000000000000000000000000000000000000000000000000000000000000000000000000000000000000000000000000000000000000000001
1000000000000000000000000000000000000000000000000000000000000000000000000000000000000000000000000000000000000000000000000000001
1000000001010100000100000000000000000000000000000000000000000000000000000000000000000000000001010100011100000000000000000000001
1000000001111100101100000000000000000000000000000000000001010101111100000000000000000000000001111100100000000000000000000000001
1000000001111101111100000000000000000000000000000000000001111101010100000000000000000000000001111100010000000000000000000000001
1000000000010001110100000000000000000000000000000000000001111101111100000000000000000000000000010000010000000000000000000000001
1000000001111101010100000000000000000000000000000000000000010001110100000000000000000000000001111101110100000000000000000000001
1000000000010001010000000000000000000000000000000000000001111101111100000000000000000000000000010000000100000000000000000000001
1000000000010001010000000000000000000000000000000000000000010001010100000000000000000000000000010001111100000000000000000000001
1000000000000000000000000000000000000000000000000000000000010001111100000000000000000000000000000000000000000000000000000000001
1000000000000000000000000000000000000000000000000000000000000000000000000000000000000000000000000000000000000000000000000000001
1000000001010101111100000000000000000000000000000000000000000000000000000000000000000000000001010100010100000000000000000000001
1000000001111100101000000000000000000000000000000000000000000000000000000000000000000000000001111100110100000000000000000000001
1000000001111101000100000000000000000000000000000000000000000000000000000000000000000000000001111101110100000000000000000000001
1000000000010001000100000100000000000000000000000000000000000000000000000000000000000000000000010000010100000000000000000000001
1000000001111101111100101100000000000000000000000000000000000000000000000000000000000000000001111101111100000000000000000000001
1000000000010000010001111100000000000000000000000000000000000000000000000000000000000000000000010000010000000000000000000000001
1000000000010001111101110100000000000000000000000000000000000000000000000000000000000000000000010000011100000000000000000000001
1000000000000000000001010100000000000000000000000000000000000000000000000000000000000000000000000000000000000000000000000000001
1000000000000000000001010000000000000000000000000000000000000000000000000000000000000000000000000000000000000000000000000000001
1000000000000000000001010000000000000000000000000000000000000000000000000000000000000000000001010101010000000000000000000000001
1000000000000000000000000000000000000000000000000000000000000000000000000000000000000000000001111101110000000000000000000000001
1000000000000000000000000000000000000000000000000000000000000000000000000000000000000000000001111101010000000000000000000000001
1000000001010101111100000000000000000000000000000000000000000000000000000000000000000000000000010001000000000100000000000000001
1000000001111100110100000000000000000000000000000000000000000000000000000000000000000000000001111101111100101100000000000000001
1000000001111100011100000000000000000000000000000000000000000000000000000000000000000000000000010001000101111100000000000000001
1000000000010000110000000100000000000000000000000000000000000000001010101110100000000000000000010001011101110100000000000000001
1000000001111101011100101100000000000000000000000000000000000000001111101101100000000000000000000000000001010100000000000000001
1000000000010001000101111100000000000000000000000000000000000000001111101011100000000000000000000000000001010000000000000000001
1000000000010001110101110100000000000001010101111100000000000000000010000110100000000000000000000000000001010000000000000000001
1000000000000000000001010100000000000001111100100100000000000000001111101010100000000000000000000000000000000000000000000000001
1000000000000000000001010000000000000001111100000100000000000000000010001010000000000000000000000000000000000000000000000000001
1000000000000000000001010000000000000000010000100000011100000000000010001111100000000000000001010101011100000000000000000000001
1000000000000000000000000000000000000001111100011100100000000000000000000000000000000000000001111101110100000000000000000000001
1000000000000000000000000000000000000000010000010001000000000000000000000000000000000000000001111101111100000000000000000000001
1000000001010101111100000000000000000000010000010001000000000000001010100011100000000000000000010001100101010000000000000000001
1000000001111100100100000000000000000000000000000001110000000000001111100101100000000000000001111101000101110000000000000000001
1000000001111101110100000000000000000000000000000000010000000000001111101110100000000000000000010000000101010000000000000000001
1000000000010000100000000100000000000000000000000001110000000000000010000110100000000000000000010001111101000000000000000000001
1000000001111101110000101100000000000000000000000000000000000000001111101110100000000000000000000000000001111100000000000000001
1000000000010000010001111100000000000000000000000000000000000000000010001010000000000000000000000000000001000100000000000000001
1000000000010000011101110100000000000000000000000000000000000000000010001111100000000000000000000000000001011100000000000000001
1000000000000000000001010100000000000000000000000000000000000000000000000000000000000000000000000000000000000000000000000000001
1000000000000000000001010000000000000000000000000000000000000000000000000000000000000000000000000000000000000000000000000000001
1000000000000000000001010000000000000000000000000000000000000000000000000000000000000000000000000000000000000000000000000000001
1000000000000000000000000000000000000000000000000000000000000000000000000000000000000000000000000000000000000000000000000000001
1000000000000000000000000000000000000000000000000000000000000000000000000000000000000000000000000000000000000000000000000000001
1000000000000000000000000000000000000000000000000000000000000000000000000000000000000000000000000000000000000000000000000000001
1000000000000000000000000000000000000000000000000000000000000000000000000000000000000000000000000000000000000000000000000000001
1000000000000000000000000000000000000000000000000000000000000000000000000000000000000000000000000000000000000000000000000000001
1000000000000000000000000000000000000000000000000000000000000000000000000000000000000000000000000000000000000000000000000000001
1111111111111111111111111111111111111111111111111111111111111111111111111111111111111111111111111111111111111111111111111111111
